<?xml version="1.0" encoding="UTF-8"?>
<svg id="Layer_1" xmlns="http://www.w3.org/2000/svg" xmlns:xlink="http://www.w3.org/1999/xlink" version="1.1" viewBox="0 0 750 750">
  <!-- Generator: Adobe Illustrator 29.5.1, SVG Export Plug-In . SVG Version: 2.1.0 Build 141)  -->
  <defs>
    <style>
      .st0 {
        fill: url(#linear-gradient2);
      }

      .st1 {
        fill: url(#linear-gradient1);
      }

      .st2 {
        fill: url(#linear-gradient9);
      }

      .st3 {
        fill: url(#linear-gradient3);
      }

      .st4 {
        fill: url(#linear-gradient6);
      }

      .st5 {
        fill: url(#linear-gradient8);
      }

      .st6 {
        fill: url(#linear-gradient7);
      }

      .st7 {
        fill: url(#linear-gradient5);
      }

      .st8 {
        fill: url(#linear-gradient4);
      }

      .st9 {
        fill: url(#linear-gradient12);
      }

      .st10 {
        fill: url(#linear-gradient11);
      }

      .st11 {
        fill: url(#linear-gradient10);
      }

      .st12 {
        fill: url(#radial-gradient);
      }

      .st13 {
        fill: url(#linear-gradient);
      }
    </style>
    <linearGradient id="linear-gradient" x1="175.6" y1="409.6" x2="730.6" y2="177.6" gradientTransform="translate(0 752) scale(1 -1)" gradientUnits="userSpaceOnUse">
      <stop offset="0" stop-color="#009581"/>
      <stop offset=".8" stop-color="#292873"/>
      <stop offset=".8" stop-color="#252341"/>
      <stop offset=".9" stop-color="#27223f"/>
      <stop offset=".9" stop-color="#30213b"/>
      <stop offset=".9" stop-color="#401e33"/>
      <stop offset="1" stop-color="#551a29"/>
      <stop offset="1" stop-color="#71161b"/>
      <stop offset="1" stop-color="#7e1416"/>
    </linearGradient>
    <linearGradient id="linear-gradient1" x1="277.5" y1="653.2" x2="832.5" y2="421.2" gradientTransform="translate(0 752) scale(1 -1)" gradientUnits="userSpaceOnUse">
      <stop offset="0" stop-color="#009581"/>
      <stop offset=".8" stop-color="#292873"/>
      <stop offset=".8" stop-color="#252341"/>
      <stop offset=".9" stop-color="#27223f"/>
      <stop offset=".9" stop-color="#30213b"/>
      <stop offset=".9" stop-color="#401e33"/>
      <stop offset="1" stop-color="#551a29"/>
      <stop offset="1" stop-color="#71161b"/>
      <stop offset="1" stop-color="#7e1416"/>
    </linearGradient>
    <linearGradient id="linear-gradient2" x1="258.8" y1="608.6" x2="813.8" y2="376.6" gradientTransform="translate(0 752) scale(1 -1)" gradientUnits="userSpaceOnUse">
      <stop offset="0" stop-color="#009581"/>
      <stop offset=".8" stop-color="#292873"/>
      <stop offset=".8" stop-color="#252341"/>
      <stop offset=".9" stop-color="#27223f"/>
      <stop offset=".9" stop-color="#30213b"/>
      <stop offset=".9" stop-color="#401e33"/>
      <stop offset="1" stop-color="#551a29"/>
      <stop offset="1" stop-color="#71161b"/>
      <stop offset="1" stop-color="#7e1416"/>
    </linearGradient>
    <linearGradient id="linear-gradient3" x1="226.8" y1="532" x2="781.8" y2="300" gradientTransform="translate(0 752) scale(1 -1)" gradientUnits="userSpaceOnUse">
      <stop offset="0" stop-color="#009581"/>
      <stop offset=".8" stop-color="#292873"/>
      <stop offset=".8" stop-color="#252341"/>
      <stop offset=".9" stop-color="#27223f"/>
      <stop offset=".9" stop-color="#30213b"/>
      <stop offset=".9" stop-color="#401e33"/>
      <stop offset="1" stop-color="#551a29"/>
      <stop offset="1" stop-color="#71161b"/>
      <stop offset="1" stop-color="#7e1416"/>
    </linearGradient>
    <linearGradient id="linear-gradient4" x1="247.2" y1="580.9" x2="802.2" y2="348.9" gradientTransform="translate(0 752) scale(1 -1)" gradientUnits="userSpaceOnUse">
      <stop offset="0" stop-color="#009581"/>
      <stop offset=".8" stop-color="#292873"/>
      <stop offset=".8" stop-color="#252341"/>
      <stop offset=".9" stop-color="#27223f"/>
      <stop offset=".9" stop-color="#30213b"/>
      <stop offset=".9" stop-color="#401e33"/>
      <stop offset="1" stop-color="#551a29"/>
      <stop offset="1" stop-color="#71161b"/>
      <stop offset="1" stop-color="#7e1416"/>
    </linearGradient>
    <linearGradient id="linear-gradient5" x1="214.2" y1="501.9" x2="769.2" y2="269.9" gradientTransform="translate(0 752) scale(1 -1)" gradientUnits="userSpaceOnUse">
      <stop offset="0" stop-color="#009581"/>
      <stop offset=".8" stop-color="#292873"/>
      <stop offset=".8" stop-color="#252341"/>
      <stop offset=".9" stop-color="#27223f"/>
      <stop offset=".9" stop-color="#30213b"/>
      <stop offset=".9" stop-color="#401e33"/>
      <stop offset="1" stop-color="#551a29"/>
      <stop offset="1" stop-color="#71161b"/>
      <stop offset="1" stop-color="#7e1416"/>
    </linearGradient>
    <linearGradient id="linear-gradient6" x1="196.5" y1="459.7" x2="751.5" y2="227.7" gradientTransform="translate(0 752) scale(1 -1)" gradientUnits="userSpaceOnUse">
      <stop offset="0" stop-color="#009581"/>
      <stop offset=".8" stop-color="#292873"/>
      <stop offset=".8" stop-color="#252341"/>
      <stop offset=".9" stop-color="#27223f"/>
      <stop offset=".9" stop-color="#30213b"/>
      <stop offset=".9" stop-color="#401e33"/>
      <stop offset="1" stop-color="#551a29"/>
      <stop offset="1" stop-color="#71161b"/>
      <stop offset="1" stop-color="#7e1416"/>
    </linearGradient>
    <linearGradient id="linear-gradient7" x1="209.6" y1="490.8" x2="764.6" y2="258.8" gradientTransform="translate(0 752) scale(1 -1)" gradientUnits="userSpaceOnUse">
      <stop offset="0" stop-color="#009581"/>
      <stop offset=".8" stop-color="#292873"/>
      <stop offset=".8" stop-color="#252341"/>
      <stop offset=".9" stop-color="#27223f"/>
      <stop offset=".9" stop-color="#30213b"/>
      <stop offset=".9" stop-color="#401e33"/>
      <stop offset="1" stop-color="#551a29"/>
      <stop offset="1" stop-color="#71161b"/>
      <stop offset="1" stop-color="#7e1416"/>
    </linearGradient>
    <linearGradient id="linear-gradient8" x1="184.1" y1="429.9" x2="739.1" y2="197.9" gradientTransform="translate(0 752) scale(1 -1)" gradientUnits="userSpaceOnUse">
      <stop offset="0" stop-color="#009581"/>
      <stop offset=".8" stop-color="#292873"/>
      <stop offset=".8" stop-color="#252341"/>
      <stop offset=".9" stop-color="#27223f"/>
      <stop offset=".9" stop-color="#30213b"/>
      <stop offset=".9" stop-color="#401e33"/>
      <stop offset="1" stop-color="#551a29"/>
      <stop offset="1" stop-color="#71161b"/>
      <stop offset="1" stop-color="#7e1416"/>
    </linearGradient>
    <linearGradient id="linear-gradient9" x1="131" y1="303" x2="686" y2="71" gradientTransform="translate(0 752) scale(1 -1)" gradientUnits="userSpaceOnUse">
      <stop offset="0" stop-color="#009581"/>
      <stop offset=".8" stop-color="#292873"/>
      <stop offset=".8" stop-color="#252341"/>
      <stop offset=".9" stop-color="#27223f"/>
      <stop offset=".9" stop-color="#30213b"/>
      <stop offset=".9" stop-color="#401e33"/>
      <stop offset="1" stop-color="#551a29"/>
      <stop offset="1" stop-color="#71161b"/>
      <stop offset="1" stop-color="#7e1416"/>
    </linearGradient>
    <linearGradient id="linear-gradient10" x1="124.2" y1="286.7" x2="679.2" y2="54.7" gradientTransform="translate(0 752) scale(1 -1)" gradientUnits="userSpaceOnUse">
      <stop offset="0" stop-color="#009581"/>
      <stop offset=".8" stop-color="#292873"/>
      <stop offset=".8" stop-color="#252341"/>
      <stop offset=".9" stop-color="#27223f"/>
      <stop offset=".9" stop-color="#30213b"/>
      <stop offset=".9" stop-color="#401e33"/>
      <stop offset="1" stop-color="#551a29"/>
      <stop offset="1" stop-color="#71161b"/>
      <stop offset="1" stop-color="#7e1416"/>
    </linearGradient>
    <linearGradient id="linear-gradient11" x1="89.1" y1="202.8" x2="644.1" y2="-29.2" gradientTransform="translate(0 752) scale(1 -1)" gradientUnits="userSpaceOnUse">
      <stop offset="0" stop-color="#009581"/>
      <stop offset=".8" stop-color="#292873"/>
      <stop offset=".8" stop-color="#252341"/>
      <stop offset=".9" stop-color="#27223f"/>
      <stop offset=".9" stop-color="#30213b"/>
      <stop offset=".9" stop-color="#401e33"/>
      <stop offset="1" stop-color="#551a29"/>
      <stop offset="1" stop-color="#71161b"/>
      <stop offset="1" stop-color="#7e1416"/>
    </linearGradient>
    <linearGradient id="linear-gradient12" x1="65.5" y1="146.4" x2="620.5" y2="-85.6" gradientTransform="translate(0 752) scale(1 -1)" gradientUnits="userSpaceOnUse">
      <stop offset="0" stop-color="#009581"/>
      <stop offset=".8" stop-color="#292873"/>
      <stop offset=".8" stop-color="#252341"/>
      <stop offset=".9" stop-color="#27223f"/>
      <stop offset=".9" stop-color="#30213b"/>
      <stop offset=".9" stop-color="#401e33"/>
      <stop offset="1" stop-color="#551a29"/>
      <stop offset="1" stop-color="#71161b"/>
      <stop offset="1" stop-color="#7e1416"/>
    </linearGradient>
    <radialGradient id="radial-gradient" cx="378.3" cy="230" fx="378.3" fy="230" r="464.2" gradientUnits="userSpaceOnUse">
      <stop offset=".2" stop-color="#5d2aff"/>
      <stop offset="1" stop-color="#5710b2"/>
    </radialGradient>
  </defs>
  <path class="st13" d="M684.5,429.4c-7-6.5-13.4-13.3-21.3-18.7-23.1-17-50.1-28.2-78.2-33.8-25-5.6-51.5-6.3-77-5.1-6.4-.2-12.7.8-19,1.5-10.3.8-20.5,2.5-30.9,3.2-3-.5-5.4-2-7.6-4.1-7.5-7.1-15-14.4-21.6-22.4-4.3-4.1-7.7-8.9-11.5-13.5-15.4-19.1-30.5-38.6-44.1-58.9-2.6-3.3-2.1-6.7-2.2-10.6.2-18.3-.1-36.6-.6-54.9.3-.8.6-1.7,1-2.5,7.1-2.9,10.3-9.4,11.7-16.6.6-4.9-1.7-9.7-4.5-13.7-5.5-6.8-15-9.8-23.1-5.7-9.7,4-13.8,16.1-9.7,25.5,1.2,2.4,2.6,4.7,4.7,6.4,2.8,2.5,6.2,3.7,9.2,5.8.4.4.6,1,.6,1.7,1,12.6.5,25.3.8,37.9.5,6.3.1,12.7.6,19,.3,3.1-.4,6.8.8,9.6,6.1,7.6,11.4,15.9,17.2,23.8,4.5,5.8,8.9,11.8,13.2,17.8,8.8,11.2,17.8,22.1,27,33,7,8.7,15.1,16.1,22.6,24.5,1.1,1,.8,2.7,1,4.1-5.9,0-11.1-1.8-15.7-5.5-12.5-10.8-23-22.8-33.4-35.7-10.5-12.5-19.6-25.8-29.1-38.9-16.7-25.4-33.8-48.4-46.9-76.1-5.8-13-8.6-27-6-41.2,2-8.2,4.8-17.3,10.1-24,3.9-4.8,7.8-9.6,13-13,6.6-4.1,13.8-7.1,21.5-8,9.7-2.2,20.3.4,29.2,4.3,5.5,2.3,9.3,6.4,13.6,10.4,3.6,3.8,6.3,8.8,8.6,13.4,4.2,8.9,5.3,18.6,4.3,28.3-1.5,8-4.4,15.3-8.4,22.4-3.6,1.7-7.4,1.7-10.8,4.1-6.3,3.4-10.3,10.4-9.6,17.5.5,11,13,19.7,23.5,16.5,5.6-2.2,10.7-5.4,12.6-11.5,2.2-5,.2-9,0-13.9,6.1-6.1,9.4-13.8,12.2-21.8,3.7-11.4,3.9-23.7,1.4-35.4-2.2-12.3-8.1-23.1-15.8-32.8-4.6-5.5-9.7-10.4-15.8-14.3-5.8-4.5-12.4-7-19.2-9.4-9.1-3-18.5-2.8-27.9-2.3-9.7,2.4-19,4.9-27.5,10.4-8.1,5.8-15.5,12.5-21.5,20.6-5.1,7.3-10.3,15.6-12.8,24.2-6.3,22.1-4.1,46.1,5.5,67,3.8,9.9,9.1,19.4,14.8,28.3,4.8,8.3,11,15.7,16.2,23.8,3.4,5.5,7.7,10.4,11.2,15.8,3.3,5,6.8,9.8,10.4,14.5,5.9,7.9,11.5,16.1,17.8,23.7-1.9,3.2-5,5.8-8,8-4.2,2.8-8.1,6.1-12.3,8.8-6,4.2-11.3,8.6-18,11.8-1.3-3.2-4.3-6.8-4.2-10.3-.4-.4-.8-.8-1.3-1.1,2.5.8,5.3-1.6,7.6-2.6,7.4-3.4,13.7-11.4,13.4-19.9,0-8.5-4.9-16-11.9-20.6-7.4-4.4-15.2-8-23.3-10.8-3.3-1.4-6.1-2.1-9.7-2.4-1.6,3.8.2,6.7,1,10.4,3.6,1.6,7.5,2,11,3.7,4.6,2.1,8.9,2.2,12.6,5.6,4.3,3.2,9,6.9,10.8,12.2,1.4,4.8-2.6,9.9-6.1,12.7-5,4.1-11.7,4.8-16.7,8.6,1.4,3.7,3.6,6.9,4.8,10.6,1.9,5.4,3.6,10.9,5.7,16.3,2.8,8.9,4.2,18.5,4.8,27.8.3,4.3-.4,8.7-.8,13-1.7,12.2-4.1,24.2-7.2,36.1-1.1,3.8-2.1,7.5-3.8,11.1,4.5,4.4,11.7,6.5,17.4,8.9,4.9,2.1,9.9,3.4,15.2,2.2,4.2-.7,6.9-3.8,9.1-7.2,3.6-5.4,3.6-12.7,1.1-18.5-1.1-2.1-2.6-4.1-4.7-5.3-3.6-2-8.1-3.8-12.2-2.9-1.9,3.6-2.4,8.2-3,12.2,2.2-.5,4.4-1.5,6.7-2,3,.6,5.9,1.7,6.2,5.3-.6,4-2,8.4-6.3,9.8-6.2-.9-13.1-3.4-18.5-6.5,1.9-9.5,4.9-18.7,6.6-28.3.9-5,.9-9.8,3.3-14.4-.2,1.7-.8,3,.6,4.4,2.4,1.7,5.1,2.9,7.5,4.7,3.9,2.8,8.5,4.7,12.8,7,3.3,1.6,7.1,4.4,10.8,4.6,2.2-.3,4.5-.4,6.7-.8-.2,2.5,2.4,4.4,3.1,6.7,1.1,3.5.9,7.3,1.4,10.9.2,4.2,1.1,8.5.5,12.7-8.3,5.9-17,11.5-25.1,17.9-2.2,1.8-4.1,4.2-6.6,5.5-9.1-4.8-18.6-8.4-28.3-11.7-6.2-2.6-12.5-4.9-18.6-7.6,1.7-6,4.6-11.7,6.3-17.7,5.5-15.7,9.7-31.4,10-48.1-.9-8-1.7-15.8-4.3-23.4-7.2-26.4-21.7-49.1-37.5-71.1-7.5-11.7-15.8-23.6-22-36.1-8.5-16.2-15.5-33.6-19.3-51.5-1.2-8-2.9-15.8-3-23.9-1.3-19.6,1.7-40,9.6-58.1,3.8-10.9,9.8-21.1,16.7-30.3,7.8-9.4,16.2-18.7,25.9-26,6.5-4.3,13.1-9,20.2-12.1,8.3-4.2,17.1-7.9,26.2-9.9,13.2-3.9,27.2-4.2,40.9-2.6,23.6,1.7,45.9,12.1,64.2,26.8,9,8.7,17.6,17.1,24.2,27.9,3.7,5.2,6.6,10.8,9.4,16.5,4.5,9.3,6.7,18.9,8.9,28.9,1.7,10.9,1.6,21.8,1.2,32.8-.8,6.4-2.1,12.8-3.3,19.1-5.8,25.5-20,48.9-36.5,68.8-3.5,4.2-8.3,8.2-10.7,13.1,1.5,3.6,4.6,6.7,7,9.8,2,2.3,3.4,4.7,6.2,5.9,1-1.4,2.1-2.7,3.1-4.1.5.2.9.5,1.4.7,5.7-6.4,11.5-12.8,16.5-19.8,11.2-14.1,21.1-29.6,27.9-46.3,2.3-6.4,5.1-12.5,6.8-19.1,3.4-14.2,5.6-28.4,5.5-43-.5-13.6-2.3-27.1-6.3-40.2-2.8-10.3-7.5-20.3-12.4-29.8-2.6-4.4-5.4-8.7-8-13-18.8-28.1-49.5-46.9-81.8-55.4-8.3-1.3-16.7-3.3-25.1-3.9-9.7-.2-19.3-.4-29,.7-12.3.9-24.4,4.4-35.9,8.7-6.3,2.7-13,5.3-18.8,9.2-13,7.8-25.1,17.5-35.6,28.5-9.5,10.3-17.1,21.9-23.8,34.2-3.4,6-5.4,12.6-8.1,18.9-3.7,10-5.9,20.6-7.6,31.1-3.5,28.1-.7,57.3,8.8,84,2.6,7.5,5.5,14.9,9,22,9.2,18.9,19.6,37.2,31.3,54.7,8.1,12.6,16.6,25.2,23.9,38.2,2.9,4.7,4.9,9.5,4.1,15.1-.5,4.7-2.8,8.5-4.1,13-3.7,12.1-8.3,23.9-12.3,35.9-3.9,11-7.7,22.1-12.2,32.9-2,5.5-3.9,11-6.5,16.2-1.8,4.1-3.2,8.7-5.5,12.6-1.3,1.6-3.3,2.8-5,4-20,14-40.7,25.7-60.9,39.1-1.4,1-2.9,1.7-4.5,2.4-6.3-7.6-19.4-8-26.7-1.5-4.9,4-7.1,11.3-6.7,17.4.6,6.1,4.3,12.3,9.6,15.5,3.4,2.5,8.4,2.8,12.5,2.8,4.4,0,7.8-2.7,11-5.4,2.9-2.3,4.2-6.5,5.2-10,.8-3.1,0-5.9,0-9s1.5-1.9,2.3-2.6c14.3-9.2,28.9-17.5,43-27.1,8.2-5.4,16.3-11,24.3-16.6,1.3-1,3-2.1,3.6-3.6,7.8-19.3,15.7-38.5,22.7-58.2,5.6-14.5,10.3-29.4,15.4-44.1,4.3,2.1,3.7,8,3.8,12.1-1,10.6-3.5,20.7-6.5,30.9-4.1,12.6-8.2,25.1-13.7,37.2-5.5,13.3-10.9,26.4-18,38.9-9.9,18.3-20.6,37-33.7,53.3-9,10.6-17.4,20.4-29.6,27.3-3.3,1.7-6.6,3.5-10.1,4.9-11.2,3.8-23.4,4.5-34.8.8-18.3-5.6-33.2-22.1-35.3-41.3-1.6-11.4,1.9-23.5,9.2-32.4,9.3-12.5,24.3-19.9,39.3-22.8,2.7-.4,5.4-.9,8-1.7,4.9,2.7,9.2,5.4,15,5.5,5.7-.6,10.9-3.9,13.9-8.8,2.7-4.9,4.1-10.2,2.8-15.8-1.3-3.3-3.2-6.7-5.7-9.2-4.8-3.8-11.6-5.1-17.5-3.5-3.9,1.5-7,4.2-9.3,7.6-1.4,3-5.3,2.5-8.1,3.4-6.6.3-11.7,1.4-17.8,3.8-26.8,8.7-48.8,33.4-52.1,61.7-1.7,15.8,2.5,31.7,11,45,6.7,9.9,15.4,18.3,25.6,24.4,19.8,10.7,44.3,11.6,65.1,3.3,11-3.8,21-11.7,29.9-19,4.6-4.7,9.2-9.4,13.7-14.2,15.5-18.5,28.2-40.2,39.5-61.5,6.9-13.5,13.2-27.3,18.6-41.4.5-1.1.9-2.4,1.6-3.4,1.9-.1,3.9.8,5.7,1.4,6.1,2.5,12.1,5.1,18.3,7.2,6,2.3,11.8,5.2,17.9,7.3,1.9.4,2,2,2.8,3.5-.5-.3-1.1-.7-1.6-1-2.2,3.1-4.5,5.7-5.8,9.2-2.5-.7-4-2.5-6.3-3.7-6-3.3-11.9-6.1-19-4.8-4.1,1.5-9,3.5-11.6,7.3-4.9,6.8-6.1,14.3-6.9,22.5.4,2.1,1,4,1,6.1.2,6.8,3.2,13.3,4.1,19.8,1.9,0,3-1.5,4.7-1.7.2.9,0,1.7-.9,2.4-2.4,2.3-4.3,4.9-7,6.8-4,2.9-7.8,6.2-11.4,9.7-1.4,2.7-3.7,5.2-4.4,8.2,1.4.4,3,1.5,4.4,1.2,4-3,8.5-4.9,12.5-7.9,3.8-1.9,5.6-5.8,9.5-7.5-1.9,3.7-3.5,7-7.5,8.7.7.7,1.3,1.5,1.8,2.2-.4,0-.8.3-1.2.5-.6-.4-1.2-.8-1.8-1.2-5.1,5.8-8.8,12.4-13.9,18.2-4.2,4.8-9.6,6.3-13,11.7-.4-.2-.8-.3-1.2-.5-6.2,1.7-11.4,5.1-17.7,6.1-1,.6-2,1.2-2.9,1.8-.6-1.8.2-3.2.9-4.8,1.5-3.2,2.9-6.5,4.8-9.5,2-3.1,4.9-5.9,7.4-8.6,1.8-1.9,3.7-3.5,6.1-4.6-.2-1.7-.2-2.6.6-4.1,0-1.7-.1-3.3-.1-5,.2,1.8.7,3.6.7,5.5-1.8,4.8-1.3,9.5-1.2,14.5,0,1.7.9,2.8,1.7,4.1-.5.8-1,1.6-1.4,2.5,1.5-.4,3-1,4.3-1.7-.2-.8-.4-1.7-.5-2.5,2.3-.2,3.8-1.5,5.7-2.7,0-5.5-1.3-10.4-.4-15.8,1.6-10.9,4.1-21.3,9.8-30.8,1.9-3.2,5-5.3,4-9.5l-1.4-.4v3.9c-.7-1.5-1.4-2.9-2.1-4.4h1.8c-.2-1.6-.4-3.2-.5-4.8-2,2.7-4.7,4.7-6.5,7.7-3.1,4.9-6.3,9.2-8.4,14.6-1.9,4.9-3.7,9.9-4.9,14.9-.3,2.2-2,2.4-3.5,3.6-5.6,4.8-11.2,9.4-15.7,15.3-5.5,6.4-8.2,14.1-10.9,22-3.5,6.2-3.5,14.3-4.4,21.3,3.2-.5,6.2-2.1,9.2-3.4,1.2-5,1.6-10.1,3.7-14.9.3,1.5,1,2.4,2.1,2.7-.2.9-.4,1.8-.5,2.7,3.7.5,7.4-1.7,11.2-1.7-.4,2.9-2.8,3.2-4.4,5.2-2,2.8-4.5,4.8-7,7-6,3.9-12.5,6-19.4,7.7-3.1.6-6.8.2-10,1.1-3.6,1-6.8,3.8-9.9,6-1.1.7-1.8,1.8-2.6,2.9,3-1,5-.9,8-.2-1.1,2-2.7,1-4.5,1.2-1,.9-1.5,2-2.9,2.2-7.5.7-15.1,4.9-22.5,4.1-.7.5-1.4,1-2,1.5-1-.2-2-.4-3-.7,3.8-2,7.9-2.4,11.2-5.3,11-7.5,19.6-18,30.7-25.3,3-2,6.3-2.9,9.4-4.6,2-1.9,3.5-4.2,4.1-6.8.4-1.8,1-3,2.1-4.5-12.9,2.9-23.8,10.8-34.9,17.6-2.8,2.9-4.7,6.5-7.9,9.1-4.8,3.9-9.2,8.1-14.6,10.5-4.2,1.9-8.8,3.2-13.3,4.3-12.2,1.5-24.6-2.7-35.5-7.9-5.5-3.5-11.4-6.5-16.4-10.6-9.3-8.7-19.1-18.6-24.8-30.1-7.9-13.3-12.4-28.6-13.8-43.9,0-7.3-.4-14.7.7-21.9,1.2-10.9,5.2-21.6,9.5-31.7,3.5-6.3,6.9-12.9,11.6-18.4,3.7-4.1,6.8-8.4,11.2-11.9,3.1-2.6,6.5-4.7,9.1-7.8,1.7.7,2.8,2.1,4.7.7,4.3-3.1,8.4-6.3,13.1-8.8,2.1-1.3,4.9-2.1,5.7-4.8,6.8-2.8,14.1-4.7,21.3-6,11.7-1.5,24.7-1.9,36.1,1.4,0,5.5,2.6,10.6,6.9,13.9,5,3.1,12.3,4,17.6,1,6.5-3.4,9.5-10.8,8.3-17.8-1.5-4.3-2.9-8.8-7.1-11.2-3.8-1.8-7.9-3-12.1-2-4.1.5-7.7,4.2-10.8,6.6-1.4-.6-2.7-1.2-4.1-1.4-11.4-1.8-22.8-2.3-34.2-.4-9.7,1.5-19.5,3.2-27.9,8.5-.8-.9-1.6-1.7-2.5-2.5-3,1.1-5.8,2.4-8.5,4.2-4.6,2.9-10.4,5.1-12.8,10.3-9.7,7.5-18.3,16.8-24.9,27.1-7.9,10.2-12.5,23.5-16.2,35.7-2.4,9.9-3.6,19.9-3.2,30.1-.3,18.3,4.4,36.2,12.8,52.4,8,16.2,20.8,30.2,35.4,40.6,9.4,6.8,19.9,11.9,31.1,14.8,9.9,2.5,19.5,4.7,29.9,4.2,8-.4,15.6-.6,23.4-2.6,5.9-1.9,11.8-3.7,17.8-5.1,2.4-1,4.2-3,6.5-4.2-.4-.6-.9-1.2-1.5-1.7-2.7,2.3-5.3,1.1-8.4.5.7-1.4,1.9-2.1,3.4-2.4,4-.8,8-.4,11.9-.8,6-1.1,12.2-3.6,17.9-5.9,3.2-1.2,6-3.1,8.6-5.3,5.5-4.5,11.4-9.6,15.4-15.6s4.5-5.5,5.9-8.9c1.1-2.4,3.7-3.9,5.3-5.9,3.7-4.2,7.9-7.1,11.1-11.7,2.4-3.4,4.9-6.8,6.6-10.5.6-1.3,1.4-2.5,2.3-3.6.4-4.6,2.8-9.1,4.9-13.2,6.7-8.6,16.1-17.6,20-28.1,1.9-3.8,3.4-9,1.6-13.1-1.1-4.9-7.5-6.1-11.7-6.1-5.6-.8-9.8,4-10.2,9.2,2.6.2,2,.6,2.8,2.7,2.1-.9,4.2-2,6.4-2.8,1.3-.4,2.3,1.5,3.3,2.2-.9,2.4-1.5,5-2.7,7.3-2.6,4.8-6.4,8.9-10.1,13-1.1.2-2.6.6-3.7.3-.2-1.8,1.8-3.8,1.4-5.8-.9-8.9-4.5-19.2-1.8-27.9,1.4-3.4,4.3-6.3,7.2-8.6,4-2.9,10.8-.9,14.8,1.1,5.9,2.8,8.4,9,13.7,12.1,4.2-8.3,9.6-16,15.3-23.4,4-5.4,10-8.7,15.1-12.9,10-8.2,21.4-15.1,33.6-19.4,6.3-2.9,12.9-5,19.2-7.7,3-1.3,7.2-2.1,9.1-4.9.5-6.4-2-13.3-3.4-19.5-1.1-6.2-4.6-13.6-10.5-16.5-5.4-.9-10.4.2-15.6,1.7-2.4.7-5.6,1.5-7.4,3.3-.7,1.6-.1,3,.3,4.6,2.2,6.6,4.2,13.4,5.5,20.3,1,.3,2.1.5,3.2.6,1.7-1.3,3.7-2,5.6-3,.6-4.8-2.9-10-3-15,2.1-3.5,8.7-5.1,10.3-.5,2.8,5.3,4.9,11.3,5.3,17.4,0,.9-.5,1.4-1.1,1.7-5.7,3-11.8,4.9-17.8,7.3-3.7,1.4-7,4.1-11.1,3.7-2.3-7.9-.5-15.3-3.3-23-1.3-3.2-3.1-6.2-4.5-9.5-2.1-4.9-5.6-8.1-5.8-13.7,3.6-2.1,6.9-4.7,10.5-6.7,4.2-2.3,7.8-5.8,12.4-7.3,1.7-.4,3.1-.9,4.8-.2,4.3,1.9,8.1,4.7,12.6,6.3,4,1.5,7.7,3.7,11.8,5.1,1.8,4.5,3.9,8.8,5.4,13.5,2.3,7.8,4.3,15.8,5.6,23.8.8,4.5,2.2,8.6,2.4,13.2-7.7,2.2-15.3,4.5-22.8,7.4-9.2,3.1-17.9,8.1-26.7,12.6-8.2,4.2-15.1,10-22.2,15.8-3,2.7-6,5.3-8.6,8.5-4.9,6.5-10.1,12.7-14.2,19.8-4.3,7.9-9.3,15.5-13.6,23.4-3.8,7.1-8.6,13.5-12.3,20.7-5.2,9.2-11.5,17.8-17,26.9-12.3,17.4-25.4,33.5-41.3,47.7-6.3,4.7-12.4,9.8-18.9,14.2-10.3,6.1-20.4,11.8-31.9,15.3-5.6,1.7-11.4,3.7-17.2,4.6-17.4,2.6-34.9,2.5-52-1.7-31-7.3-59.1-27.2-76.1-54.2-8.6-12.3-14.5-26.6-18.2-41.1-4.7-17.2-5-34.6-3-52.2,2.3-12.4,5.1-25.9,10.9-37.2,4.9-11.8,12.5-22.6,20.9-32.2,6.3-6.1,11.5-12.3,18.6-17.2,10.4-8.5,22.3-14.4,34.6-19.6,8.9-3.3,17.8-6.1,27.3-7.3,8.1-1.5,16.8-1.1,25-1,14.6.9,29.5,3.8,43,9.6,2.3.7,4.6,1.5,6.7,2.6,3-6.8,5.8-13.5,8.9-20.2-.3-1.1-2.2-1.4-3.2-1.8-11.8-4.6-23.7-7.2-36-9.7-12.3-1.8-25.1-2.9-37.5-1.6-3.8.8-7.7.5-11.5,1.3-4.1.8-8.4,1.2-12.5,2.1-14.5,3.6-28.5,8.5-41.6,15.9-16,9.3-30.6,21.4-42.4,35.7-3.9,4-6.8,8.6-9.8,13.2-9.7,13.2-15.8,28.1-20.6,43.6-6.6,21.7-7.4,44.7-4.6,67.1,5.1,28.7,16.6,56.1,35.6,78.4,4,4.6,8.3,9,12.6,13.3,8.8,8.3,18.6,14.8,28.9,21.1,4.1,2.3,8,4.7,12.4,6.5,8.5,3.6,17.3,7.5,26.3,9.2,10.2,2.7,20.6,4.1,31.1,4,6.4.3,12.5-.9,18.9-1.3,20.8-2.4,41.2-9.7,59.5-19.9,9.2-4.8,17.3-11.1,25.5-17.5,7-6.4,14-12.6,20.5-19.4,5.5-6.2,11.1-12.3,16.1-19,5.3-7.4,10.7-14.7,16.1-22,13.7-20.9,26.7-42.7,40-63.8,3.5-6.5,6.6-12.8,11.6-18.4,6.5-1.5,13.2-2.4,19.8-3.4,20-3.7,40.1-6.5,60-10.8,8.1-1.3,16-3.2,24-4.8,6.3-1.7,12.7-2.4,19-4.1,5.1,3.3,11.1,5.5,16.5,8.2,5.4,3.2,11.4,5,16.8,8.1,10,4.6,19.5,10.8,29.9,14.5l.5.6c-.2,5-.3,9.5,2.5,13.9,4.3,7.8,13.4,11.9,22,8.9,6.6-3,11.7-9,12.1-16.5.6-6-2-11.9-6.4-15.9-4.2-3.2-9.5-6-14.9-4.6-3.7,1-8.1,2.7-10.2,6.2-3.7-1.3-6.8-3.5-10.3-5.2-18.4-9.2-37.1-18.4-55.8-27.2-2.1-1-5.1-.2-7.3.2-7.8,1.8-15.7,3.4-23.5,5-5.2.6-10.2,1.8-15.3,2.9-11.9,2.5-23.8,4.4-35.7,6.8-8.9,1.1-17.9,2.5-26.8,3.9-1.7.4-3.4,0-5.1,0,.7-1,1.3-2,2.1-2.8,15.8-11.7,34.5-18.7,53.5-23.4,6.1-1.7,12.4-2.7,18.5-4.4,9.2-2,18.6-3,27.8-4.9,11-2,21.9-3.5,33.2-3.8,7-.9,13.9-.6,21-.7,9,.2,17.5.1,26.2,2.7,9.4,1.8,18.4,4.6,26.7,9.5,11.8,7,21.8,16.5,28,28.9,5.3,11.2,7.5,23.7,5.4,36.1-2.2,12.2-9,23.7-19.1,31-4.9,3.9-11.3,6.1-17.2,8-20.7,4.1-42.6-5.3-55-22.2-1.2-1.7-2.5-3.3-4-4.8,1-4.9,2.7-9,1.4-14-1.8-6.2-6.7-12-13.3-13.2-4.2-.5-8.1-.9-12,1.1-10.8,6-13.8,23.5-3.8,31.7,3.4,2.4,7.4,5.2,11.6,5.5,2.5,4.5,4.8,8.8,8.3,12.7,3.4,3.7,6.5,7.3,10.4,10.5,7.4,6.4,16.4,10.3,25.5,13.6,23.5,7.9,50.7.4,68.5-16.5,6.7-6.6,12.1-14.7,15.8-23.3,6.2-16.1,7-34,2.4-50.7-1.7-5.9-4.3-11.7-7-17.2-4.3-7.4-9.5-14.4-15.4-20.5-3.9-3.4-7.8-6.8-11.9-10.1-13.8-9.6-29.7-16-46.4-18.7-7.9-1.5-16-2.7-24-3-19-.2-38.3.8-57,4.4-9.3,1.4-18.4,2.7-27.5,5.2-3.6.8-7.1,1.9-10.9,2.1-.5-5.6-2.4-11.1-3.4-16.6-2.4-9.9-4.2-20.3-7.8-29.8,3.8-.6,7.6.2,11.4-.7,1.1,6.3,2,13.4,4.3,19.4,2.8,5.1,6.6,9.9,11.8,12.7.6-.8.8-1.6,1-2.5.4,1.1.8,2.2,1.2,3.3,2.9-.2,5.8.3,8.8.2,10.6,0,21.7-3.9,32-6.3,7.8-2.4,16.3-3.6,23.7-7.1,7.3,4.2,15.9,6.4,24.2,7.7,8.2,1.3,16.8.7,25.1.4,4.1-1.3,8.4-1.3,12.4-2.8,2.8-.6,5.7-.5,8.5-1.3,6.6-1.9,14.6-.5,21.3-.7,1,1.1,2,1.8,1.8,3.5.2,3.8-1.3,9,.6,12.4.6-.4,1.3-.8,1.9-1.1.7,1.4,1.3,1.8,2.8,2.4-2.4-.9-4.9-1.2-7.4-1.6-1.8-.5-3.2-1.9-5.1-2.5-6.5-2.1-12.5-5.2-18.9-7.4-2.2-.8-4.7-2.8-7-1-1.7,1.6-3.8,3.3-4.9,5.4,12.6,5.4,25.3,11.9,38.7,16,6,2.3,12.1,4.2,18.2,6.4,5.1,1.7,9.2,4.9,14.2,6.9,0,.2.2.4.4.6.2-3.3-.4-7-2.2-9.8-2.5-2.5-6-4.1-9.1-5.8-4.6-2.3-9.3-4.8-14.2-6.1.3-3.9,0-7.8.2-11.7.2-1.5-.9-2.9-1.4-4.3,2.6.1,4.3,1.8,6.6,2.9,9.9,5.3,17.1,14.4,21.1,24.8,1.5,6,2.2,12.5,2.9,18.6.5,3.3-.8,6.5,0,9.8,2.4,0,1.5-3.1,2-4.8-.5,3.5,1.1,6.3.8,9.7h1.1c0-.4-.2-1-.3-1.5,1.1-.7,2.7-.7,3-2.2,1.1-3.1,1-6.4,2.3-9.5.9,3.6,2.7,6.6,4.1,10,2.8,6.6,4.5,13.5,5.8,20.5,1.2,4.8.6,10.1.8,15,.4,10.5-2.4,21.2-5.9,31-2.2,8.2-6.5,15.8-11,22.9-2,3.3-4.7,5.8-7.4,8.7-1.9,2-4.4,2.9-6.3,4.8-2.5,2.6-4.8,5.3-7.1,7.9-1.8,2.2-4.4,2.8-5.5,5.7.5.4,1,.8,1.5,1.2-3.5,1.3-6.5,4.3-9.6,6.4-8.2,5.9-18.1,9.7-27.8,12.1-17.2,5-36.3,3.2-53.2-2.3-2.6-.5-2.4-3.2-3.2-5.2-6.3-2.1-11.6-5.6-17.5-8.3-1,1-2.1,2-3.3,2.9-3.5-2.8-7.3-5.2-10.9-7.9-16.1-12.6-31.4-29.9-37.6-49.7,3.5-2.1,5-5.4,6.9-8.8,3.1-8.5-1.2-19.7-10.2-22.5-7.6-3.2-16.8.4-20.5,7.6-5.4,9.1-.7,23.3,10,25.9,1.5.6,3.8.8,4.5,2.4,2.2,3.8,3.7,8,6.1,11.8,3.7,5.7,6.9,11.5,11.3,16.7,6.3,8.2,13.9,14.5,21.5,21.4,3.5,3,7.1,5.8,11.4,7.7,2.7,1.2,2.6,4,6,4-.9,1.6-.7,3.1-2.7,3.7,5,4.2,10.4,6.4,16.2,9.1,3.2.7,4.7-1.4,7.1-3,14.8,6.2,30.7,7.4,46.5,6.4,15.3-2.1,30.8-6.8,43.5-15.7,3.8-2.4,7.3-5.1,9.8-8.9.8.6,1.4,1.2,2,1.9,1.7.3,3.3,1.1,5,1.4,1.2-.3,1.9-1.2,2.7-2,4.1-4.5,8.5-9.3,11.4-14.6,1.6-2-1.2-3.8.4-5.6,2.7-3.5,4.9-7.1,7-10.9,5.2-7.8,8.8-16.3,12-25.1,2.5-7.9,4-16.3,5.3-24.4,1.7-18.1-1.9-36.7-9.5-53.2-2-4.8-5.9-9-10.1-12-1.2-4.5-1.6-8.9-3.6-13.1-4.5-14.6-16.4-26.9-30.4-32.8-2.9-1.4-6.2-1.9-9.1-3.2-1.9-.9-3.4,0-5.1.9-.4-1.7-1.7-2.2-2.9-3.1h3.5c-2.7-3.5-7-5.7-10.4-8.4-5.1-4.3-11.8-6.8-18.2-8.6-4.8-1-9.1-2.7-14-3.2-7.4-.7-15,.2-22,2.6-2.5.8-4.9,1.6-7,3.2-4.9,3.4-11.4,5.2-15.8,9.1.8,2,4.3,2.9,6.1,3.9,5,.7,9.8-3.5,14.9-4.4,2.3,3.1,5.3,5,8.3,7.2,2.9,2.1,6.2,4,9.7,4.7,3.8,0,8.3.4,11.8-1.5-2.8-2.7-6.4-3.9-9.4-6.3-3.6-2.9-6.9-5.7-11.3-7.2.5-1.1,1-1.8,2.3-2.1,9.1-1.2,17.1,1.1,25.7,3.6,4,1.1,7.4,3.8,11.5,4.5,2.4,1.1,3.9,3.1,6.5,3.6,1.2.5,2.5.4,3.2,1.7-5.8-1.1-11.9,0-17.7.8-3.5.8-6.8,1.5-10.4,1.4-1,.5-2,1.4-3.1,1.4-4.1.2-7.9,1.4-12,1.6-4.6.3-8.5,1.8-13.1.4-5.4-1.5-11.7-2.9-16.3-6.2-5.2-3.2-10.6-5.9-15.5-9.6-3-2.3-6.1-4.3-9.3-6.2-1.3.8-2.6,1.6-3.9,2.3-.6,1.1-1.1,2.2-1.7,3.2.8,2,1.5,3.8,3.4,4.9,3.7,2.1,6.7,5.1,10.1,7.6-3.5-1-6.8-1.9-10.2-.2-8.4,2.4-17,4.8-25.5,6.6-6.5.9-12.5,2.4-19,.9-5.8-1-9.9-6.5-11-11.9-.9-4.1-2.3-8.8-1.9-13,1-2.6,1.9-5,1.8-7.9-5-.2-9.9,1.2-15,1-11-.5-21.7-3.5-31.3-8.8-14.9-8.4-26.1-20.1-37.5-32.5-2.1-2.9-6.2-2.6-9.2-1.8-5.1,1.7-10,4.6-14.4,7.8-3.8,3.1-7.1,6.7-8.2,11.6-1.6,4.9.5,10.1,2.8,14.5,1.8,2.5,4.1,4.6,6.4,6.6,3.5,2.9,9.4,2.2,13.4.5,2.6-2.3,5.5-5.4,6-8.9-.1-2.8-.8-5.7-1.3-8.5-1.7,0-3.4-.2-5.1.1-2.9,1.3-3.2,5.8-5.5,7.6-4.2,1.8-8.3-3.4-7.8-7.2-.4-3.9,3.9-7.2,6.7-9.3,3.7-2,7.5-4.9,11.8-4.5,1.4,2.7,3.6,4.3,5.6,6.6,5,5.5,10.8,10.2,16.2,15.3-5,2.3-9.7,5.2-14.7,7.7-4.7,2.5-8.5,6.1-11.8,10.2-1.7,2.2-1.4,5.4-1.7,8.1-.2,2.2.4,5,1.9,6.7,1.5,1,2.3,1.6,2.9,3.3-3.2-2.1-7-2.8-10.2-4.7-4.1-1.9-7.6-4.2-11.2-7-4.7-3-10.4-7.3-13.1-12.2-.1-5.8-1.4-11.3-1.6-17-.3-5.9-3-11.4-3.5-17.2,2-.2,3.8-.6,5.5-1.7,10.1-6,19.5-13.1,29.1-19.9,2.7-1.8,4.9-4.2,7.7-5.8,2.5,2.8,5.1,5.4,7.6,8.1,8.7,10.9,18.4,21.1,29.5,29.5,5.6,4,11.8,6.2,18,8.8,3.4,1.1,7,1.8,10.5,2.5,15.5,1.1,29.2-2.3,44.5-3.8,5-.3,10-1.2,15-1.5,7.7-.8,15.3-.7,23-1.1,7.3,0,14.6-.6,21.9,0,23.3,1.2,47.2,5.2,69,14,5.9,2.1,11.9,4.6,17.2,7.9,5.1,3.2,10.5,6.1,15.2,9.9,4.4,3.5,9.3,6.7,13.3,10.7,5.6,5.5,11.2,10.7,16.2,16.9,2.7,2.8,4.9,5.7,7,9,5.6,7.8,10.5,15.8,14.1,24.8,2.4,6.2,5.5,12.4,7.2,18.9,7.4,24.8,7,52.1.2,77-.9,3.2-2.3,6.3-3.4,9.5-2.3,7.4-6.4,14.3-10.1,21.1-9.3,15.7-22.2,29.3-37.1,39.8-17,11.2-37,19-57.5,20-11.8,1.1-23.3-.3-35-2-13.5-2.9-26.5-8.2-38.5-14.9-11.1-6.8-21.4-15.1-30.6-24.4-11.2-12.7-21.3-25.8-28.8-41.1-.9-2-1.3-3.9-3.1-5.4-6.4,2.1-12.7,4.3-19.1,6.4,5.9,18.1,17.6,34.9,29.7,49.4,5.6,6.2,10.9,12.3,17.4,17.6,8.7,7.5,18.2,14,28.1,19.8,19.9,11.4,43,18,65.9,18.7,7.7-.3,15.4,0,23-1.5,19.6-2.8,38.6-9.2,55.5-19.5,10.5-6,19.9-14.1,28.6-22.5,19.1-20,33-44.8,39.3-71.8,1.8-7,2.6-14.1,3.6-21.2,0-4.8.7-9.4,1-14.1.5-14-2-28.3-5.2-42-7.8-29.1-22.9-56.3-44.3-77.6l-.2.5ZM355.3,191.1c.7-3.2,2.3-6.1,5.7-7.1,6.9-2.6,14.1,6.2,10.4,12.6-1.5,1.1-3.1,2.5-4.9,3-5,1.8-11.8-3.1-11.2-8.5ZM405.5,247.4c-3.5,1-6.2,0-9.2-1.8-.7-1.5-1.5-3-1.9-4.6.3-2.1,1.3-4.2,2.4-5.9,3.9-4.2,11.8-3.6,14.1,2,1.5,4.7-1.8,7.9-5.3,10.3h-.1ZM165,569.8c-3.3.7-6.5-2-8.4-4.4-3.1-4.8-.3-12.1,5.5-13.2,2-.4,4-.3,5.8.9,2.5,1.8,5.4,3.4,5.4,6.9,1.1,5-3.9,9-8.3,9.9h0ZM183.4,491.4c5.1-3.5,11.8.8,11.8,6.6.8,3.4-1.7,5.4-4.2,7.1-4.2,2.5-9.9-1.6-11.5-5.5-.3-3.4.9-6.3,3.9-8.2ZM269.9,611v.6h-.5v-.6h.5ZM212.4,455.4c3.3-1,5.5.4,8.2,1.9.4,2,1.2,3.7.5,5.7-.7,4-5.8,6-9.1,3.7-4.3-2.1-3-8.9.3-11.4h.1ZM271.2,629.5c-2.2.2-3.8,0-5.8-1-1.8,1.4-3.4,2.2-5.7,2.6v-1.1c3.9-4.5,10.6-4.9,15.2-8.8-1.1,3.1-1,5.9-3.7,8.2h0ZM582.1,540.1c4.2-.2,8.3,2.5,9,6.8,1.1,4.6-2.3,7.9-6.1,9.7-1.9,0-3.8-.5-5.5-1.2-2.7-1.3-4.5-4.5-4.5-7.5-.2-4,3.3-7.5,7.1-7.9h0ZM524.7,569.7c-2.5.9-6,.6-7.9-1.6-1.9-1.7-2.4-4.9-3.3-7.2,1-2.5,2.7-4.4,4.5-6.3,3-.4,5.7-.9,8.3,1.1,4.7,3.5,3.5,11.5-1.6,14ZM535.8,570.8h-.5v-.6h.5v.6ZM470,564.7c-1.4-1.2-3-2.4-4.3-3.7-1.7-3.6,0-9.5,4.1-10.8,4.1-.6,8.6,2.5,9,6.8-.8,4.7-4.4,6.9-8.8,7.7h0Z"/>
  <path class="st1" d="M437.3,138.7c4.2,7,8.8,14.4,11.1,22.2,1.4,4.5,3.3,8.6,3.8,13.3l1.2.7c-1.2,1.9-2.9,2.8-4.7,4.2,1.3,6.9,1,13.6,3,20.4,4.8,1.2,9.4,1.9,13.8-.9,1.2-2.8,2.1-5.4,1.5-8.5-.8-5-.8-11.9-4.2-16-2.6.8-5.2,1.6-8,1.9.7-2.1,4.2-1.2,5.9-2.6-1.4-8.9-4-17.1-8-25.1-3-7.6-7.7-13.9-12.3-20.7-2.1-3.2-4.6-5.9-7.2-8.8.4-.6.9-1.2,1.3-1.8-1.6-3.9-5-5.9-8.2-8.4-3.4-2.4-6.8-5-10.4-7-.5.8-1,1.6-1.5,2.4-2.7-.5-5.2-2.7-7.7-3.9-9.9-4.6-20.1-8.2-30.9-9.7-16.1-3-33.2-2-48.8,2.9-6.9,2.5-13.9,5-20.2,8.7-9.4,4.8-17.7,12.4-25,20-6,5.3-9.3,12.1-14,18.7-1.1,2.5-2.5,5.2-2.7,8,1.3-1.2,2.3-2.6,3.4-4,3.7-2.8,8.5-4.3,12.5-6.5,6.4-6.7,12.9-14.5,20.7-20.2,6.6-4.8,13.6-8.9,21.2-11.7,5.6-1.9,10.8-4.5,16.8-5.3,11.3-2.6,22.8-3,34.1-.6,11.1,1.9,21.7,5.5,31.6,10.8,5.2,4.2,9.8,10.1,15.5,13.6,2,1.8,5.1-1.2,7.5-1.5-.6.5-1.3,1.1-1.9,1.6,3.5,4.7,7.5,8.8,10.5,13.8h.3Z"/>
  <path class="st0" d="M301,134.9c5.2-2.6,10.5-5.2,15.4-8.4,7.7-3.4,15.6-8.8,23.9-11.2.3-1.2.2-2.5.3-3.8-1.2-.7-2.3-1.4-3.6-1.8-3.9.7-7.7,2.5-11.5,3.8-6.7,2.2-13.3,5.2-19.3,9.1-4.3,2.7-8.7,5.7-12,9.7-1.2,1.2-.5,2.3-.4,3.8-4,3.2-8.4,3.9-12.9,6-6.9,3.3-13.2,7.4-19.9,11.2-3.9,3.4-6.3,7.5-9,11.9-5.4,9.3-7.6,20.3-6.1,30.9.5,3.2.2,6.1,1.5,9,.1-2.2.3-4.3.6-6.5.5.7,1,1.4,1.6,2,3.6-7.1,2.5-14.9,5.9-22,4.2-9.6,10.3-18.1,20.2-22.2,4.9-1.8,10.5-5.2,15.7-5.5.4.5.7,1.1,1.1,1.6v-2c.8-1.9,3.5-1.4,4.8-3,2.7-2.1,4.2-6,7.3-7.2-3.3-1-6.5-1.9-10-2.3v-3c2.3.4,4.2,1.2,6.5,0h-.1Z"/>
  <path class="st3" d="M282.7,168.7c2.4-5.1,5.7-9.7,8.2-14.8-1.5.7-2.6,1.1-3.5,2.6-.1-.6-.3-1.1-.4-1.7-3,1.2-5.5,3.4-8.2,5.1-.2.9-.3,1.8-.3,2.8-.4-.5-.9-1-1.3-1.5-1.5,1.2-3,2.2-4.6,3.3-2.8,1.4-2.8,5.7-3.6,8.4.5,2.6,1.6,5,2.5,7.5.2,3.6,1.5,6.8,1.1,10.4-.2-1.6-.3-3.2-.5-4.8-.7.1-1.2.3-1.6.4,0-2.3-1.2-4.1-2.3-6l1.8-1.5c-.8-.7-1.6-.8-2.6-.4-3.2,1.9-4.7,5.7-7.5,8.4-2.8,2.8-4.1,6.2-5.3,9.9-.7,2.1-2.1,4-2.4,6.1-.7,4.8-2.6,9.2-3.4,14-1.7,13.1,1.5,26,7.8,37.5,1.6,3,4.9,3.6,5.7,7.3,2.2,11,4.7,21.5,10.8,31.1,2.6,3.9,4.3,7.9,7.5,11.4,2,2.7,4.9,4.3,7.1,6.7-.2-.9-.4-1.9-.5-2.8.9-.1,1.8-.2,2.7-.4.5-2.6.5-5.1.6-7.7.7,3.9-.2,7.5-1.1,11.4h1.9c-.5,2.6.3,5,1,7.4,2,5.9,3.7,11.5,7.2,16.7,2.7,4.1,5.9,8,9.7,11.2,2.9,2.5,7.1,3.8,10.8,2.3,4-.9,5.8-5.3,6.1-9-.1-4.4-.8-9.3-1.6-13.7-1.4-1.8-4.7-2-6.8-2.6-1.9,5.8-1.2,11.4-1,17.4-1.5-.4-1.6-1.5-2.4-2.7-4.8-3.6-8.1-9.6-11-14.8-2.3-7.3-5.5-15-5.4-22.7-.2-5-.7-10-.7-15l-1.6-.8c.3-.6.6-1.3.9-1.9-2.5,0-4.6-.9-6.9-1.7-.2,5.6-.7,11.4-.2,17-1.1-.6-2.2-1.1-3.3-1.7-3.5-5.9-7.9-12.2-10.4-18.7-1.8-5-3.1-10.2-4.3-15.4-1.6-5.9,1.5-12.8,2.4-18.6.4-3.7-2.8-5.4-2.5-8.9-.7-.7-1.5-1.5-2.2-2.2,1.6.7,2.7,2,4.3,2.7-.1.4-.2.7-.4,1.1,3.6,3.4,7,6.4,9.6,10.6,3.1,5.1,5.4,11,7.8,16.4.9,2.1,2.8,3.5,5.1,3.8-.2.5-.5,1-.7,1.5,1.6,1,3,1.8,5,1.7.1-4.8-1.9-8.6-2.9-13.3-1.1-5.3-3.6-10.4-6-15.2-3.2-4.9-7.5-9.2-11.2-13.8-1.1-1.8-.9-4.4-.5-6.4,2.4-10.4,2.8-21.4.9-32-.2-4.4-2.8-8.9-1.4-13,.8-3.2,2.7-5.3,4-8.2v-.2ZM270.3,220.8c-.5-3.7-3.1-5.3-5.4-7.9-1.1,1.4-2.3,2.6-3.4,4-.3,2.8-.3,5.4.2,8.2,2.1,1.9,5.2,4.2,6.2,7-.5,5.7-3.3,11.3-3.7,17-.1,2.3-.4,4.6-1,6.8.1-2.2.6-4.7,0-6.9-2.3-5.5-4.9-11.5-5.9-17.4-1-7.6.5-14.6,2-22,2-7.4,6.5-12.4,10.6-18.7.8.2,1.3.7,1.5,1.5,3.1,9.3-.7,18.6,1.3,28.6,1.2,1.3,2.2,2.6,3.1,4.1-2-1.3-4-2.7-5.8-4.3h.3Z"/>
  <path class="st8" d="M420.5,269.4c-1.4,1.2-2.8.8-4.5,1-6.3.3-12.3,4.4-14,10.6-2,6.6,1.9,13.1,7,17.1,5,3.2,10.8,2.6,15.5-.6,3.4-2.7,4.9-6.5,6-10.6.9-2.8-.4-6.2-1.2-8.9,1.2-4.8,5.1-6.6,7.9-10.7,14.7-17.3,24.4-39.5,25.8-62.2.2-1.8-1.1-2.9-2.1-4.2-2.2,0-4-.7-5.7,1.2.2.6.4,1.1.5,1.6-1.8,7.4-2.8,14.7-5.4,22-3,8.4-6.9,16.7-11.8,24.1-5.4,6.9-11.2,14.4-18.2,19.8l.2-.2ZM413.7,290.3c-3.8-2.2-4-8.5.9-9.7,2.8-1,7.6-.7,7.4,3.4.8,4-4.5,8.9-8.3,6.3h0Z"/>
  <path class="st7" d="M278.1,270.9c2.4,3.1,6.5,3.8,9.8,5.2,2.3.9,3.9,2.6,5.5,4.4,4.8,1.3,8.8,4.3,12,7.9,3.2,3.7,6.9,7.8,8.7,12.4,1.2,3,3.2,5.3,5.2,7.7,3.3.8,6,2.2,9.4,2-2.8-8.5-7.3-15.8-11.9-23.4-4.4-5.7-9.8-10.5-15.9-14.2-3-1.6-7.1-2-9.9-4-4.3-3.3-9.7-5.7-15-6.8-1.2,1-1.1,6.5.9,6.5.2-1.1.4-2.3.6-3.4,0,1.8-.9,4.3.5,5.7h0Z"/>
  <path class="st4" d="M481,420.9c3.3-3.1,8.8-3.7,13-5,4.6-.5,8.7-2.3,11.8-5.8-4.1-2.1-8.3-1.9-12.8-2-6.5.2-12.8,1.8-18.1,5.5-4.1,3.2-5.8,9.4-5.1,14.4,1,3.7,3.1,7.6,6.1,10,3.1,2.4,6.3,2.2,9.9,2.6,1.2,0,2.4.3,3.6-.2,5.6-2.6,9.9-6.5,14.1-10.9,7.1-4.2,12.8-11.3,21.2-12.9,8.2-1.4,16.5.9,24.2,3.3,2.9-.3,6-2.9,8.7-4.1-4.7-2.8-9.1-6.4-14.6-7.4-5.5-.9-10.6-2.1-16.1-1.2-7.5.5-14.2,3.4-20.6,7.1-6.4,5-12.5,10.2-19.4,14.5-1.6.4-3.4.5-5.1.6-.7-1-1.4-1.9-2.2-2.9-.8.4-1.5.8-2.2,1.2,2.8-2,.8-4.9,3.5-6.8h0Z"/>
  <polygon class="st6" points="626.2 436.1 626.9 436.5 627.6 436 627.6 435.2 626.9 434.8 626.2 435.2 626.2 436.1"/>
  <path class="st5" d="M673.9,559c1.7-1.1,1.5-3.7,1.9-5.5,1-9.8.6-20.2-2.7-29.5-2.3-5.7-5-11.2-7.2-16.9-.6-1.9-2.7-2.5-4-4.1-4.2-5.5-7.7-11.2-13-15.9-3.1-2.3-4.6-5.6-8-7.5-1.2.7-2.4,1.5-3.6,2.2,2,4.1,4.9,7.7,7.1,11.8,6.7,8.6,13.1,17.3,18.1,26.9,5.4,11.6,6,24,4.9,36.6,2.2,1.2,3.8,3,6.5,1.9Z"/>
  <polygon class="st2" points="335.2 534.2 335.2 534.8 335.8 534.8 335.8 534.2 335.2 534.2"/>
  <polygon class="st11" points="308.4 542 308 541.2 307.2 541.3 306.8 542 307.2 542.8 308 542.7 308.4 542"/>
  <polygon class="st10" points="272.1 625.8 272 625.2 271.4 625.3 271.5 625.9 272.1 625.8"/>
  <path class="st9" d="M138.1,650.5c2.9.9,5.9,1.6,8.9,2.4,6.2,1.7,12.7,1.5,19,1.6,4.4.4,8.6-.3,13-.9,2.7-.4,4.4-2,6.3-3.6,0-.4.2-.8.3-1.2,1.4,1,2.2.2,2.9-1,.6-1.8.9-3.5,1.1-5.3-3.6.7-7,1.5-10.7,1.6-8.1,1.2-16,1.7-24.1.5-3.9-.7-7.7-.6-11.4-2-4.2-1.5-8.5-2.6-12.6-4.3-2.7-1.1-5.1-2.5-8.1-3.1-2.5-2.6-6.5-2.6-9.5-4.9.3,2.7,1.4,5.1,3.4,7,6.5,5.6,13.1,10.6,21.4,13.3h.1Z"/>
  <path class="st12" d="M596.4,560.7c-.6-5-1-10.1-1.4-15.2-2.7-2.1-5.4-5.8-8.7-6.6-9.6,2-12.7,11.2-22.4,9.9-6.5,0-13.6,4.6-20,3.5-9.7-3.2-15.3-11.3-22.6-17.7-4.7-4-8.9-8.4-13.2-12.9-8.2-8.5-18.1-15.5-26.1-24.2-5.8-6.2-5.3-16-6.7-23.9-1.3-10.4-6-19.6-7.1-30.1-2.6-19.5.3-44.1-5.9-63.5-3.2-10.2-11.5-16.2-21.1-19.7-9.2-3.1-18.6-6-28-8.5-7.8-1.6-15.2-8.5-18.5-15.6-1.7-7.3-1.4-15.2-2-22.7-.7-7.4,4.8-12.7,7.7-19.3,9-2.9,10.2-10.4,11.3-18.7-1.7-.5-3.4-1.1-5-1.6,1.6-10.9,2.5-21.9-3.2-32-5.7-10.2-17.2-18.1-28.8-19.7-11.4-1.7-22.1,5.7-28.5,14.6-6.9,10-5.8,23-6.1,34.5-1.7,1-3.4,2.2-5,3.3-.4,7.8.9,16.9,9.3,19.8,2.4,4.2,6.3,8.3,6,13.4-.2,8-.7,16.3-1.9,24.2-1.2,7.7-6.5,12.7-13,16.4-8.3,4.5-16.7,8.7-25.8,11.6-8,2.9-17.8,5.1-24,11.1-4.5,4.4-8.2,10.3-9.1,16.6-2.2,14.7-1.6,29.8-3.3,44.5-3.1,18-6.5,37.3-13.6,54.2-5,12.1-14.6,18-22.8,29.2-11.4,13-21.1,28.9-34.2,39.9-7.7,5.9-17.7.9-25.9-1.2-10.9-1.7-13.8-13.6-25.4-15.4-3.2-1.4-2.9,4.3-4,6.2-1.8-.2-3.6-.5-5.5-.7-1.1,7.5-1.4,15.5-.2,23,.8,4.6,5.2,8.1,8.3,11.3,2.9,2.7,5.6,6.1,9.1,8,6.9,1.1,14.5-1.9,21.4-2.5-4,4.5-9.2,8-10.7,14.1-1.9,7.9-1.9,16.8-.2,24.7,2.8,10.1,11,16.6,20.7,19.7,12.3,5.6,24.5,4.8,37.6,4.3,24.6-1.2,49.1-2.4,73.8-2.1,26.2-.6,52.3-.6,78.5-.9,26.2-1.8,51.8,1.2,78,1.9,15.6-.7,31-.5,46.4-2.6,13.9-2,29.7.8,42.3-5.4,8.2-3.7,18.3-7.8,23.6-15.4,4.3-6.5,6.7-15.2,5.5-22.9-2.4-8.3-9.1-14.9-14.6-21.3,7.9.5,16.3,2.7,23.7-.6,5-2.2,11.8-2.7,15.9-6.3,4.9-7.2,2.4-18.8-.4-26.4-3.1,4.8-3.2,10-4.3,15.4ZM159.2,567.3c-2.5-5.5-4.3-11-4.7-17,5,4.7,8.2,10.2,10.6,16.5-1.9.2-3.9.4-5.9.6ZM320.5,525c-5.7,8.8-7.9,18.2-10.8,28-1.3,4-2.7,8.2-7,9.7-6.9,2.3-14.2,3-20.9,6.1-5.5-.5-10-.7-15.1,1.9-16.3-1.7-32.4-.8-48.7-.6,12.9-10.5,27.3-18.7,39.9-29.6,7.2-6.3,14.6-12.7,20.9-19.9,5.1-5.9,6-12.6,10.1-19.6,5.4-8.8,7.4-19.8,10.4-29.9,4.1-14,4.6-28.3,6.8-42.6l.3,1.2c2.2,9,.4,16.7,5,25,3.2,6.9,9.4,12.9,11.1,20.2,2.9,13.3,2.3,25.9,2.7,39.3.4,4.1-2.8,7.5-4.7,10.9ZM498.9,560.8c-12.7,0-25.9,5.5-38.2,8.5,0-3-.1-5.9-.6-8.7-2.9-4.3-7.1-5.2-11.7-6.9-1.8-3.2-3.5-6.3-6.1-8.9-5.2-5-7.7-11.9-12.3-17.6-3.6-4.6-6.5-8.7-5.9-15,1-18.2-.9-38.9,6.1-55.8,2.6-7.5,2.9-14.8,4.1-22.5,2.6,10.5,1.9,21.2,3.9,31.8,2.5,15,7.8,28.1,11.4,43.1.9,4,2.1,7.5,5.1,10.4,8.8,8.8,18.5,16.7,29.7,22.4,11,5.6,21.5,11.9,31.4,19.1-5.6,0-11.3,0-16.9.1ZM579.4,566.1c.5-2.6,1-5.3,1.6-7.9-.8-1.1-1.6-2.1-2.4-3.2,2.6-3.2,5.3-6.3,8-9.4-.6,8.7-2,13.4-7.2,20.4Z"/>
</svg>