<?xml version="1.0" encoding="UTF-8"?>
<svg id="Layer_1" xmlns="http://www.w3.org/2000/svg" xmlns:xlink="http://www.w3.org/1999/xlink" version="1.1" viewBox="0 0 750 750">
  <!-- Generator: Adobe Illustrator 29.5.1, SVG Export Plug-In . SVG Version: 2.1.0 Build 141)  -->
  <defs>
    <style>
      .st0 {
        fill: url(#linear-gradient2);
      }

      .st1 {
        fill: url(#linear-gradient1);
      }

      .st2 {
        fill: url(#linear-gradient9);
      }

      .st3 {
        fill: url(#linear-gradient3);
      }

      .st4 {
        fill: url(#linear-gradient6);
      }

      .st5 {
        fill: url(#linear-gradient8);
      }

      .st6 {
        fill: url(#linear-gradient7);
      }

      .st7 {
        fill: url(#linear-gradient5);
      }

      .st8 {
        fill: url(#linear-gradient4);
      }

      .st9 {
        fill: url(#linear-gradient18);
      }

      .st10 {
        fill: url(#linear-gradient13);
      }

      .st11 {
        fill: url(#linear-gradient12);
      }

      .st12 {
        fill: url(#linear-gradient15);
      }

      .st13 {
        fill: url(#linear-gradient16);
      }

      .st14 {
        fill: url(#linear-gradient11);
      }

      .st15 {
        fill: url(#linear-gradient10);
      }

      .st16 {
        fill: url(#linear-gradient17);
      }

      .st17 {
        fill: url(#linear-gradient14);
      }

      .st18 {
        fill: url(#linear-gradient19);
      }

      .st19 {
        fill: url(#linear-gradient23);
      }

      .st20 {
        fill: url(#linear-gradient22);
      }

      .st21 {
        fill: url(#linear-gradient24);
      }

      .st22 {
        fill: url(#linear-gradient25);
      }

      .st23 {
        fill: url(#linear-gradient21);
      }

      .st24 {
        fill: url(#linear-gradient20);
      }

      .st25 {
        fill: url(#radial-gradient);
      }

      .st26 {
        fill: url(#linear-gradient);
      }

      .st27 {
        fill: #fff;
      }
    </style>
    <linearGradient id="linear-gradient" x1="182.8" y1="375.8" x2="722.1" y2="601.2" gradientTransform="translate(0 -40)" gradientUnits="userSpaceOnUse">
      <stop offset="0" stop-color="#009581"/>
      <stop offset=".8" stop-color="#292873"/>
      <stop offset=".8" stop-color="#252341"/>
      <stop offset=".9" stop-color="#27223f"/>
      <stop offset=".9" stop-color="#30213b"/>
      <stop offset=".9" stop-color="#401e33"/>
      <stop offset="1" stop-color="#551a29"/>
      <stop offset="1" stop-color="#71161b"/>
      <stop offset="1" stop-color="#7e1416"/>
    </linearGradient>
    <linearGradient id="linear-gradient1" x1="273.1" y1="152.7" x2="850.2" y2="393.9" xlink:href="#linear-gradient"/>
    <linearGradient id="linear-gradient2" x1="253.7" y1="199.3" x2="960.5" y2="494.8" xlink:href="#linear-gradient"/>
    <linearGradient id="linear-gradient3" x1="230" y1="250.5" x2="843.9" y2="507.1" xlink:href="#linear-gradient"/>
    <linearGradient id="linear-gradient4" x1="143.6" y1="169.3" x2="1007.4" y2="530.3" xlink:href="#linear-gradient"/>
    <linearGradient id="linear-gradient5" x1="195.2" y1="279" x2="932.8" y2="587.3" xlink:href="#linear-gradient"/>
    <linearGradient id="linear-gradient6" x1="92.5" y1="282.6" x2="830.6" y2="591.2" xlink:href="#linear-gradient"/>
    <linearGradient id="linear-gradient7" x1="-5691.7" y1="-2169.7" x2="2696.5" y2="1336.7" xlink:href="#linear-gradient"/>
    <linearGradient id="linear-gradient8" x1="22.7" y1="286.1" x2="749.9" y2="590.1" xlink:href="#linear-gradient"/>
    <linearGradient id="linear-gradient9" x1="-6669.1" y1="-2370.4" x2="12354.7" y2="5581.8" xlink:href="#linear-gradient"/>
    <linearGradient id="linear-gradient10" x1="-2487.8" y1="-604.5" x2="5991.8" y2="2940.1" xlink:href="#linear-gradient"/>
    <linearGradient id="linear-gradient11" x1="-5897.2" y1="-1936.9" x2="12874.9" y2="5910.2" xlink:href="#linear-gradient"/>
    <linearGradient id="linear-gradient12" x1="49.4" y1="608.1" x2="792" y2="918.5" xlink:href="#linear-gradient"/>
    <linearGradient id="linear-gradient13" x1="190.1" y1="378.8" x2="713" y2="597.4" xlink:href="#linear-gradient"/>
    <linearGradient id="linear-gradient14" x1="286.1" y1="149.3" x2="809" y2="367.9" xlink:href="#linear-gradient"/>
    <linearGradient id="linear-gradient15" x1="268.5" y1="191.4" x2="791.4" y2="409.9" xlink:href="#linear-gradient"/>
    <linearGradient id="linear-gradient16" x1="238.3" y1="263.5" x2="761.2" y2="482.1" xlink:href="#linear-gradient"/>
    <linearGradient id="linear-gradient17" x1="257.6" y1="217.5" x2="780.4" y2="436" xlink:href="#linear-gradient"/>
    <linearGradient id="linear-gradient18" x1="226.5" y1="291.8" x2="749.4" y2="510.4" xlink:href="#linear-gradient"/>
    <linearGradient id="linear-gradient19" x1="209.8" y1="331.7" x2="732.7" y2="550.2" xlink:href="#linear-gradient"/>
    <linearGradient id="linear-gradient20" x1="222.1" y1="302.3" x2="745" y2="520.9" xlink:href="#linear-gradient"/>
    <linearGradient id="linear-gradient21" x1="198.1" y1="359.7" x2="721" y2="578.3" xlink:href="#linear-gradient"/>
    <linearGradient id="linear-gradient22" x1="148.1" y1="479.3" x2="671" y2="697.8" xlink:href="#linear-gradient"/>
    <linearGradient id="linear-gradient23" x1="141.7" y1="494.6" x2="664.5" y2="713.2" xlink:href="#linear-gradient"/>
    <linearGradient id="linear-gradient24" x1="108.6" y1="573.7" x2="631.5" y2="792.2" xlink:href="#linear-gradient"/>
    <linearGradient id="linear-gradient25" x1="86.4" y1="626.7" x2="609.3" y2="845.3" xlink:href="#linear-gradient"/>
    <radialGradient id="radial-gradient" cx="373.1" cy="572.7" fx="373.1" fy="572.7" r="443.3" gradientTransform="translate(0 752) scale(1 -1)" gradientUnits="userSpaceOnUse">
      <stop offset=".2" stop-color="#5d2aff"/>
      <stop offset="1" stop-color="#5710b2"/>
    </radialGradient>
  </defs>
  <g>
    <path class="st26" d="M186.9,700.9c-.7,0-1.4,0-2.1,0-.3,0-.5,0-.8,0-10.1,0-20.3-1.4-30.5-4-8.8-1.7-16.9-5.2-24.8-8.5l-1.6-.7c-3.9-1.6-7.3-3.5-10.6-5.4-.7-.4-1.4-.8-2.2-1.2h-.2c0,0-.2-.2-.2-.2-9.6-5.8-19.7-12.4-28.9-21.1l-.2-.2c-4-4-8.3-8.4-12.3-13h0c-18-21.2-30.4-48.4-35.8-78.7v-.3s0-.3,0-.3c-3.1-24.4-1.5-47.1,4.7-67.4,5.7-18.3,12.3-32.2,20.7-43.9l.4-.6c2.8-4.3,5.6-8.7,9.6-12.8,11.5-13.9,26.2-26.2,42.4-35.6h.1c12-6.8,25.6-12,41.7-16h.3c2.5-.6,4.9-1,7.2-1.3,1.7-.2,3.3-.5,4.8-.8,2.5-.5,4.7-.7,6.7-.8,1.5,0,2.9-.2,4-.4h.5c0-.1.5-.2.5-.2,3.7-.4,7.7-.6,11.8-.6,7.8,0,16,.7,26.1,2.1h.3s.3,0,.3,0c11.9,2.4,23.7,5,35.5,9.6h.2c4.8,1.6,7.8,4.4,8.9,8.4l1,3.5-1.5,3.3c-1.9,4-3.6,8-5.4,12.3-1,2.2-1.9,4.4-2.9,6.6l-3.4,7.6c.4,1.1.8,2.1,1.1,3.1l.5,1.3v.8c2.1,11.2-3.1,22.1-12.8,27.2-3.5,1.9-7.6,2.9-11.8,2.9s-.8,0-1.2,0c.1.3.2.6.3.8l.3.7.2.7c1.7,7.2.5,14.6-3.6,22v.2c-.1,0-.3.3-.4.4,8.4-5.3,16.9-10.7,25.2-16.5.3-.2.7-.5,1-.7.4-.3,1-.7,1.4-1,.8-1.6,1.5-3.4,2.3-5.4.6-1.4,1.1-2.9,1.8-4.4v-.2c.1,0,.2-.2.2-.2,1.9-3.8,3.4-8,5-12.5l.7-1.9v-.2c3.6-8.5,6.8-17.4,9.8-26l1.5-4.4c1.5-4.6,3.2-9.2,4.7-13.6,2.3-6.5,4.7-13.2,6.7-19.8.6-2,1.3-3.8,1.9-5.3.8-2,1.4-3.7,1.6-5.1v-.4c.3-1.5.1-3.4-2.4-7.6v-.2c-.1,0-.2-.2-.2-.2-5.2-9.3-11.3-18.7-17.2-27.8-1.7-2.5-3.3-5.1-4.9-7.6-11-16.4-21.1-34.1-30.1-52.6-3.1-6.4-6-13.3-8.9-21.8-9.3-26.1-12.3-55.1-8.8-83.6v-.2s0-.2,0-.2c1.4-8.7,3.5-20.1,7.7-31.2v-.2c0,0,.2-.2.2-.2.8-1.8,1.5-3.7,2.3-5.7,1.6-4.3,3.3-8.7,5.8-13.1,7.6-13.9,15.1-24.7,23.8-34.1h.1c10.5-11.2,22.4-20.7,35.4-28.5,5.4-3.6,11.4-6.1,16.7-8.4.8-.3,2.6-1.1,2.6-1.1h.2c13.8-5.2,25.4-8,36.4-8.9,5.2-.6,10.8-.8,17.5-.8s7.3,0,10.9.1h.3s.3,0,.3,0c5.9.4,11.5,1.5,17,2.5,2.6.5,5,.9,7.4,1.3h.5c0,0,.5.2.5.2,35.3,9.3,64.8,29.3,82.8,56.3v.2c.1,0,.2.2.2.2,1,1.7,2.1,3.4,3.2,5.1,1.5,2.3,3,4.7,4.4,7.2v.2c.1,0,.3.3.3.3,4.5,8.6,9.4,18.9,12.4,29.9,3.7,12.2,5.8,25.4,6.3,40.3v.3c0,13.3-1.6,27-5.4,42.9v.2c-1.3,4.8-3,9.2-4.6,13.4-.7,1.9-1.4,3.7-2.1,5.5v.2c0,0-.1.2-.1.2-6.2,15.1-15.4,30.6-27.6,45.9-4.7,6.5-9.9,12.4-14.9,18l-5.8,6.5-.7-.3-2.8,4-7.4-3.2c-4.3-1.9-6.8-5-8.5-7-.3-.4-.6-.8-.9-1.2l-.2-.2-.2-.2c-.5-.7-1.1-1.3-1.6-2-2.1-2.5-4.7-5.6-6.3-9.5l-1.7-4.2,2-4.1c2.2-4.5,5.5-8,8.4-11.1,1.1-1.1,2.1-2.2,3-3.2,16.9-20.4,27.8-40.7,32.3-60.5l.4-2.3c.9-4.8,1.9-9.7,2.5-14.5.4-10.6.3-19.5-1-28.3-2.2-9.8-4-17.3-7.6-24.7-2.2-4.4-4.8-9.6-8-14.1l-.2-.3-.2-.3c-5.6-9.1-13.3-16.7-20.9-24-11.9-9.5-31-21.1-54.6-22.8h-.2s-.2,0-.2,0c-4.5-.5-8.8-.8-12.9-.8-7.8,0-15.1,1-21.6,2.9h-.3c0,.1-.3.2-.3.2-6.7,1.5-13.8,4.2-22.3,8.5h-.3c0,.1-.3.2-.3.2-4.9,2.1-9.7,5.3-14.8,8.7-.8.6-1.7,1.1-2.5,1.7-8.6,6.5-16.1,15-22.3,22.5-6.5,8.7-11.2,17.3-14.1,25.6v.4c-.1,0-.3.3-.3.3-6.6,15-9.4,32.3-8.2,50.1v.3s0,.3,0,.3c0,5,.9,10.1,1.8,15.5.3,1.8.6,3.6.9,5.3,3.1,14.5,8.9,29.8,17.2,45.7v.2c4.4,8.8,10.2,17.5,15.7,26,1.5,2.3,3,4.6,4.5,6.9,7.3,10.2,14.6,21,21,32.4,3-2,6-3.2,8.8-4.3,2.3-.9,4.3-1.7,5.5-2.7h0c.9-.8,1.6-1.6,1.9-2.1-1.3-2-4.1-4.1-6.1-5.6l-.4-.3-.4-.4c-.5-.5-1.5-.8-3.6-1.5-1.6-.5-3.6-1.1-5.7-2.1h-.2c-.9-.5-2.2-.9-3.7-1.3-1.9-.5-4.1-1.1-6.4-2.1l-4.6-2.1-1.1-5c-.1-.5-.3-1.1-.5-1.8-.9-3-2.4-8,.1-14l2.8-6.7,7.2.6c4.3.4,7.9,1.2,11.9,2.9,3,1.1,6,2.2,8.9,3.5-1.2-1.6-2.3-3.3-3.5-5.1-1.9-3-4-5.9-6.2-8.9-3.1-4.3-6.3-8.7-9.1-13.6-6.5-10.1-11.3-19.3-14.6-28-10.1-22.2-12.1-46.9-5.6-69.7,2.9-9.9,8.7-19,13.5-25.8l.2-.2c5.8-7.9,13.2-14.9,22.5-21.6h.2c0-.1.2-.3.2-.3,9.1-5.9,18.5-8.5,28.9-11.1l.9-.2h.9c2.7-.2,5.9-.3,9.1-.3,8.1,0,14.7.9,20.8,2.9h.2c7.1,2.6,14.1,5.2,20.5,10.2,6,3.9,11.5,8.9,16.8,15.2l.2.2c9.1,11.5,14.7,23,16.9,35.2,2.8,13.2,2.2,26.5-1.6,38.4v.2c-2.5,6.9-5.5,14.1-10.5,20.5.5,3.3,1.1,8-1.1,13.4-3.8,11.2-14.1,15.3-17.6,16.6h-.4c0,.1-.4.3-.4.3-2.3.7-4.8,1.1-7.2,1.1-7.6,0-14.8-3.3-19.9-8.4,0,2.4,0,4.7,0,7,0,.6,0,1.2,0,1.8,0,.8,0,1.8,0,2.2h0c0,.1.2.4.2.4,13.7,20.4,29.1,40,41,54.7,1,1.2,2,2.5,3,3.7,2.3,3,4.6,5.8,7,8.1l.4.4.4.5c6,7.3,12.9,14,19.5,20.2.6.5,1,.9,1.3,1,4.4-.3,8.7-.9,13.2-1.4,4.5-.5,9.2-1.1,13.9-1.5,1.1-.1,2.2-.3,3.3-.4,4.5-.5,9.1-1.1,14-1.1s1,0,1.5,0c6.7-.3,13-.5,19.1-.5,20.9,0,39.1,1.8,55.6,5.5,28.6,5.7,55.4,17.3,77.4,33.5,3.8,2.6,7.2,5.5,10.5,8.4l.3-.8,10.7,10.7c21,20.9,36.3,47.7,44.3,77.6v.3c2.8,11.5,5.8,26.7,5.2,42.2v.3c-.1,1.8-.3,3.5-.4,5.1-.3,2.6-.5,5.1-.5,7.5v.7s-.4,2.9-.5,3.9c-.8,5.7-1.6,11.7-3.1,17.7-6.2,26.7-19.9,51.6-39.5,72.2h-.1c0,.1-.1.3-.1.3-10.8,10.4-19.6,17.4-28.8,22.6-16.6,10.1-35.3,16.7-55.7,19.6-6.1,1.2-12,1.3-17.7,1.4-1.7,0-3.5,0-5.2.1h-.3s-.3,0-.3,0c-23.3-.7-46.4-7.3-66.7-18.9-10.7-6.3-19.8-12.7-27.9-19.7-6.1-5-11-10.5-15.8-15.8l-1.7-1.9v-.2c-15.1-17.9-24.9-34.2-29.9-49.8l-3.1-9.5,9.5-3.1c3-1,5.9-2,8.9-3,1.6-.5,3.1-1.1,4.7-1.6-2.8-2.5-5.1-5.8-6.7-9.5-3.4-8-2.9-17,1.1-24,2.8-5.3,7.5-9.4,13-11.6-.3,0-.7.1-1,.2-11.9,2.6-23.9,4.6-35.5,6.5-6.9,1.2-14.1,2.4-21,3.6h-.3c0,0-2.9.5-2.9.5-4.1.6-8,1.2-11.8,1.9-2.4,3.2-4.3,6.8-6.5,10.9l-1.3,2.4-.2.3c-4.6,7.3-9.2,14.8-13.7,22.1-7.8,12.6-15.8,25.6-24.1,38.2l-.2.2-.2.2c-5,6.8-10.1,13.7-15.1,20.6v.2c-4.4,5.8-9.1,11-13.6,16.1l-2.3,2.6h-.1c-5.4,5.8-11.1,11-16.7,16-1,.9-3.4,3.1-3.4,3.1l-.3.2c-7.8,6.1-15.9,12.4-25.4,17.4-19.3,10.7-39.9,17.6-59.7,19.9h-.3s-.3,0-.3,0c-1.9.1-3.8.3-5.8.5-3.4.4-6.9.7-10.6.7ZM631.3,626.3c-11.1,7.7-24.9,13-40.9,15.7,15.1-1.4,30.8-7.2,45.5-16.9,1.2-.9,2.4-1.8,3.6-2.7-.8-.2-1.6-.4-2.2-.6-2.1,1.8-4.1,3.2-6,4.4ZM152.6,624c9.3,4.4,17.1,6.5,23.8,6.5s2.1,0,3.1-.2c3.1-.8,6.9-1.8,10.2-3.3,2-.9,3.9-2.3,6-3.9-4.5.7-9.1,1.1-13.7,1.1-13.7,0-27-3.3-38.6-9.6h-.2c0-.1-.2-.2-.2-.2-7.7-4.6-14.7-10.5-20.7-17.5,4.6,6.5,10.6,12.5,16.7,18.2,2.6,2.1,5.8,4,9.1,5.9,1.5.9,3.1,1.8,4.6,2.8ZM551.9,610.9c7.9,2.3,16,3.5,23.5,3.5s12.1-.8,17.5-2.4h.2c0,0,.2-.1.2-.1,9.2-2.3,16.9-5.6,22.8-9.8l.2-.2c.7-.4,1.4-1,2.3-1.7.6-.5,1.3-1,1.9-1.5.3-.7.6-1.3,1-1.9-13.2,9.8-29.4,15.2-45.7,15.2s-14.8-1.2-21.7-3.5h-.2c-1.1-.5-2.3-.9-3.5-1.4,0,0,1.5,3.7,1.5,3.7ZM530.2,597.6c2.3,1,4.4,2.2,6.5,3.2.2.1.5.2.7.4-3.7-2-7.2-4.4-10.6-7.3-3.6-3-6.5-6.2-9.3-9.2l-1.5-1.6c-2.9-3.3-5.1-6.6-7-9.9-4.1-1.5-7.4-3.8-10.1-5.7l-.3-.2-.3-.2c-3.7-3-6.4-7-7.9-11.5-.5.7-1,1.5-1.5,2.3,5.4,12.6,15.9,25.3,29.9,36.3,1.1.8,2.2,1.6,3.4,2.4l1.8-1.8,6.3,2.9ZM182,509.9c-13.1,2.6-24.3,9-30.7,17.6v.2c-.1,0-.3.2-.3.2-5.2,6.3-7.6,14.8-6.5,22.8v.3c1.5,13.6,12.3,26.2,26.3,30.4h.2c3.7,1.3,7.6,1.9,11.7,1.9s9.6-.8,14.5-2.4c2.2-.9,4.5-2.1,6.8-3.3l1.4-.7c10-5.7,17.3-14.2,24.9-23.3,9.6-11.9,17.9-25.6,25.5-39.2-3.3,2.3-6.8,4.6-10.3,6.9-8.1,5.5-16.4,10.6-24.5,15.6-4.4,2.7-9,5.5-13.5,8.3,0,1.9,0,4.2-.6,6.8v.2c-1.2,3.8-3,10.1-8.2,14.4-3.3,2.8-8.8,7.4-16.7,7.4s-11.9-.5-17.3-4.3c-7.4-4.7-12.6-13-13.5-22v-.3c-.7-9.5,3.2-19.2,9.8-24.7,4.9-4.3,11.5-6.7,18.5-6.7s10,1.3,14.1,3.7c3.1-2,6.2-4,9.3-6h-.5c0,0-.6,0-.6,0-6.3-.1-11.1-2.3-15.3-4.5-1.6.3-3.2.6-4.5.8ZM647,506.3c.6,1.6,1.1,3.1,1.5,4.8h0c4.9,17.9,4,37.1-2.6,54.1v.2c0,0-.1.2-.1.2-2.3,5.3-5.2,10.4-8.5,15.1.5-.4,1-.7,1.5-1,.5-.3,1.1-.7,1.3-.9.5-.6,1.1-1.1,1.6-1.7,1.7-1.8,3.1-3.3,4.1-4.8v-.2c3.6-5.6,7.5-12.1,9.3-18.8v-.4c.1,0,.2-.4.2-.4,3.7-10.3,5.3-18.4,5-25.5,0-1.6,0-3.2,0-4.8,0-2.8,0-5.4-.4-7.3v-.3c0,0-.1-.3-.1-.3-.6-3-1.1-5.7-1.8-8.1h-10.8ZM542.7,552.6c8,10.9,21.2,17.7,34.5,17.7s4.6-.2,6.8-.6c4.8-1.6,9.4-3.2,12.5-5.7h.2c0-.1.2-.3.2-.3,7.2-5.2,12.3-13.5,14-22.8,1.5-9.1,0-18.8-4.2-27.9-4.6-9.1-12.2-16.9-22.5-23-6-3.6-13-6-21.9-7.7h-.5c0,0-.5-.2-.5-.2-6.1-1.8-12.3-1.9-19.6-2.1h-2.3c-1.7,0-3.3,0-5,0-4.7,0-9.2,0-13.5.6h-.5c0,0-.5,0-.5,0-4.6.1-9.3.5-14.5,1.1,14.9,7,31.2,15,51,24.9,1.3.6,2.5,1.3,3.6,1.9,3.5-2.2,7.1-3.1,8.7-3.6h.1c1.7-.5,3.5-.7,5.3-.7,5.7,0,11.4,2.2,17.3,6.7l.3.3.3.3c6.6,6,10.1,14.6,9.3,23.1-.6,10.2-7.2,19.3-17.2,23.9l-.4.2-.4.2c-2.8,1-5.8,1.5-8.7,1.5-9.8,0-18.9-5.4-23.9-14.2-2.5-4.1-3.4-8.1-3.7-11.8-3-1.3-5.9-2.8-8.7-4.3,1.6,2.4,2.8,5,3.6,7.9v.3c1.4,5.1.8,9.4,0,13,.3.4.7.9,1,1.4ZM78.9,526.7c-.9,7.9-1.2,15.2-.9,22.2,0-.8,0-1.6,0-2.5-.4-10.1.7-20.2,3.3-30.8v-.3c0,0,.1-.3.1-.3,3.8-12.7,8.5-25.8,16.6-36.5,6.4-9.8,14.6-18.9,23.9-26.4,0-.1.2-.3.3-.4h0c-4.1,2.9-7.4,6.3-11.3,10.3-1.5,1.5-3,3-4.6,4.6-8.1,9.3-14.1,18.5-17.7,27.3l-.2.4-.2.4c-4.8,9.3-7.2,20.9-9.3,32ZM477.6,516.2c6.1,2,11.2,6.5,14.2,12.7.4.8.7,1.6,1,2.4,2.5-4.5,6.2-8.3,10.6-10.7l.3-.2c3-1.6,6.3-2.4,9.9-2.5-2-.9-4-1.9-6.1-3.1-1.5-.7-3-1.4-4.7-2.2-2.5-1.1-5.1-2.3-7.7-3.7-1.9.4-3.7.8-5.5,1.1-2.9.5-5.6,1.1-8.2,1.8h-.3c0,0-.3.2-.3.2-2.5.5-4.9,1-7.4,1.5-1.6.3-3.1.7-4.7,1,3.1,0,6.1.6,8.9,1.7ZM114.6,507c-.7,1.6-1.4,3.2-2,4.9,9.8-17.9,26.6-32.2,46.7-38.9,6.3-2.4,11.9-3.7,18.6-4.1.7-.2,1.4-.3,2-.4,3.3-4.3,7.5-7.5,12.4-9.4l.5-.2h.5c1.5-.5,3.1-.8,4.7-1-1.6,0-3.2-.1-4.8-.1-4.2,0-8.7.3-13.7.9-5.5,1-10.5,2.3-14.9,3.9-2.1,2.4-4.5,3.7-6,4.5-.3.1-.6.3-.8.4l-.3.2-.3.2c-3,1.6-5.9,3.7-9,6-.7.5-1.4,1.1-2.2,1.6-2.2,1.6-4.8,2.5-7.4,2.5s-.2,0-.3,0c-.8.7-1.6,1.3-2.4,1.9-.9.7-1.7,1.3-2.4,1.9l-.2.2c-2.2,1.8-4.1,4-6.3,6.6-.9,1.1-1.9,2.2-2.9,3.4-3.2,3.8-5.8,8.4-8.5,13.4-.3.6-.6,1.2-1,1.8ZM629.4,476.1c4.3,5,8.2,10.5,11.6,16.5l.2.3.2.3c.3.7.7,1.4,1,2.1l-.3-1.3c-.8-3.3-.5-6.2-.3-8.3,0-.6.2-1.5.1-1.8v-.2s-.2-1.5-.2-1.7h0c-1.8-.8-3.3-1.7-4.8-2.5-2.1-1.2-3.9-2.2-5.7-2.7,0,0-1.3-.5-1.8-.6ZM153.9,435.4c8.1-3.4,16.5-4.7,23-5.8,5.1-.8,10.4-1.3,15.8-1.3s12.6.5,19.5,1.6c0,0,.2,0,.3,0,.3-.3.7-.5,1.1-.8-5-.9-10.1-1.5-15.5-1.9-1,0-1.9,0-2.9,0-1.9,0-3.9,0-5.9,0-3.6,0-8.3.1-12.6.9h-.3c0,0-.3,0-.3,0-8.5,1.1-16.5,3.7-23.2,6.2l1.1.9ZM469.1,414.3c0,1.6.6,3.9,1.1,5.9.2.8.4,1.5.5,2.2h0c.4,2,1.7,3.4,2.3,3.5h.3s.3.1.3.1c1,.2,2.1.3,3.3.3,2.3,0,4.7-.4,7.5-.8,1-.2,2.1-.3,3.1-.5,4.5-1,9.1-2.1,13.7-3.4-.1-.3-2.2-5.4-2.2-5.4l2.5-4.3c.2-.3.4-.7.6-1.2.2-.5.5-1,.8-1.5l1.4-2.6,2.6-1.4c1-.5,2.1-1.2,3.2-1.9l5.1-3.2,5.2,3.1c3.7,2.2,6.7,4.2,9.4,6.3,2.2-1.4,4.4-2.5,6.5-3.5,1.9-.9,3.7-1.8,5.1-2.7,2.5-1.9,5.1-3,7.4-3.7-3.4-.3-6.9-.6-10.4-.8h-.3c-1.8-.2-3.8-.2-6.1-.2s-4.3,0-6.6.1c-2.2,0-4.5.1-6.9.1-2.6.1-5.2.2-7.7.3-4.6.1-8.9.3-13.2.7h-.2s-.2,0-.2,0c-2.1.1-4.2.4-6.5.7-2.4.3-4.9.6-7.5.7-4.2.4-8.4,1-12.4,1.6,0,0,0,0-.1,0v1.6c.2,3.9-.8,7.2-1.7,9.8ZM333.8,225.5c6.3,13.3,13.6,25.4,21.4,37.4,0-.4,0-.8,0-1.2,0-2.9,0-5.6-.3-8.2v-.3s0-.3,0-.3c-.1-4.2-.1-8.5-.1-12.6,0-6.4,0-12.6-.4-18.7-1.8-1-3.9-2.3-6-4.1-3.5-2.9-5.5-6.4-6.9-9.2v-.2c-.1,0-.2-.2-.2-.2-3-6.9-3.1-15-.2-22.2,2.8-6.8,7.8-12.1,14.3-14.9,3.6-1.8,7.5-2.7,11.5-2.7,8.4,0,16.7,4.1,22.2,10.8l.2.3.2.3c4.7,6.8,6.8,13.5,6,19.9v.3s-.1.3-.1.3c-2,10.4-6.8,16.5-11.7,20,0,1,0,2,0,3,1.8-1.9,4-3.6,6.3-5,3.1-2.1,6.2-2.9,8.5-3.5,2.4-4.8,4-9.6,5-14.4.7-7.8-.3-14.8-3.1-20.9-1.8-3.7-3.8-7.4-6.2-9.9-.5-.5-1-1-1.5-1.5-3-2.8-5.3-5-8.1-6.2h-.2c-5.9-2.7-11.6-4-16.5-4s-3.3.2-4.8.5h-.5c0,.1-.5.2-.5.2-5.1.6-10.5,2.6-16,6-3.5,2.3-6.6,6.1-9.8,10.1-3.8,4.9-6,12.4-7.5,18.4-1.8,10.2-.1,21.1,5,32.6Z"/>
    <path class="st27" d="M363.6,59.1c3.6,0,7.1,0,10.7.1,7.9.6,15.8,2.4,23.6,3.7,30.4,8,59.4,25.7,77.1,52.2,2.4,4.1,5.1,8.1,7.5,12.2,4.6,8.9,9,18.4,11.7,28.1,3.8,12.3,5.5,25.1,5.9,37.9,0,13.8-2,27.1-5.2,40.5-1.6,6.2-4.2,12-6.4,18-6.4,15.7-15.7,30.3-26.3,43.6-4.7,6.6-10.2,12.6-15.5,18.7-.5-.2-.8-.5-1.3-.7-.9,1.3-2,2.5-2.9,3.9-2.6-1.1-4-3.4-5.8-5.6-2.3-2.9-5.2-5.8-6.6-9.2,2.3-4.6,6.8-8.4,10.1-12.3,15.5-18.7,28.9-40.8,34.4-64.8,1.1-5.9,2.4-12,3.1-18,.4-10.4.5-20.6-1.1-30.9-2.1-9.4-4.1-18.5-8.4-27.2-2.6-5.4-5.4-10.6-8.9-15.5-6.2-10.2-14.3-18.1-22.8-26.3-17.2-13.8-38.2-23.6-60.5-25.2-4.7-.5-9.4-.9-14.1-.9-8.3,0-16.5,1-24.4,3.3-8.6,1.9-16.9,5.4-24.7,9.3-6.7,2.9-12.9,7.3-19,11.4-9.1,6.9-17.1,15.6-24.4,24.5-6.5,8.7-12.2,18.3-15.7,28.5-7.4,17.1-10.3,36.3-9,54.7,0,7.6,1.7,15,2.8,22.5,3.6,16.9,10.2,33.3,18.2,48.5,5.8,11.8,13.7,23,20.7,34,14.9,20.7,28.5,42.1,35.3,67,2.4,7.2,3.2,14.5,4.1,22-.3,15.7-4.2,30.5-9.4,45.3-1.6,5.7-4.3,11-5.9,16.7,5.7,2.5,11.7,4.7,17.5,7.2,9.1,3.1,18.1,6.5,26.7,11,2.4-1.2,4.1-3.5,6.2-5.2,7.6-6,15.8-11.3,23.6-16.9.6-4-.3-8-.5-12-.5-3.4-.3-7-1.3-10.3-.7-2.2-3.1-4-2.9-6.3-2.1.4-4.2.5-6.3.8-3.5-.2-7.1-2.8-10.2-4.3-4.1-2.2-8.4-4-12.1-6.6-2.3-1.7-4.8-2.8-7.1-4.4-1.3-1.3-.8-2.5-.6-4.1-2.3,4.3-2.3,8.9-3.1,13.6-1.6,9-4.4,17.7-6.2,26.7,5.1,2.9,11.6,5.3,17.4,6.1,4.1-1.3,5.4-5.5,5.9-9.2-.3-3.4-3-4.4-5.8-5-2.2.5-4.2,1.4-6.3,1.9.6-3.8,1-8.1,2.8-11.5.7-.2,1.4-.2,2.1-.2,3.2,0,6.6,1.4,9.4,3,2,1.1,3.4,3,4.4,5,2.4,5.5,2.4,12.3-1,17.4-2.1,3.2-4.6,6.1-8.6,6.8-1.3.3-2.6.4-3.9.4-3.6,0-7-1-10.4-2.5-5.4-2.3-12.2-4.2-16.4-8.4,1.6-3.4,2.5-6.9,3.6-10.5,2.9-11.2,5.2-22.5,6.8-34,.4-4.1,1-8.2.8-12.2-.6-8.8-1.9-17.8-4.5-26.2-2-5.1-3.6-10.3-5.4-15.4-1.1-3.5-3.2-6.5-4.5-10,4.7-3.6,11-4.2,15.7-8.1,3.3-2.6,7.1-7.4,5.7-12-1.7-5-6.1-8.5-10.2-11.5-3.5-3.2-7.5-3.3-11.9-5.3-3.3-1.6-7-2-10.4-3.5-.8-3.5-2.4-6.2-.9-9.8,3.4.3,6,.9,9.1,2.3,7.6,2.6,15,6,22,10.2,6.6,4.3,11.2,11.4,11.2,19.4.3,8-5.7,15.5-12.6,18.7-1.9.8-4.1,2.6-6.2,2.6s-.7,0-1-.2c.5.3.8.7,1.2,1,0,3.3,2.7,6.7,4,9.7,6.3-3,11.3-7.2,17-11.1,4-2.5,7.6-5.7,11.6-8.3,2.8-2.1,5.7-4.5,7.5-7.5-5.9-7.2-11.2-14.9-16.8-22.3-3.4-4.4-6.7-8.9-9.8-13.7-3.3-5.1-7.3-9.7-10.6-14.9-4.9-7.6-10.7-14.6-15.3-22.4-5.4-8.4-10.4-17.3-13.9-26.7-9-19.7-11.1-42.3-5.2-63.1,2.4-8.1,7.3-15.9,12.1-22.8,5.7-7.6,12.6-13.9,20.3-19.4,8-5.2,16.8-7.5,25.9-9.8,2.9-.2,5.7-.3,8.6-.3,6,0,11.9.5,17.7,2.4,6.4,2.3,12.6,4.6,18.1,8.9,5.7,3.7,10.6,8.3,14.9,13.5,7.3,9.1,12.8,19.3,14.9,30.9,2.4,11,2.2,22.6-1.3,33.4-2.6,7.5-5.7,14.8-11.5,20.5.2,4.6,2.1,8.4,0,13.1-1.8,5.7-6.6,8.8-11.9,10.8-1.4.4-2.9.6-4.3.6-8.7,0-17.4-7.3-17.8-16.2-.7-6.7,3.1-13.3,9-16.5,3.2-2.3,6.8-2.3,10.2-3.9,3.8-6.7,6.5-13.6,7.9-21.1.9-9.1,0-18.3-4.1-26.7-2.2-4.3-4.7-9-8.1-12.6-4.1-3.8-7.6-7.6-12.8-9.8-6.3-2.7-13.4-4.8-20.5-4.8s-4.7.2-7,.8c-7.3.8-14,3.7-20.3,7.5-4.9,3.2-8.6,7.7-12.2,12.2-5,6.3-7.6,14.9-9.5,22.6-2.4,13.4.2,26.6,5.7,38.8,12.3,26.1,28.5,47.8,44.2,71.7,8.9,12.3,17.5,24.9,27.4,36.6,9.8,12.2,19.7,23.5,31.5,33.6,4.3,3.5,9.2,5.2,14.8,5.2-.2-1.3,0-2.9-.9-3.9-7.1-7.9-14.7-14.9-21.3-23.1-8.7-10.3-17.1-20.5-25.4-31.1-4.1-5.7-8.2-11.3-12.4-16.8-5.5-7.4-10.5-15.3-16.2-22.4-1.1-2.6-.5-6.1-.8-9-.5-5.9,0-12-.6-17.9-.3-11.9.2-23.8-.8-35.7,0-.7-.2-1.2-.6-1.6-2.8-2-6-3.1-8.7-5.5-2-1.6-3.3-3.8-4.4-6-3.9-8.9,0-20.3,9.1-24,2.4-1.2,4.9-1.8,7.4-1.8,5.5,0,10.8,2.7,14.4,7.1,2.6,3.8,4.8,8.3,4.2,12.9-1.3,6.8-4.3,12.9-11,15.6-.4.8-.7,1.6-.9,2.4.5,17.2.8,34.5.6,51.7,0,3.7-.4,6.9,2.1,10,12.8,19.1,27,37.5,41.5,55.5,3.6,4.3,6.8,8.9,10.8,12.7,6.2,7.5,13.3,14.4,20.3,21.1,2.1,2,4.3,3.4,7.2,3.9,9.8-.7,19.4-2.3,29.1-3,5.4-.6,10.8-1.4,16.3-1.4.5,0,1.1,0,1.6,0,6.3-.3,12.6-.5,19-.5,18,0,36.1,1.4,53.5,5.3,26.5,5.3,51.9,15.8,73.7,31.8,7.4,5.1,13.5,11.5,20.1,17.6h0c0,0,.2-.4.2-.4,20.2,20.1,34.4,45.7,41.7,73.1,3,12.9,5.4,26.4,4.9,39.6-.3,4.4-.9,8.8-.9,13.3-.9,6.7-1.7,13.4-3.4,20-5.9,25.4-19,48.8-37,67.6-8.2,7.9-17.1,15.5-26.9,21.2-15.9,9.7-33.8,15.7-52.3,18.4-7.2,1.4-14.4,1.1-21.7,1.4-21.6-.7-43.3-6.9-62.1-17.6-9.3-5.5-18.3-11.6-26.5-18.7-6.1-5-11.1-10.7-16.4-16.6-11.4-13.7-22.4-29.5-28-46.5,6-2,12-4.1,18-6,1.7,1.4,2.1,3.2,2.9,5.1,7.1,14.4,16.6,26.8,27.1,38.7,8.7,8.8,18.4,16.6,28.8,23,11.3,6.3,23.6,11.3,36.3,14,8.3,1.2,16.5,2.3,24.8,2.3s5.4-.1,8.2-.4c19.3-.9,38.2-8.3,54.2-18.8,14-9.9,26.2-22.7,35-37.5,3.5-6.4,7.3-12.9,9.5-19.9,1-3,2.4-5.9,3.2-8.9,6.4-23.5,6.8-49.2-.2-72.5-1.6-6.1-4.5-12-6.8-17.8-3.4-8.5-8-16-13.3-23.4-2-3.1-4.1-5.8-6.6-8.5-4.7-5.8-10-10.7-15.3-15.9-3.8-3.8-8.4-6.8-12.5-10.1-4.4-3.6-9.5-6.3-14.3-9.3-5-3.1-10.6-5.5-16.2-7.4-20.5-8.3-43.1-12.1-65-13.2-2.3-.2-4.6-.3-6.9-.3-4.6,0-9.2.3-13.8.3-7.3.4-14.4.3-21.7,1-4.7.3-9.4,1.1-14.1,1.4-12.5,1.2-23.8,3.8-36.1,3.8s-3.9,0-5.8-.2c-3.3-.7-6.7-1.3-9.9-2.4-5.8-2.4-11.7-4.5-17-8.3-10.5-7.9-19.6-17.5-27.8-27.8-2.4-2.5-4.8-5-7.2-7.6-2.6,1.5-4.7,3.8-7.3,5.5-9,6.4-17.9,13.1-27.4,18.7-1.6,1-3.3,1.4-5.2,1.6.5,5.5,3,10.6,3.3,16.2.2,5.4,1.4,10.6,1.5,16,2.5,4.6,7.9,8.7,12.3,11.5,3.4,2.6,6.7,4.8,10.6,6.6,3,1.8,6.6,2.4,9.6,4.4-.6-1.6-1.3-2.2-2.7-3.1-1.4-1.6-2-4.2-1.8-6.3.3-2.5,0-5.6,1.6-7.6,3.1-3.9,6.7-7.3,11.1-9.6,4.7-2.4,9.1-5.1,13.8-7.3-5.1-4.8-10.6-9.2-15.3-14.4-1.9-2.2-4-3.7-5.3-6.2-.3,0-.5,0-.8,0-3.7,0-7.1,2.5-10.4,4.3-2.6,2-6.7,5.1-6.3,8.8-.4,3.1,2.4,7.1,5.7,7.1s1.1-.1,1.6-.3c2.2-1.7,2.4-5.9,5.2-7.2.7-.1,1.4-.2,2.1-.2s1.8,0,2.7,0c.5,2.6,1.1,5.4,1.2,8-.5,3.3-3.2,6.2-5.7,8.4-1.9.8-4.3,1.4-6.6,1.4s-4.4-.5-6-1.9c-2.2-1.9-4.3-3.9-6-6.2-2.2-4.1-4.1-9-2.6-13.7,1-4.6,4.1-8,7.7-10.9,4.1-3,8.8-5.7,13.6-7.3,1.1-.3,2.4-.5,3.6-.5,1.9,0,3.9.5,5.1,2.2,10.7,11.7,21.3,22.7,35.3,30.6,9,5,19.1,7.8,29.5,8.3.3,0,.6,0,1,0,4.1,0,8.2-1,12.2-1,.3,0,.6,0,.9,0,0,2.7-.8,5-1.7,7.4-.4,4,.9,8.4,1.8,12.2,1,5.1,4.9,10.3,10.4,11.2,1.9.4,3.7.6,5.5.6,4.1,0,8.1-.9,12.4-1.4,8-1.7,16.1-4,24-6.2,1.3-.7,2.6-.9,3.9-.9,1.9,0,3.8.5,5.7,1.1-3.2-2.4-6-5.2-9.5-7.2-1.8-1-2.4-2.7-3.2-4.6.6-.9,1-2,1.6-3,1.2-.7,2.4-1.4,3.7-2.2,3,1.8,5.9,3.7,8.8,5.8,4.6,3.5,9.7,6,14.6,9,4.3,3.1,10.3,4.4,15.4,5.8,1.3.4,2.6.6,3.9.6,2.8,0,5.5-.7,8.5-.9,3.9-.2,7.4-1.3,11.3-1.5,1,0,2-.8,2.9-1.3.2,0,.4,0,.7,0,3.1,0,6.1-.6,9.1-1.3,3.8-.5,7.8-1.2,11.7-1.2,1.7,0,3.4.1,5,.4-.7-1.2-1.9-1.1-3-1.6-2.4-.5-3.9-2.4-6.1-3.4-3.9-.7-7.1-3.2-10.8-4.2-6.6-1.9-12.8-3.7-19.5-3.7s-3.1,0-4.7.3c-1.2.3-1.7.9-2.2,2,4.1,1.4,7.3,4.1,10.6,6.8,2.8,2.3,6.2,3.4,8.9,5.9-2.3,1.3-5.1,1.4-7.8,1.4s-2.3,0-3.3,0c-3.3-.7-6.4-2.4-9.1-4.4-2.8-2.1-5.7-3.9-7.8-6.8-4.4.8-8.6,4.2-13,4.2s-.7,0-1.1,0c-1.7-.9-5-1.8-5.7-3.7,4.1-3.7,10.3-5.4,14.9-8.6,2-1.5,4.2-2.3,6.6-3,5.1-1.8,10.6-2.7,16.1-2.7,1.5,0,3.1,0,4.6.2,4.6.5,8.7,2.1,13.2,3,6,1.7,12.3,4.1,17.1,8.1,3.2,2.5,7.3,4.6,9.8,7.9h-3.3c1.1.8,2.4,1.3,2.7,2.9,1.1-.6,2.2-1.2,3.3-1.2.5,0,1,.1,1.5.4,2.7,1.2,5.8,1.7,8.6,3,13.2,5.6,24.4,17.1,28.6,30.9,1.9,4,2.3,8.1,3.4,12.3,4,2.8,7.6,6.8,9.5,11.3,7.2,15.5,10.6,33.1,9,50.1-1.2,7.6-2.6,15.5-5,23-3,8.3-6.4,16.3-11.3,23.6-2,3.6-4.1,7-6.6,10.3-1.5,1.7,1.1,3.4-.4,5.3-2.7,5-6.9,9.5-10.7,13.8-.8.8-1.4,1.6-2.5,1.9-1.6-.3-3.1-1-4.7-1.3-.6-.7-1.1-1.2-1.9-1.8-2.4,3.6-5.7,6.1-9.2,8.4-12,8.4-26.6,12.8-41,14.8-3,.2-6,.3-9,.3-11.9,0-23.7-1.7-34.8-6.3-2,1.3-3.3,3-5.5,3s-.7,0-1.1-.1c-5.5-2.5-10.6-4.6-15.3-8.6,1.9-.6,1.7-2,2.5-3.5-3.2,0-3.1-2.6-5.7-3.8-4.1-1.8-7.4-4.4-10.7-7.3-7.2-6.5-14.3-12.4-20.3-20.2-4.1-4.9-7.2-10.4-10.6-15.7-2.3-3.6-3.7-7.5-5.7-11.1-.7-1.5-2.8-1.7-4.2-2.3-10.1-2.4-14.5-15.8-9.4-24.4,2.6-5.1,8.1-8.3,13.8-8.3,1.9,0,3.8.4,5.5,1.1,8.5,2.6,12.5,13.2,9.6,21.2-1.8,3.2-3.2,6.3-6.5,8.3,5.8,18.7,20.3,35,35.4,46.8,3.4,2.5,7,4.8,10.3,7.4,1.1-.8,2.2-1.8,3.1-2.7,5.6,2.5,10.6,5.8,16.5,7.8.8,1.9.6,4.4,3,4.9,9.5,3.1,19.7,4.9,29.8,4.9s13.8-.9,20.3-2.8c9.1-2.3,18.5-5.8,26.2-11.4,2.9-2,5.7-4.8,9-6-.5-.4-.9-.8-1.4-1.1,1-2.7,3.5-3.3,5.2-5.4,2.2-2.4,4.3-5,6.7-7.4,1.8-1.8,4.1-2.6,5.9-4.5,2.5-2.7,5.1-5.1,7-8.2,4.2-6.7,8.3-13.8,10.4-21.6,3.3-9.2,5.9-19.3,5.6-29.2-.2-4.6.4-9.6-.8-14.1-1.2-6.6-2.8-13.1-5.5-19.3-1.3-3.2-3-6-3.9-9.4-1.2,2.9-1.1,6-2.2,8.9-.3,1.4-1.8,1.4-2.8,2.1,0,.5.3,1,.3,1.4h-1c.3-3.2-1.2-5.8-.8-9.1-.5,1.6.4,4.5-1.9,4.5-.8-3.1.5-6.1,0-9.2-.7-5.7-1.3-11.9-2.7-17.5-3.8-9.8-10.6-18.4-19.9-23.4-2.2-1-3.8-2.6-6.2-2.7.5,1.3,1.5,2.6,1.3,4.1-.2,3.7,0,7.3-.2,11,4.6,1.2,9,3.6,13.4,5.7,2.9,1.6,6.2,3.1,8.6,5.5,1.7,2.6,2.3,6.1,2.1,9.2-.2-.2-.4-.4-.4-.6-4.7-1.9-8.6-4.9-13.4-6.5-5.7-2.1-11.5-3.9-17.1-6-12.6-3.9-24.6-10-36.5-15.1,1-2,3-3.6,4.6-5.1.6-.5,1.3-.7,1.9-.7,1.6,0,3.2,1.1,4.6,1.6,6,2.1,11.7,5,17.8,7,1.8.6,3.1,1.9,4.8,2.4,2.4.4,4.7.7,7,1.5-1.4-.6-2-.9-2.6-2.3-.6.3-1.2.7-1.8,1-1.8-3.2-.4-8.1-.6-11.7.2-1.6-.8-2.3-1.7-3.3-.4,0-.9,0-1.3,0-3.3,0-6.9-.3-10.4-.3s-5.7.2-8.3,1c-2.6.8-5.4.7-8,1.2-3.8,1.4-7.8,1.4-11.7,2.6-4.1.1-8.4.4-12.6.4s-7.4-.2-11.1-.8c-7.8-1.2-15.9-3.3-22.8-7.3-7,3.3-15,4.4-22.3,6.7-9.7,2.3-20.2,5.9-30.1,5.9-.3,0-.5,0-.8,0-2.1,0-4.1-.2-6.1-.2s-.9,0-1.4,0c-.4-1-.8-2.1-1.1-3.1-.2.8-.4,1.6-.9,2.4-4.9-2.6-8.5-7.2-11.1-12-2.2-5.7-3-12.3-4.1-18.3-1.6.4-3.2.4-4.8.4s-1.5,0-2.2,0c-1.3,0-2.5,0-3.8.2,3.4,8.9,5.1,18.7,7.3,28.1.9,5.2,2.7,10.4,3.2,15.6,3.6-.2,6.9-1.2,10.3-2,8.6-2.4,17.1-3.6,25.9-4.9,16.2-3.1,32.9-4.2,49.4-4.2,1.4,0,2.9,0,4.3,0,7.5.3,15.2,1.4,22.6,2.8,15.7,2.5,30.7,8.6,43.7,17.6,3.9,3.1,7.5,6.3,11.2,9.5,5.6,5.7,10.5,12.3,14.5,19.3,2.5,5.2,5,10.6,6.6,16.2,4.3,15.7,3.6,32.6-2.3,47.8-3.5,8.1-8.6,15.7-14.9,22-12.2,11.6-29.2,18.5-46,18.5s-12.5-1-18.5-3c-8.6-3.1-17.1-6.8-24-12.8-3.7-3-6.6-6.4-9.8-9.9-3.3-3.7-5.5-7.7-7.8-12-4-.3-7.7-2.9-10.9-5.2-9.4-7.7-6.6-24.2,3.6-29.9,2.1-1.1,4.2-1.4,6.4-1.4,1.6,0,3.2.2,4.9.4,6.2,1.1,10.8,6.6,12.5,12.4,1.2,4.7-.4,8.6-1.3,13.2,1.4,1.4,2.6,2.9,3.8,4.5,9.8,13.4,26,21.8,42.6,21.8s6.2-.3,9.3-.9c5.6-1.8,11.6-3.9,16.2-7.5,9.5-6.9,15.9-17.7,18-29.2,2-11.7,0-23.5-5.1-34-5.8-11.7-15.3-20.6-26.4-27.2-7.8-4.6-16.3-7.3-25.2-8.9-8.2-2.4-16.2-2.4-24.7-2.5-1.7,0-3.3,0-4.9,0h0c-4.9,0-9.8,0-14.8.6-10.6.3-20.9,1.7-31.3,3.6-8.7,1.8-17.5,2.7-26.2,4.6-5.7,1.6-11.7,2.5-17.4,4.1-17.9,4.4-35.5,11-50.4,22-.8.8-1.3,1.7-2,2.6,1.1,0,2.1.2,3.2.2s1.1,0,1.6-.2c8.4-1.3,16.9-2.6,25.2-3.7,11.2-2.3,22.4-4.1,33.6-6.4,4.8-1,9.5-2.2,14.4-2.7,7.3-1.5,14.8-3,22.1-4.7,1.3-.2,3-.6,4.5-.6.8,0,1.7.1,2.4.5,17.6,8.3,35.2,17,52.6,25.6,3.3,1.6,6.2,3.7,9.7,4.9,2-3.3,6.1-4.9,9.6-5.8.9-.2,1.8-.3,2.8-.3,4.1,0,8,2.2,11.3,4.7,4.1,3.8,6.6,9.3,6,15-.4,7.1-5.2,12.7-11.4,15.5-1.8.6-3.6.9-5.4.9-6.3,0-12.1-3.6-15.3-9.3-2.6-4.1-2.5-8.4-2.4-13.1l-.5-.6c-9.8-3.5-18.7-9.3-28.2-13.7-5.1-2.9-10.7-4.6-15.8-7.6-5.1-2.5-10.7-4.6-15.5-7.7-5.9,1.6-12,2.3-17.9,3.9-7.5,1.5-15,3.3-22.6,4.5-18.7,4.1-37.7,6.7-56.5,10.2-6.2.9-12.5,1.8-18.7,3.2-4.7,5.3-7.6,11.2-10.9,17.3-12.5,19.9-24.8,40.4-37.7,60.1-5.1,6.9-10.2,13.8-15.2,20.7-4.7,6.3-10,12.1-15.2,17.9-6.1,6.4-12.7,12.2-19.3,18.3-7.7,6-15.4,12-24,16.5-17.2,9.6-36.5,16.5-56.1,18.7-5.4.3-10.5,1.3-15.8,1.3s-1.3,0-2,0c-.3,0-.7,0-1,0-9.6,0-19-1.3-28.3-3.8-8.5-1.6-16.8-5.3-24.8-8.7-4.1-1.7-7.8-4-11.7-6.1-9.7-5.9-18.9-12.1-27.2-19.9-4.1-4.1-8.1-8.2-11.9-12.5-17.9-21-28.7-46.8-33.5-73.9-2.6-21.1-1.9-42.8,4.3-63.2,4.5-14.6,10.3-28.6,19.4-41.1,2.8-4.3,5.6-8.7,9.2-12.4,11.1-13.5,24.9-24.9,39.9-33.6,12.3-7,25.5-11.6,39.2-15,3.9-.8,7.9-1.2,11.8-2,3.6-.8,7.3-.5,10.8-1.2,3.5-.4,7.1-.5,10.7-.5,8.2,0,16.5.9,24.6,2,11.6,2.4,22.8,4.8,33.9,9.1.9.4,2.7.7,3,1.7-2.9,6.3-5.6,12.6-8.4,19-2-1-4.1-1.8-6.3-2.4-12.7-5.5-26.8-8.2-40.5-9-3,0-6.1-.1-9.2-.1-4.8,0-9.7.2-14.4,1.1-8.9,1.1-17.3,3.8-25.7,6.9-11.6,4.9-22.8,10.5-32.6,18.5-6.7,4.6-11.6,10.5-17.5,16.2-7.9,9-15.1,19.2-19.7,30.3-5.5,10.6-8.1,23.4-10.3,35-1.9,16.6-1.6,33,2.8,49.2,3.5,13.7,9,27.1,17.1,38.7,16,25.4,42.5,44.2,71.7,51.1,9.1,2.2,18.4,3.2,27.7,3.2s14.2-.6,21.3-1.6c5.5-.8,10.9-2.7,16.2-4.3,10.8-3.3,20.3-8.7,30.1-14.4,6.1-4.1,11.9-8.9,17.8-13.4,15-13.4,27.3-28.5,38.9-44.9,5.2-8.6,11.1-16.7,16-25.3,3.5-6.8,8-12.8,11.6-19.5,4.1-7.4,8.8-14.6,12.8-22,3.9-6.7,8.8-12.5,13.4-18.7,2.4-3,5.3-5.5,8.1-8,6.7-5.5,13.2-10.9,20.9-14.9,8.3-4.2,16.5-8.9,25.2-11.9,7.1-2.7,14.2-4.9,21.5-7-.2-4.3-1.5-8.2-2.3-12.4-1.2-7.5-3.1-15.1-5.3-22.4-1.4-4.4-3.4-8.5-5.1-12.7-3.9-1.3-7.3-3.4-11.1-4.8-4.2-1.5-7.8-4.1-11.9-5.9-.6-.2-1.1-.3-1.7-.3-.9,0-1.8.3-2.9.5-4.3,1.4-7.7,4.7-11.7,6.9-3.4,1.9-6.5,4.3-9.9,6.3.2,5.3,3.5,8.3,5.5,12.9,1.3,3.1,3,5.9,4.2,8.9,2.6,7.3.9,14.2,3.1,21.7.3,0,.5,0,.8,0,3.5,0,6.4-2.3,9.7-3.5,5.7-2.3,11.4-4.1,16.8-6.9.6-.3,1-.8,1-1.6-.4-5.7-2.4-11.4-5-16.4-.7-1.9-2.2-2.7-3.9-2.7s-4.7,1.3-5.8,3.1c0,4.7,3.4,9.6,2.8,14.1-1.8.9-3.7,1.6-5.3,2.8-1,0-2.1-.3-3-.6-1.2-6.5-3.1-12.9-5.2-19.1-.4-1.5-.9-2.8-.3-4.3,1.7-1.7,4.7-2.4,7-3.1,3.7-1.1,7.2-1.9,10.9-1.9s2.5,0,3.8.3c5.6,2.7,8.9,9.7,9.9,15.5,1.3,5.8,3.7,12.3,3.2,18.4-1.8,2.6-5.7,3.4-8.6,4.6-5.9,2.5-12.2,4.5-18.1,7.3-11.5,4.1-22.2,10.6-31.7,18.3-4.8,4-10.5,7.1-14.2,12.2-5.4,7-10.5,14.2-14.4,22-5-2.9-7.3-8.8-12.9-11.4-2.4-1.2-5.9-2.4-9.1-2.4s-3.5.4-4.9,1.4c-2.7,2.2-5.5,4.9-6.8,8.1-2.5,8.2.8,17.9,1.7,26.3.4,1.9-1.5,3.8-1.3,5.5.3,0,.6.1.9.1.9,0,1.9-.2,2.6-.4,3.5-3.9,7.1-7.7,9.5-12.2,1.1-2.2,1.7-4.6,2.5-6.9-.9-.6-1.7-2.1-2.8-2.1s-.2,0-.3,0c-2.1.8-4.1,1.8-6,2.6-.8-2-.2-2.4-2.6-2.5.3-4.5,3.8-8.7,8.5-8.7s.8,0,1.1,0c4,0,10,1.1,11,5.7,1.7,3.9.3,8.8-1.5,12.3-3.7,9.9-12.5,18.4-18.8,26.5-2,3.9-4.2,8.1-4.6,12.4-.8,1-1.6,2.2-2.2,3.4-1.6,3.5-4,6.7-6.2,9.9-3,4.3-7,7.1-10.5,11-1.5,1.9-4,3.3-5,5.6-1.3,3.2-1.8,2.7-5.6,8.4-3.8,5.7-9.3,10.5-14.5,14.7-2.4,2.1-5.1,3.9-8.1,5-5.4,2.2-11.2,4.5-16.9,5.6-3.7.4-7.4,0-11.2.8-1.4.3-2.5.9-3.2,2.3,1.6.3,3.1.8,4.5.8s2.3-.3,3.4-1.3c.6.5,1,1,1.4,1.6-2.2,1.1-3.9,3-6.1,4-5.7,1.3-11.2,3-16.8,4.8-7.3,1.9-14.5,2.1-22,2.4-.9,0-1.9,0-2.8,0-8.7,0-16.9-1.9-25.3-4-10.6-2.7-20.4-7.5-29.3-13.9-13.8-9.8-25.8-23-33.4-38.2-7.9-15.3-12.3-32.1-12.1-49.4-.4-9.6.8-19,3-28.4,3.5-11.5,7.8-24,15.3-33.6,6.2-9.7,14.3-18.5,23.5-25.5,2.3-4.9,7.7-7,12.1-9.7,2.5-1.7,5.2-2.9,8-4,.8.8,1.6,1.5,2.4,2.4,7.9-5,17.1-6.6,26.3-8,4.7-.8,9.5-1.1,14.2-1.1,6,0,12,.6,18,1.5,1.3.2,2.5.8,3.9,1.3,2.9-2.3,6.3-5.7,10.2-6.2,1-.2,2-.3,2.9-.3,2.9,0,5.8,1,8.5,2.2,4,2.3,5.3,6.5,6.7,10.6,1.1,6.6-1.7,13.6-7.8,16.8-2.1,1.2-4.6,1.7-7.1,1.7s-6.8-1-9.5-2.7c-4.1-3.1-6.5-7.9-6.5-13.1-5.9-1.7-12.4-2.4-18.8-2.4s-10.3.4-15.2,1.1c-6.8,1.2-13.7,3-20.1,5.7-.8,2.5-3.4,3.3-5.4,4.5-4.4,2.4-8.3,5.4-12.3,8.3-.6.4-1,.6-1.5.6-1,0-1.8-.8-2.9-1.2-2.4,2.9-5.7,4.9-8.6,7.3-4.1,3.3-7.1,7.3-10.6,11.2-4.4,5.2-7.6,11.4-10.9,17.3-4.1,9.5-7.8,19.6-8.9,29.9-1,6.8-.7,13.8-.7,20.6,1.3,14.4,5.6,28.8,13,41.4,5.4,10.8,14.6,20.2,23.4,28.4,4.7,3.9,10.3,6.7,15.5,10,8.8,4.2,18.7,7.7,28.6,7.7s3.2,0,4.8-.3c4.2-1,8.6-2.3,12.5-4.1,5.1-2.3,9.2-6.2,13.8-9.9,3-2.4,4.8-5.8,7.4-8.6,10.5-6.4,20.7-13.8,32.9-16.6-1,1.4-1.6,2.5-2,4.2-.6,2.4-2,4.6-3.9,6.4-2.9,1.6-6,2.4-8.9,4.3-10.5,6.9-18.6,16.8-28.9,23.8-3.1,2.7-7,3.1-10.6,5,.9.3,1.9.5,2.8.7.6-.5,1.2-.9,1.9-1.4.6,0,1.2,0,1.8,0,6.4,0,12.9-3.4,19.4-4,1.3-.2,1.8-1.2,2.7-2.1.2,0,.3,0,.5,0,.6,0,1.2,0,1.7,0,.8,0,1.5-.2,2-1.2-1.4-.3-2.5-.5-3.7-.5s-2.4.2-3.9.7c.8-1,1.4-2.1,2.4-2.7,2.9-2.1,5.9-4.7,9.3-5.7,3-.8,6.5-.5,9.4-1,6.5-1.6,12.6-3.6,18.3-7.3,2.4-2.1,4.7-4,6.6-6.6,1.5-1.9,3.8-2.2,4.1-4.9-3.2,0-6.4,1.7-9.5,1.7s-.7,0-1.1,0c0-.8.3-1.7.5-2.5-1-.3-1.7-1.1-2-2.5-2,4.5-2.4,9.3-3.5,14-2.8,1.2-5.7,2.7-8.7,3.2.8-6.6.8-14.2,4.1-20.1,2.5-7.4,5.1-14.7,10.3-20.7,4.2-5.6,9.5-9.9,14.8-14.4,1.4-1.1,3-1.3,3.3-3.4,1.1-4.7,2.8-9.4,4.6-14,2-5.1,5-9.1,7.9-13.8,1.7-2.8,4.2-4.7,6.1-7.3,0,1.5.3,3,.5,4.5h-1.7c.7,1.4,1.3,2.7,2,4.1v-3.7l1.3.4c.9,4-2,5.9-3.8,8.9-5.4,8.9-7.7,18.7-9.2,29-.8,5.1.4,9.7.4,14.9-1.8,1.1-3.2,2.4-5.4,2.5,0,.8.3,1.6.5,2.4-1.2.7-2.6,1.2-4.1,1.6.4-.8.8-1.6,1.3-2.4-.8-1.2-1.6-2.3-1.6-3.9,0-4.7-.6-9.1,1.1-13.7,0-1.8-.5-3.5-.7-5.2,0,1.6,0,3.1,0,4.7-.8,1.4-.8,2.3-.6,3.9-2.3,1-4.1,2.5-5.7,4.3-2.4,2.5-5.1,5.2-7,8.1-1.8,2.8-3.1,5.9-4.5,8.9-.7,1.5-1.4,2.8-.8,4.5.8-.6,1.8-1.1,2.7-1.7,5.9-.9,10.8-4.1,16.7-5.7.4.2.8.3,1.1.5,3.2-5.1,8.3-6.5,12.2-11,4.8-5.5,8.3-11.7,13.1-17.1.6.4,1.1.8,1.7,1.1.4-.2.8-.5,1.1-.5-.5-.7-1-1.4-1.7-2.1,3.8-1.6,5.3-4.7,7.1-8.2-3.7,1.6-5.4,5.3-8.9,7.1-3.8,2.8-8,4.6-11.8,7.4-.2,0-.3,0-.5,0-1.2,0-2.5-.8-3.7-1.2.7-2.8,2.8-5.2,4.1-7.7,3.4-3.3,7-6.4,10.7-9.1,2.5-1.8,4.3-4.2,6.6-6.4.8-.7,1-1.4.8-2.3-1.6.2-2.6,1.6-4.4,1.6-.8-6.1-3.7-12.2-3.9-18.7,0-2-.6-3.8-.9-5.7.8-7.7,1.9-14.8,6.5-21.2,2.4-3.6,7.1-5.5,10.9-6.9,1.1-.2,2.3-.3,3.3-.3,5.3,0,9.9,2.3,14.6,4.8,2.2,1.1,3.6,2.8,5.9,3.5,1.2-3.3,3.4-5.7,5.5-8.7.5.3,1,.7,1.5.9-.8-1.4-.8-2.9-2.6-3.3-5.7-2-11.2-4.7-16.9-6.9-5.8-2-11.5-4.4-17.2-6.8-1.6-.5-3.4-1.3-5.1-1.3s-.2,0-.3,0c-.7.9-1,2.2-1.5,3.2-5.1,13.3-11,26.3-17.5,39-10.6,20.1-22.6,40.5-37.2,57.9-4.2,4.5-8.6,8.9-12.9,13.4-8.4,6.9-17.8,14.3-28.2,17.9-8.7,3.5-18.1,5.2-27.5,5.2s-23.5-2.8-33.8-8.3c-9.6-5.7-17.8-13.7-24.1-23-8-12.5-12-27.5-10.4-42.4,3.1-26.7,23.8-49.9,49.1-58.1,5.7-2.3,10.6-3.3,16.8-3.6,2.6-.8,6.3-.4,7.6-3.2,2.2-3.2,5.1-5.7,8.8-7.2,1.6-.4,3.2-.6,4.8-.6,4.2,0,8.4,1.4,11.7,3.9,2.4,2.4,4.1,5.6,5.4,8.7,1.2,5.3,0,10.3-2.6,14.9-2.8,4.6-7.7,7.7-13.1,8.3-5.5,0-9.5-2.6-14.1-5.2-2.4.8-5,1.2-7.5,1.6-14.1,2.7-28.3,9.7-37,21.5-6.9,8.4-10.2,19.8-8.7,30.5,2,18.1,16,33.6,33.3,38.9,4.8,1.6,9.8,2.3,14.8,2.3s12.2-1.1,18-3.1c3.3-1.3,6.4-3,9.5-4.6,11.5-6.5,19.4-15.7,27.9-25.7,12.3-15.4,22.4-33,31.7-50.2,6.7-11.8,11.8-24.1,17-36.6,5.2-11.4,9-23.2,12.9-35,2.8-9.6,5.2-19.1,6.1-29.1,0-3.9.5-9.4-3.6-11.4-4.8,13.8-9.2,27.9-14.5,41.5-6.6,18.6-14,36.6-21.4,54.8-.6,1.4-2.2,2.4-3.4,3.4-7.5,5.3-15.2,10.6-22.9,15.6-13.3,9-27,16.9-40.5,25.5-.8.7-2.2-.5-2.2,2.4s.8,5.6,0,8.5c-.9,3.3-2.2,7.3-4.9,9.4-3,2.5-6.2,5.1-10.4,5.1s-8.6-.3-11.8-2.6c-5-3-8.5-8.9-9-14.6-.4-5.7,1.7-12.6,6.3-16.4,3.2-2.9,7.6-4.3,12-4.3,5,0,10,1.9,13.2,5.7,1.5-.7,2.9-1.3,4.2-2.3,19-12.6,38.5-23.6,57.4-36.8,1.6-1.1,3.5-2.3,4.7-3.8,2.2-3.7,3.5-8,5.2-11.9,2.4-4.9,4.2-10.1,6.1-15.3,4.2-10.2,7.8-20.6,11.5-31,3.8-11.3,8.1-22.4,11.6-33.8,1.2-4.2,3.4-7.8,3.9-12.2.8-5.3-1.1-9.8-3.9-14.2-6.9-12.2-14.9-24.1-22.5-36-11-16.5-20.8-33.7-29.5-51.5-3.3-6.7-6-13.7-8.5-20.7-8.9-25.2-11.6-52.7-8.3-79.1,1.6-9.9,3.7-19.9,7.2-29.3,2.5-5.9,4.4-12.2,7.6-17.8,6.3-11.6,13.5-22.5,22.4-32.2,9.9-10.4,21.3-19.5,33.5-26.8,5.5-3.7,11.8-6.1,17.7-8.7,10.8-4.1,22.2-7.3,33.8-8.2,5.6-.6,11.1-.8,16.6-.8M367.8,204.7c.7,0,1.4-.1,2.1-.4,1.7-.5,3.2-1.8,4.6-2.8,3.1-5.3-1.8-12.3-7.4-12.3-.8,0-1.6.1-2.4.4-3.2.9-4.7,3.7-5.4,6.7-.5,4.4,4.1,8.4,8.4,8.4M404.2,249.7c.8,0,1.6-.1,2.5-.4h0c3.3-2.3,6.4-5.3,5-9.7-1.2-3-4.1-4.5-7.1-4.5-2.3,0-4.6.9-6.2,2.6-1,1.6-2,3.6-2.3,5.6.4,1.5,1.1,2.9,1.8,4.3,2.1,1.2,4,2.1,6.1,2.1M224.8,445.3h0c0,0,0,0,0,0-3.1,2.4-4.3,8.8-.3,10.7.9.6,1.9.9,3,.9,2.6,0,5.1-1.7,5.6-4.4.7-1.9,0-3.5-.5-5.4-1.9-1.1-3.6-2.1-5.7-2.1s-1.3,0-2,.3M202,492.8c.9,0,1.8-.2,2.7-.7,2.4-1.6,4.7-3.5,4-6.7,0-4.1-3.6-7.4-7.4-7.4-1.3,0-2.6.4-3.8,1.2-2.8,1.8-4,4.5-3.7,7.7,1.2,2.9,4.8,5.9,8.2,5.9M575.8,540.6c3.6-1.7,6.8-4.8,5.7-9.1-.6-3.9-4.3-6.4-8.1-6.4s-.3,0-.4,0h0c-3.6.3-6.9,3.6-6.7,7.3,0,2.8,1.7,5.8,4.2,7.1,1.6.7,3.4,1.1,5.2,1.1M467.5,548.3c4.1-.8,7.5-2.8,8.3-7.3-.3-3.7-3.9-6.5-7.5-6.5-.3,0-.7,0-1,0-3.9,1.2-5.5,6.8-3.9,10.2,1.2,1.2,2.7,2.4,4.1,3.5M179.1,553.2c.3,0,.7,0,1-.1h0c4.1-.8,8.9-4.5,7.8-9.2,0-3.3-2.7-4.8-5.1-6.5-1.1-.8-2.3-1-3.6-1s-1.2,0-1.9.2c-5.5,1-8.1,7.9-5.2,12.4,1.6,2,4.2,4.3,6.9,4.3M516.4,553.4c.9,0,1.8-.2,2.6-.4,4.8-2.4,5.9-9.9,1.5-13.2-1.4-1.1-2.8-1.4-4.3-1.4-1.1,0-2.3.2-3.5.3-1.7,1.8-3.3,3.6-4.2,5.9.8,2.2,1.3,5.2,3.1,6.8,1.2,1.4,3,2,4.8,2M529,554h.5v-.6h-.5v.6M278.5,592.4h.5v-.6h-.5v.6M269.3,610.8c2.2-.4,3.7-1.1,5.4-2.4,1.5.7,2.7,1,4.1,1s.9,0,1.3,0h0c2.5-2.3,2.4-4.9,3.5-7.8-4.3,3.7-10.6,4.1-14.3,8.3v1M363.6,39.1c-7.1,0-13,.3-18.5.9-11.9.9-24.3,3.9-39,9.4l-.4.2-.4.2c-.8.3-1.6.7-2.4,1-5.6,2.4-12,5.1-18.2,9.1-13.7,8.2-26.2,18.3-37.3,29.9h-.1c0,.1-.1.2-.1.2-9.1,9.9-17.4,21.7-25.2,36.1-2.8,5-4.7,9.9-6.4,14.3-.7,1.9-1.4,3.7-2.1,5.3l-.2.5-.2.5c-4.4,11.9-6.7,23.9-8.1,33v.4c0,0-.1.4-.1.4-3.8,30.1-.5,60.6,9.3,88.2,3,8.7,6.1,16.2,9.4,22.9,9.2,18.9,19.5,36.9,30.7,53.7,1.6,2.5,3.3,5.1,4.9,7.6,6.1,9.3,11.8,18.2,16.9,27.2l.2.4.2.4c.5.8.8,1.3.9,1.7-.2.6-.6,1.6-.9,2.4-.7,1.7-1.5,3.7-2.2,6.1-1,3.2-2,6.3-3.1,9.5-2.1-4-6.1-8.6-13.8-11.1-12.4-4.8-24.5-7.5-36.8-9.9h-.5c0-.1-.5-.2-.5-.2-10.5-1.5-19.2-2.3-27.5-2.3-4.4,0-8.7.2-12.8.6h-1c0,.1-1,.3-1,.3-.4,0-1.7.2-2.6.2-2.2.1-4.9.3-8.1,1-1.3.2-2.7.5-4.3.7-2.4.4-5.1.7-7.9,1.4h-.3c0,0-.3.1-.3.1-17,4.2-31.5,9.8-44.2,17h-.1c0,0-.1.1-.1.1-17.1,10-32.6,22.9-44.8,37.6-4.5,4.7-7.7,9.6-10.5,14l-.3.4c-11.9,16.4-18.3,34.4-22,46.5h0s0,0,0,0c-6.6,21.6-8.3,45.7-5,71.5v.5c0,0,.2.5.2.5,5.7,32,18.8,60.8,38,83.3h0c0,0,0,.2,0,.2,4.3,4.9,8.7,9.4,12.8,13.5l.2.2.2.2c9.9,9.3,20.5,16.3,30.5,22.4l.3.2.3.2c.7.4,1.4.8,2.1,1.2,3.4,1.9,7.2,4.1,11.7,5.9l1.6.7c7.9,3.3,16.7,7.1,26.5,9.1,10.9,2.8,21.9,4.3,32.8,4.3s.4,0,.7,0c.8,0,1.5,0,2.3,0,4.3,0,8.2-.4,11.7-.8,1.9-.2,3.7-.4,5.4-.5h.5s.5,0,.5,0c21-2.4,42.9-9.7,63.3-21,10.3-5.4,19.1-12.3,26.8-18.3l.6-.5.6-.5c1-1,2.1-1.9,3.1-2.8,5.7-5.2,11.5-10.5,17.2-16.4l.3-.3.2-.3c.7-.8,1.5-1.6,2.2-2.5,4.7-5.2,9.5-10.6,14-16.7v-.2c.1,0,.2-.2.2-.2,4.9-6.8,10-13.8,15-20.5l.3-.5.3-.5c8.3-12.7,16.4-25.8,24.2-38.4,4.5-7.3,9.1-14.8,13.7-22l.4-.6.3-.6c.4-.7.8-1.4,1.2-2.2,1.3-2.4,2.4-4.6,3.6-6.5,2.3-.4,4.8-.8,7.3-1.1,1-.1,2-.3,2.9-.4h.3s.3-.1.3-.1c6.9-1.3,14-2.5,20.8-3.6,3.2-.5,6.5-1.1,9.8-1.7-2.1,7.9-1.6,16.6,1.8,24.6,0,.1.1.3.2.4-.3.1-.6.2-1,.3l-19,6.2,6.2,19c5.5,16.8,15.8,34.2,31.6,53.2l.3.3.3.3,1.5,1.7c5,5.6,10.2,11.4,16.8,16.8,8.5,7.3,18.1,14.1,29.2,20.6h0s0,0,0,0c21.8,12.5,46.5,19.5,71.4,20.3h.7s.7,0,.7,0c1.6,0,3.3,0,5-.1,5.8-.1,12.3-.2,19.2-1.5,21.6-3.1,41.5-10.2,59.1-20.9,12.6-7.3,23-16.7,30.7-24l.3-.3.3-.3c20.8-21.8,35.3-48.3,42-76.7,1.7-6.6,2.5-12.7,3.3-18.7.1-1.1.3-2.1.4-3.2l.2-1.4v-1.4c0-1.9.2-4.1.4-6.6.2-1.7.3-3.5.5-5.4v-.3s0-.3,0-.3c.6-16.7-2.6-32.7-5.4-44.8v-.3c0,0-.2-.3-.2-.3-7.7-28.8-21.9-55-41.2-76.1h0c0-.1-.8-.9-.8-.9-1.6-1.7-3.2-3.4-4.9-5.1l-21.4-21.3-.9,2.3c-.1,0-.3-.2-.4-.3-23.2-17-51.2-29.1-81.1-35.1-17.2-3.8-36.1-5.7-57.7-5.7s-12.5.1-19.2.5c-.5,0-.9,0-1.4,0-5.5,0-10.6.6-15.2,1.2-1,.1-2,.2-3,.4-4.9.4-9.6,1-14.2,1.5-3,.4-5.8.7-8.6,1-3.4-3.2-6.8-6.6-10.1-10.1l2-2.8,9.1-10.3,1.1-1.3c5.2-5.8,10.5-11.8,15.5-18.7,12.6-16,22.3-32.2,28.8-48.1l.2-.4v-.4c.7-1.7,1.4-3.4,2.1-5.3,1.7-4.3,3.6-9.1,4.9-14.5v-.2s0-.2,0-.2c4-16.7,5.8-31.1,5.7-45.3v-.3s0-.3,0-.3c-.6-15.7-2.8-29.7-6.7-42.7-3.2-11.8-8.5-22.6-13.1-31.7l-.3-.5-.3-.5c-1.5-2.6-3.1-5-4.5-7.4-1.1-1.7-2.1-3.4-3.1-5l-.2-.4-.3-.4c-10-15-23.3-28-39.4-38.6-14.8-9.8-31.4-17.1-49.2-21.8l-1-.3-1-.2c-2.3-.4-4.7-.8-7.2-1.3-5.8-1.1-11.7-2.1-18.1-2.6h-.5s-.5,0-.5,0c-3.6,0-7.4-.2-11.1-.2h0ZM305.3,121.6c.7-.5,1.5-1,2.2-1.5,4.7-3.1,9.1-6.1,13.2-7.9l.5-.2.5-.3c7.7-3.9,14.2-6.4,19.9-7.6l.7-.2.7-.2c5.6-1.7,11.9-2.5,18.8-2.5s7.7.2,11.8.7h.4c0,0,.4,0,.4,0,20.8,1.5,37.9,11.8,48.7,20.3,7.3,7,14.1,13.7,18.9,21.7l.4.6.4.6c2.8,3.9,5.1,8.6,7.2,12.7,3,6.3,4.7,13.2,6.7,22.1,1.1,7.7,1.2,15.9.8,25.6-.6,4.3-1.4,8.7-2.3,13.4l-.4,2.1c-4.2,18.2-14.4,37.1-30.2,56.2-.6.7-1.5,1.7-2.5,2.7-3.2,3.4-7.2,7.6-10.1,13.4-3.5-4.7-7.1-9.5-10.6-14.4.9,0,1.8,0,2.7,0,3.5,0,6.9-.5,10.1-1.5l.8-.2.7-.3c12-4.7,19.8-12.3,23.3-22.5,2.1-5.4,2.4-10.3,2.1-14.1,4.5-6.6,7.3-13.6,9.5-19.9v-.2c0,0,.1-.2.1-.2,4.4-13.5,5-28.5,1.9-43.4-2.5-13.8-8.7-26.7-18.8-39.5l-.2-.2-.2-.2c-5.9-7-12-12.6-18.7-17-7.5-5.6-15.5-8.7-22.9-11.3h-.2c0,0-.2-.1-.2-.1-7.1-2.4-14.7-3.4-23.9-3.4-3.5,0-6.8.2-9.7.3h-1.9c0,.1-1.8.6-1.8.6-10.9,2.7-21.5,5.7-32,12.4l-.4.3-.4.3c-10.1,7.3-18.2,15-24.7,23.8l-.2.2-.2.2c-5.2,7.5-11.6,17.5-14.9,28.7h0s0,0,0,0c-7.1,25-5,52.1,6,76.4,3.6,9.2,8.6,18.8,15.3,29.3,1.2,2,2.4,3.9,3.6,5.8l-10.8-.9-3.5,8.2c-3.3-5.2-6.3-10.3-8.9-15.5v-.2c-.1,0-.2-.2-.2-.2-7.8-14.9-13.3-29.3-16.2-42.8-.3-1.8-.6-3.5-.8-5.2-.8-5-1.6-9.7-1.7-14v-.5s0-.5,0-.5c-1.1-16.1,1.5-31.8,7.4-45.4l.3-.7.3-.7c2.6-7.3,6.8-15,12.6-22.7,5.8-7,12.7-14.7,20.3-20.6h0ZM484.2,411.3c2.3-.1,4.5-.4,6.5-.6l-2.4,3.9c-.9.2-1.7.4-2.6.6-1,.1-2,.3-2.9.4-1.2.2-2.3.4-3.3.5,0-.3-.1-.6-.2-.9.3-1,.6-2.2.9-3.4,1.3-.2,2.6-.3,3.9-.4h0ZM560.1,497.2c-5-2.5-9.9-4.9-14.5-7.2,4.8.1,8.9.5,12.6,1.6l1,.3,1,.2c3.5.7,6.7,1.5,9.5,2.4-1.2.2-2.4.4-3.5.7h0s0,0,0,0c-2.1.6-4.1,1.2-5.9,2h0ZM217.4,550.7c1.5-.9,3-1.9,4.5-2.8-1.7,2-3.4,4-5.1,5.9.3-1.1.4-2.1.6-3.1h0Z"/>
  </g>
  <g>
    <path class="st1" d="M456.7,215.2c-3.3,0-6.4-.7-8.9-1.3l-5.6-1.4-1.6-5.5c-1.4-4.7-1.8-9.2-2.2-13.2-.2-2.5-.5-4.8-.9-7l-1.1-6,3.6-2.8c-.3-1.1-.7-2.2-1.1-3.4-.4-1.2-.9-2.5-1.3-3.9h0c-1.3-4.6-3.8-9.3-6.5-13.9h-.3l-2.9-4.9c-1.4-2.4-3.3-4.7-5.3-7.1-.2-.2-.3-.4-.5-.6-2.4-.1-4.6-.9-6.5-2.3-4-2.5-7.3-5.8-10.2-8.7-1.5-1.5-2.9-2.8-4.2-4-8.1-4.2-16.8-7.1-25.9-8.7h-.2s-.2,0-.2,0c-4-.9-8.2-1.3-12.4-1.3s-10.2.6-15.4,1.8h-.5c0,.1-.5.2-.5.2-2.9.4-5.7,1.5-9.1,2.8-1.5.6-3.1,1.2-4.7,1.7-5.7,2.1-11.4,5.3-17.4,9.7-4.9,3.6-9.6,8.6-14,13.4-1.4,1.5-2.8,3-4.1,4.4l-1.1,1.1-1.3.7c-1.7,1-3.5,1.7-5.1,2.5-1.7.8-3.3,1.5-4.5,2.2-.9,1.1-2,2.5-3.4,3.8l-18.6,17.1,1.8-25.2c.3-4,1.8-7.4,2.9-9.9.1-.3.3-.6.4-.9l.4-.9.6-.8c1.2-1.6,2.3-3.3,3.4-5.1,3-4.7,6.1-9.5,11-13.9,6.4-6.7,15.1-15,25.7-20.4,6.5-3.8,13.4-6.3,20-8.7l.7-.2h.2c10.1-3.2,20.7-4.9,31.6-4.9s12.8.6,19,1.7c9.8,1.4,20,4.6,31.1,9.7l1.6-2.6,8.3,4.6c3.2,1.8,6,3.8,8.7,5.8.7.5,1.3.9,2,1.4h.2c0,.1.2.3.2.3.4.3.9.7,1.3,1,3,2.3,7.2,5.4,9.5,11l1.8,4.4c1,1.2,1.9,2.5,2.8,3.9.6.9,1.2,1.8,1.8,2.7,3.8,5.6,7.8,11.3,10.6,18.3,3.4,6.8,5.8,13.7,7.3,21.1l.7.9c4.4,5.3,5.2,12.1,5.8,17.1.1,1,.2,1.9.3,2.7,1,5.4-.4,9.8-2.1,13.6l-1.2,2.8-2.6,1.7c-3.5,2.3-7.5,3.4-11.9,3.4h0Z"/>
    <path class="st27" d="M361.3,99.8c5.9,0,11.7.5,17.4,1.6,10.2,1.4,19.8,4.8,29.1,9.1,2.4,1.1,4.7,3.2,7.3,3.7.5-.8.9-1.5,1.4-2.3,3.4,1.9,6.6,4.3,9.8,6.6,3,2.4,6.2,4.2,7.7,7.9-.4.6-.8,1.1-1.2,1.7,2.4,2.7,4.8,5.3,6.8,8.3,4.3,6.4,8.8,12.3,11.6,19.5,3.8,7.5,6.2,15.3,7.5,23.6-1.6,1.3-4.9.5-5.6,2.4,2.6-.3,5.1-1,7.5-1.8,3.2,3.9,3.2,10.4,4,15.1.6,2.9-.3,5.4-1.4,8-2.1,1.4-4.3,1.8-6.5,1.8s-4.3-.4-6.5-1c-1.9-6.4-1.6-12.7-2.8-19.2,1.7-1.3,3.3-2.2,4.4-4l-1.1-.7c-.5-4.4-2.3-8.3-3.6-12.5-2.2-7.3-6.5-14.3-10.5-20.9h0s-.3,0-.3,0c-2.8-4.7-6.6-8.6-9.9-13,.6-.5,1.2-1,1.8-1.5-1.7.2-3.9,2-5.6,2s-1-.2-1.4-.5c-5.4-3.3-9.7-8.9-14.6-12.8-9.3-5-19.3-8.4-29.8-10.2-4.8-1-9.6-1.5-14.5-1.5s-11.8.7-17.7,2.1c-5.7.8-10.6,3.2-15.8,5-7.2,2.6-13.8,6.5-20,11-7.3,5.4-13.5,12.7-19.5,19-3.8,2.1-8.3,3.5-11.8,6.1-1,1.3-2,2.6-3.2,3.8.2-2.6,1.5-5.2,2.5-7.5,4.4-6.2,7.5-12.6,13.2-17.6,6.9-7.2,14.7-14.3,23.6-18.8,5.9-3.5,12.5-5.8,19-8.2,9.2-2.9,18.9-4.3,28.6-4.3M361.3,79.8s0,0,0,0c-11.8,0-23.5,1.8-34.5,5.2h-.4c0,.1-.4.3-.4.3l-.5.2c-6.6,2.4-14.1,5.1-21.4,9.3-11.6,6-20.9,14.8-27.8,22-5.7,5.2-9.3,10.7-12.4,15.7-1.1,1.7-2.1,3.3-3.1,4.7l-1.2,1.7-.8,1.9c-.1.3-.3.6-.4.8-1.4,3-3.4,7.5-3.8,13.3l-3.6,50.4,37.1-34.3c1.2-1.1,2.2-2.2,3.1-3.2.7-.3,1.5-.7,2.1-1,1.8-.8,3.7-1.7,5.8-2.8l2.7-1.5,2.1-2.2c1.4-1.5,2.9-3,4.2-4.5,4.3-4.7,8.4-9.1,12.6-12.2,5.2-3.8,10.1-6.6,14.9-8.3,1.8-.6,3.5-1.3,4.9-1.8,2.7-1.1,5.1-2,6.8-2.2h.9c0-.1.9-.3.9-.3,4.5-1,8.9-1.6,13.2-1.6s7,.4,10.3,1.1h.4c0,0,.4.1.4.1,7.7,1.3,15,3.7,21.9,7.1.9.8,1.9,1.8,2.9,2.8,3.1,3,6.8,6.7,11.6,9.8,2.1,1.5,4.3,2.5,6.7,3.2,1.1,1.3,2,2.6,2.7,3.7l5.8,9.7h0c1.2,2.3,2.2,4.5,2.8,6.6h0c0,.1,0,.3,0,.3,0,.3.2.5.2.8l-2.8,2.2,2.3,12c.3,1.8.5,3.8.7,6.1.4,4.2.9,9.5,2.6,15.1l3.2,11,11.1,2.8c3,.7,6.9,1.6,11.3,1.6,6.3,0,12.1-1.7,17.3-5l5.2-3.3,2.4-5.7c1.3-3.1,4.4-10.2,2.8-19.2,0-.6-.2-1.4-.3-2.2-.6-5.6-1.6-13.9-7.2-21.3-1.7-7.2-4.2-14.1-7.5-20.8-3.2-7.8-7.6-14.2-11.5-19.8-.6-.9-1.2-1.7-1.8-2.6-.8-1.2-1.6-2.3-2.4-3.4l-1.3-3.1c-3.4-8.2-9.2-12.6-12.7-15.2-.4-.3-.8-.6-1.2-.9l-.4-.3-.4-.3c-.6-.4-1.3-.9-1.9-1.4-2.8-2-6-4.3-9.7-6.4l-16.6-9.2-2.1,3.4c-8.9-3.5-17.3-5.8-25.6-7-6.7-1.2-13.7-1.9-20.6-1.9h0Z"/>
  </g>
  <g>
    <path class="st0" d="M248.6,213.6c-1.5-3.4-1.8-6.6-2-8.9,0-.8-.1-1.5-.2-2.1h0c-1.7-12.3.8-24.9,7-35.7l.6-.9c2.6-4.3,5.4-8.8,10-12.8l.8-.7.9-.5c1.9-1.1,3.9-2.2,5.8-3.4,4.3-2.6,8.8-5.2,13.6-7.5,1.9-.9,3.7-1.5,5.2-2.1.6-.2,1.2-.4,1.7-.6.5-1.5,1.4-2.9,2.5-4.2,3.9-4.6,8.7-8,13.4-10.9,6.1-3.9,12.9-7.2,20.4-9.6,1-.3,1.9-.7,2.9-1.1,2.8-1.1,5.9-2.2,9.4-2.9l2.4-.4,2.3.7c2.2.7,3.9,1.7,5.1,2.4l5.8,3.4-.5,6.2c0,.2,0,.5,0,.7,0,1.1,0,2.7-.5,4.5l-1.4,5.6-5.5,1.6c-1,.3-2,.7-3.1,1.1l-15.2,7.9,12.5,3.8-26.2,10.1c-.2.3-.5.6-.7.9-.9,1.2-2.1,2.7-3.8,4.2-.5.5-.9.8-1.4,1.2v24.8l-14.9-18.7c-.8.4-1.7.7-2.4,1.1-1.5.7-3.1,1.4-4.8,2-5.6,2.4-9.9,7.4-13.5,15.6v.3c-1.1,2-1.5,4.5-2,7.4-.7,4.1-1.4,8.7-3.8,13.5l-1.1,2.2-1.8,40-17.2-38.4Z"/>
    <path class="st27" d="M342.2,119.6c1.2.4,2.3,1,3.4,1.7,0,1.2,0,2.4-.3,3.6-7.8,2.3-15.3,7.3-22.5,10.6-4.6,3-9.6,5.5-14.5,7.9h0c0,0,0,0,0,0-.9.4-1.6.6-2.4.6-1.2,0-2.4-.4-3.7-.6v2.8c3.3.4,6.3,1.2,9.4,2.2-2.9,1.1-4.3,4.8-6.9,6.8-1.2,1.5-3.8,1-4.5,2.8v1.9c-.4-.5-.7-1-1-1.5-4.9.3-10.2,3.5-14.8,5.2-9.3,3.9-15.1,11.9-19,20.9-3.2,6.7-2.2,14-5.6,20.7-.6-.6-1-1.2-1.5-1.9-.3,2.1-.5,4.1-.6,6.1-1.2-2.7-.9-5.5-1.4-8.5-1.4-10,.7-20.3,5.7-29.1,2.5-4.1,4.8-8,8.5-11.2,6.3-3.6,12.2-7.4,18.7-10.6,4.2-2,8.4-2.6,12.2-5.7,0-1.4-.8-2.4.4-3.6,3.1-3.8,7.3-6.6,11.3-9.1,5.7-3.7,11.9-6.5,18.2-8.6,3.6-1.2,7.2-2.9,10.8-3.6M343.4,99.1l-4.8.9c-4.4.8-8.2,2.2-11.2,3.4-.9.4-1.8.7-2.5.9-8.2,2.7-15.8,6.3-22.6,10.7-5.3,3.3-10.9,7.2-15.6,12.8-.7.7-1.3,1.6-2,2.6-1.2.5-2.5,1-3.9,1.6h0s0,0,0,0c-5.2,2.5-9.9,5.3-14.4,7.9-1.9,1.1-3.8,2.2-5.6,3.3l-1.8,1-1.5,1.3c-5.8,5-9.2,10.6-12,15.1l-.4.7v.2c-.1,0-.2.2-.2.2-7.4,12.7-10.3,27.6-8.3,42h0c0,.1,0,.3,0,.3,0,.2,0,.9.1,1.3.2,2.7.6,7.2,2.8,12.3l34.4,76.8,3.6-79.9v-.2c3.3-6.2,4.2-12.1,4.9-16.5.3-1.7.6-4,1-4.7v-.3c.1,0,.3-.3.3-.3,3.5-8,6.7-9.7,8.1-10.3.2,0,.3-.1.5-.2l28,34.9v-48.8c.8-.8,1.5-1.6,2.1-2.4l50.7-19.6-14.3-4.3,3.1-.9.8-3.3,27.2-14.2h-24.4c0-.1,0-.3,0-.4,0-.1,0-.2,0-.3l1-12.4-10.8-6.3-.3-.2c-1.5-.9-3.9-2.3-7.2-3.3l-4.6-1.4h0Z"/>
  </g>
  <g>
    <path class="st3" d="M323,355.6c-4.8,0-9.6-1.8-13.5-5.2-4-3.4-7.7-7.6-11-12.6-3.7-5.5-5.6-11.1-7.4-16.5l-.6-1.7h-5.8l1.3-5.7c-1.5-1.2-3.2-2.7-4.7-4.7-2.5-2.8-4.2-5.7-5.7-8.3-.7-1.2-1.3-2.3-2-3.3v-.2c-6.6-10.1-9.3-21-11.4-31.3-1.2-1.1-3.2-2.8-4.6-5.5-7.3-13.4-10.3-27.7-8.5-41.4v-.2s0-.2,0-.2c.5-2.7,1.2-5.2,1.8-7.5.6-2,1.1-3.8,1.4-5.5.4-2.7,1.4-4.8,2.2-6.4.2-.4.4-.9.5-1.1,1.3-4.1,3.2-9,7.4-13.2h.1c.4-.5,1-1.4,1.6-2.2.9-1.3,2.1-2.9,3.6-4.4h0s.7-2.4.7-2.4c0-.2.2-.8.2-1.2.6-3,1.8-9.1,7.5-12.4h.2c.7-.6,1.3-1,1.9-1.5v-.6c.1,0,3.3-2,3.3-2l5.8-4.6.4.5c1.1-.6,2.3-1.2,3.6-1.8l11.5-4.6h0c0,0,17.3-8,17.3-8l-12.5,25.4c-1.3,2.7-2.7,5.1-4.1,7.4-1,1.6-1.9,3.2-2.7,4.8l-.7,1.7c-.7,1.5-1.5,2.8-2.1,3.9-.5.9-1,1.7-1.1,2.2v.3c0,.6.3,1.6.5,2.4.4,1.7.9,3.7,1.1,6,1.8,10.7,1.5,22.1-.9,33,.6.7,1.3,1.5,1.9,2.2,2.6,3,5.3,6.1,7.6,9.7l.3.5.3.5c2.3,4.6,5.2,10.3,6.5,16.8.2,1.1.6,2.2,1,3.5.9,3,2.1,6.7,2,11.3v1.5s3.1,0,3.1,0l-3.2,6.5v1.4s-.7,0-.7,0l-1.6,3.2v1.5c0,2.6.2,5.3.3,8.2.1,1.8.2,3.7.3,5.5v.3s0,.3,0,.3c0,3,.8,6.3,1.9,9.9l.3-.8,9.3,2.6c.3,0,.6.1.9.2,2.6.5,7.4,1.5,10.6,5.7l1.5,1.9.4,2.4c1,5.7,1.6,10.4,1.7,14.5v.5s0,.5,0,.5c-.7,8.6-5.6,15.2-12.7,17.2-2,.7-4,1.1-6.2,1.1Z"/>
    <path class="st27" d="M298.7,161.2c-2.4,4.8-5.5,9.1-7.7,13.9v.2c-1.2,2.7-3,4.7-3.8,7.7-1.3,3.9,1.1,8.1,1.3,12.2,1.8,10,1.4,20.3-.8,30.1-.4,1.9-.6,4.3.5,6,3.5,4.3,7.5,8.4,10.6,13,2.3,4.5,4.6,9.3,5.7,14.3.9,4.4,2.8,8,2.7,12.5-.1,0-.2,0-.3,0-1.7,0-3-.7-4.4-1.6.2-.5.5-.9.7-1.4-2.2-.3-4-1.6-4.8-3.6-2.3-5.1-4.4-10.6-7.3-15.5-2.4-4-5.7-6.8-9-10,.2-.4.3-.7.4-1-1.5-.7-2.5-1.9-4.1-2.5.7.7,1.4,1.4,2.1,2.1-.3,3.3,2.7,4.9,2.4,8.4-.8,5.5-3.8,12-2.3,17.5,1.1,4.9,2.4,9.8,4.1,14.5,2.4,6.1,6.5,12.1,9.8,17.6,1,.6,2.1,1,3.1,1.6-.5-5.3,0-10.7.2-16,2.2.8,4.1,1.6,6.5,1.6-.3.6-.6,1.2-.8,1.8l1.5.8c0,4.7.5,9.4.7,14.1,0,7.3,2.9,14.5,5.1,21.4,2.7,4.9,5.8,10.6,10.4,13.9.8,1.1.8,2.2,2.3,2.5-.2-5.7-.8-10.9.9-16.4,2,.6,5.1.8,6.4,2.4.8,4.1,1.4,8.8,1.5,12.9-.3,3.5-2,7.6-5.7,8.5-1,.4-2.1.6-3.1.6-2.6,0-5.1-1.1-7-2.8-3.6-3-6.6-6.7-9.1-10.6-3.3-4.9-4.9-10.2-6.8-15.7-.7-2.3-1.4-4.5-.9-7h-1.8c.8-3.7,1.7-7.1,1-10.7,0,2.4,0,4.8-.6,7.3-.8.2-1.7.3-2.5.4,0,.8.3,1.8.5,2.6-2.1-2.3-4.8-3.8-6.7-6.3-3-3.3-4.6-7.1-7.1-10.7-5.7-9-8.1-18.9-10.2-29.3-.8-3.5-3.9-4.1-5.4-6.9-5.9-10.8-8.9-23-7.3-35.3.8-4.5,2.5-8.7,3.2-13.2.3-2,1.6-3.8,2.3-5.7,1.1-3.5,2.4-6.7,5-9.3,2.6-2.5,4.1-6.1,7.1-7.9.4-.1.7-.2,1-.2.5,0,1,.2,1.4.6l-1.7,1.4c1,1.8,2.2,3.5,2.2,5.7.4,0,.8-.3,1.5-.4.2,1.5.3,3,.5,4.5.4-3.4-.8-6.4-1-9.8-.8-2.4-1.9-4.6-2.4-7.1.8-2.5.8-6.6,3.4-7.9,1.5-1,2.9-2,4.3-3.1.4.5.8.9,1.2,1.4,0-.9,0-1.8.3-2.6,2.5-1.6,4.9-3.7,7.7-4.8,0,.6.3,1,.4,1.6.8-1.4,1.9-1.8,3.3-2.4M272.6,257.3c.6-2.1.8-4.2.9-6.4.4-5.4,3-10.6,3.5-16-.9-2.6-3.9-4.8-5.8-6.6-.5-2.6-.5-5.1-.2-7.7,1-1.3,2.2-2.4,3.2-3.8,2.2,2.4,4.6,4,5.1,7.4h0s-.3,0-.3,0c1.7,1.5,3.6,2.8,5.5,4.1-.8-1.4-1.8-2.6-2.9-3.9-1.9-9.4,1.7-18.2-1.2-26.9-.2-.8-.7-1.2-1.4-1.4-3.9,5.9-8.1,10.6-10,17.6-1.4,7-2.8,13.6-1.9,20.7.9,5.6,3.4,11.2,5.6,16.4.6,2.1,0,4.4,0,6.5M341.6,119.2l-41.5,19.4-9.4,3.7-1.8-2.3-13.1,10.5-6.2,3.9-.2.8c-8.1,5.7-9.8,14.5-10.5,18,0,.1,0,.3,0,.4-1.1,1.3-2,2.6-2.8,3.6-.2.3-.6.8-.7,1-5.4,5.4-7.9,11.2-9.7,16.7,0,.1-.1.2-.2.3-.9,1.9-2.4,5-3.1,9.3h0c-.1,1-.6,2.6-1.1,4.2-.7,2.4-1.5,5.3-2.1,8.6v.4c0,0-.1.4-.1.4-2.1,15.8,1.3,32.2,9.6,47.4,1.3,2.5,2.9,4.4,4.3,5.8,2.2,10.3,5.3,21,12,31.5v.2c.1,0,.2.2.2.2.5.8,1.1,1.7,1.7,2.8,1.6,2.8,3.6,6.1,6.6,9.6.5.6.9,1.1,1.4,1.6l-2.9,12.4h11.2c1.6,4.4,3.6,9,6.8,13.8,3.8,5.8,8.1,10.7,12.8,14.7,5,4.2,11,6.8,17.2,7.4l11.2,12.2-2.8-12.6c1.2-.2,2.4-.6,3.6-1,11-3.2,18.6-13.2,19.6-25.9v-1c0,0,0-1,0-1-.1-4.6-.7-9.9-1.8-16l-.9-4.8-3-3.9c-5.5-7.1-13.2-8.7-16.5-9.4-.1,0-.3,0-.4,0l-3.9-1.1c0-.3,0-.6,0-.8v-.5s0-.5,0-.5c0-2-.2-3.9-.3-5.7,0-.9-.1-1.8-.2-2.7h1.9c0,0,.2-8.5.2-8.5l9.5-19h-10.1c-.5-2.2-1-4.1-1.5-5.7-.3-1.1-.6-2-.7-2.6-1.6-7.7-4.9-14.3-7.3-19.1l-.5-1-.6-1c-2.3-3.5-4.8-6.5-7.2-9.3,1.8-10.5,1.8-21.2.1-31.4-.2-2.2-.6-4.1-1-5.7l2.4-2-.9-.8c.1-.3.2-.5.4-.8l.6-1.4c.7-1.3,1.5-2.6,2.3-4.1,1.4-2.4,3-5.1,4.5-8.1l24.9-50.9h0Z"/>
  </g>
  <g>
    <path class="st8" d="M416.7,309.1c-4.3,0-8.4-1.2-12.1-3.6l-.4-.3-.4-.3c-9-7.1-12.8-17.3-10-26.8,2.7-9.5,11.7-16.6,22-17.2.1,0,.2,0,.4,0,4.8-4.1,9.2-9.7,13.4-15.1h.1c3.8-5.9,7.1-12.7,9.8-20.4,1.4-4,2.3-8.2,3.2-12.6.3-1.4.6-2.9.9-4.3l-1.4-4.3,3.9-4.3c1.9-2.1,5.2-4.6,10.4-4.6s1.4,0,1.9,0c.2,0,.4,0,.6,0h4.9s3,3.9,3,3.9c0,.1.2.2.3.3,1.3,1.5,4.2,5.1,3.7,10.5-1.4,22.8-10.8,45.5-26.3,63.9-1.4,2-2.8,3.4-4,4.6-.2.2-.4.4-.6.6.7,2.8,1.1,6.3,0,9.9-1.3,4.7-3.5,10.6-9,15l-.3.2-.3.2c-4.1,2.8-8.8,4.3-13.5,4.3Z"/>
    <path class="st27" d="M456.4,205.4c.8,0,1.6.1,2.5.1.9,1.2,2.2,2.3,2,4-1.3,21.4-10.5,42.3-24.3,58.6-2.6,3.9-6.3,5.6-7.4,10.1.8,2.5,2,5.7,1.1,8.4-1,3.9-2.4,7.4-5.7,10-2.4,1.6-5.1,2.6-7.9,2.6s-4.6-.6-6.7-2c-4.8-3.8-8.5-9.9-6.6-16.1,1.6-5.8,7.3-9.7,13.2-10,1.6-.2,2.9.2,4.2-.9l-.2.2c6.6-5.1,12.1-12.2,17.1-18.7,4.6-7,8.3-14.8,11.1-22.7,2.4-6.9,3.4-13.8,5.1-20.7,0-.5-.3-.9-.5-1.5.9-1,1.9-1.2,2.9-1.2M416.6,290.4c3.1,0,6.2-3.6,5.6-6.6.1-2.7-2.1-3.7-4.3-3.7-.9,0-1.9.2-2.7.5-4.6,1.1-4.4,7.1-.8,9.1.7.5,1.4.7,2.2.7M420.8,270.1s0,0,0,0h0s0,0,0,0M456.4,185.4h0c-6.9,0-13.3,2.8-17.8,7.9l-7.7,8.6,2.4,7.2c-.1.6-.2,1.2-.4,1.7-.9,4.3-1.7,7.9-2.8,11.3-2.4,6.7-5.3,12.7-8.5,17.8-3.2,4.1-6.4,8.2-9.7,11.5-5.5.9-10.7,3-15.3,6.4-6,4.4-10.4,10.7-12.3,17.6-3.9,13.3,1.4,27.9,13.5,37.4l.8.6.8.5c5.3,3.4,11.3,5.2,17.5,5.2s13.4-2.1,19.2-6l.6-.4.6-.5c7.9-6.2,10.9-14.4,12.4-20.1,1-3.4,1.2-6.5,1-9.4.6-.7,1.2-1.5,1.9-2.4,16.8-20,26.8-44.6,28.4-69.3.5-6.3-1.5-12.2-6-17.7h-.1c0-.1-5.9-7.8-5.9-7.8h-9.7c-.6,0-1.5-.1-2.6-.1h0Z"/>
  </g>
  <g>
    <path class="st7" d="M333.7,318.8c-3.5,0-6.3-.9-8.5-1.6-.7-.2-1.4-.5-2.1-.6l-3.2-.8-2.4-2.9c-2-2.4-4.5-5.4-6.2-9.6-1-2.5-3.6-5.5-5.9-8.2l-.5-.6c-2.1-2.3-4.2-3.8-6.4-4.4l-2.9-.8-2-2.2c-.3-.3-1.1-1.2-1.5-1.5h-.1c-.5-.3-1.1-.5-1.8-.7-2-.7-4.7-1.7-7.3-3.4h-.4l-1.5-1.5c-.4-.3-.7-.7-1.1-1l-.4-.4c-.9-.9-1.6-1.9-2.2-2.9-1-1.1-1.9-2.5-2.4-4.1-1.5-4.1-1.8-11.7,3.4-16l3.7-3.1,4.7,1c6.4,1.3,12.8,4.2,17.9,8,.4.2,1.6.6,2.4.8,1.7.5,3.8,1.2,5.8,2.3h.2c0,.1.2.3.2.3,6.9,4.2,12.8,9.5,17.7,15.8l.3.4.7,1.2c4.3,7.2,8.8,14.6,11.7,23.4l4.1,12.3-13,.8c-.4,0-.8,0-1.2,0Z"/>
    <path class="st27" d="M284.7,263.2c5,1,10.1,3.3,14.1,6.4,2.6,1.9,6.5,2.3,9.3,3.8,5.7,3.5,10.8,8,15,13.4,4.3,7.2,8.6,14,11.2,22-.2,0-.4,0-.6,0-2.9,0-5.3-1.2-8.2-1.9-1.9-2.3-3.8-4.4-4.9-7.3-1.7-4.3-5.2-8.2-8.2-11.7-3-3.4-6.8-6.2-11.3-7.4-1.5-1.7-3-3.3-5.2-4.1-3.1-1.3-7-2-9.2-4.9h0c-1.3-1.3-.5-3.7-.5-5.4-.2,1-.4,2.2-.6,3.2-1.9,0-2-5.2-.8-6.1M279.3,241.6l-7.4,6.2c-8.6,7.1-9.3,19-6.4,27.1.9,2.4,2.1,4.6,3.6,6.5.9,1.5,2,2.9,3.3,4.3l5.9,5.9h1.8c2.4,1.3,4.7,2.1,6.4,2.7l3.6,4.1,5.7,1.5c.2,0,.8.5,1.6,1.4l.5.5c1.4,1.6,3.6,4.2,4.1,5.3h0s0,0,0,0c2.2,5.6,5.5,9.5,7.8,12.3l.3.4,4.2,5.1,6.4,1.6c.3,0,.9.2,1.4.4,2.6.8,6.5,2,11.5,2s1.2,0,1.8,0l26-1.5-8.1-24.7c-3.3-9.9-8-17.8-12.7-25.4l-.4-.7-.6-1-.7-.9c-5.6-7.3-12.5-13.5-20.4-18.3l-.5-.3-.5-.3c-2.9-1.5-5.6-2.4-7.6-3-.2,0-.4-.1-.6-.2-6-4.3-13.3-7.4-20.6-8.9l-9.5-2h0Z"/>
  </g>
  <g>
    <path class="st4" d="M484.2,441.4c-.5,0-1.1,0-1.6,0h-.3s-.6,0-.6,0h-.5c-.5-.1-1-.2-1.5-.2-3.2-.3-8.1-.7-12.8-4.3h-.1c-4.2-3.5-7.6-8.8-9.2-14.7l-.2-.6v-.6c-1.1-7.3,1.1-17.1,8.5-22.8l.2-.2.2-.2c6.2-4.4,13.8-6.7,22.5-7h.3s1.2,0,1.6,0c4.2,0,9.3.1,14.7,2.8,4.2-1.7,9.1-3.2,14.5-3.6,1.6-.2,3.2-.4,5-.4,3.9,0,7.4.6,10.8,1.2.7.1,1.4.2,2.1.4h.2c5.9,1.1,10.6,4.1,14.3,6.5.9.6,1.8,1.2,2.7,1.7l16.6,9.9-17.6,7.8c-.3.2-1.1.6-1.7,1-2.3,1.4-5.5,3.3-9.5,3.7l-2,.2-2-.6c-5-1.5-10.2-3.1-14.9-3.1s-2.1,0-3.1.2c-2.8.6-5.7,2.8-9,5.4-2,1.6-4.1,3.2-6.5,4.7-4,4.1-8.9,8.5-15.4,11.5h-.2c0,0-.2.2-.2.2-1.7.7-3.4,1-5.4,1Z"/>
    <path class="st27" d="M524.9,399.6c3.8,0,7.5.8,11.3,1.4,5.2.9,9.3,4.3,13.8,7-2.5,1.1-5.5,3.6-8.2,3.9-5.7-1.8-11.8-3.5-17.9-3.5s-3.3.1-4.9.4c-7.9,1.5-13.3,8.2-20,12.2-4,4.1-8,7.8-13.3,10.3-.5.2-1,.3-1.5.3s-1.2,0-1.9,0c-3.4-.4-6.4-.2-9.3-2.4-2.8-2.3-4.8-5.9-5.7-9.4-.7-4.7.9-10.6,4.8-13.6,5-3.5,10.9-5,17.1-5.2,4.2,0,8.2,0,12.1,1.9-2.9,3.3-6.8,5-11.1,5.5-4,1.2-9.1,1.8-12.2,4.7h0c-2.5,1.8-.7,4.5-3.3,6.4.7-.4,1.3-.8,2.1-1.1.8.9,1.4,1.8,2.1,2.7,1.6,0,3.3-.2,4.8-.6,6.5-4.1,12.2-8.9,18.3-13.7,6-3.5,12.3-6.2,19.4-6.7,1.3-.2,2.6-.3,3.8-.3M524.9,379.6c-2.1,0-4.1.1-6.1.4-4.8.4-9.3,1.5-13.3,2.8-5.7-1.9-11-2-14.7-2.1-.4,0-.9,0-1.3,0h-.5s-.5,0-.5,0c-10.6.3-20,3.3-27.9,8.8l-.4.3-.4.3c-9.2,7.2-14,19.8-12.3,32.1l.2,1.2.3,1.2c2.2,8,6.6,15.1,12.6,19.8h.1c0,0,.1.2.1.2,7.1,5.5,14.3,6.1,18.1,6.4.4,0,.8,0,1.2.1h1.1c0,.1.7.1.7.1.5,0,1.3,0,2.2,0,3.2,0,6.3-.6,9.2-1.8l.4-.2.4-.2c7.5-3.5,13.1-8.3,17.6-12.8,2.3-1.6,4.4-3.2,6.3-4.6,1.5-1.2,3.8-3,4.9-3.5.3,0,.7,0,1.1,0,3.3,0,7.7,1.3,12,2.6l3.9,1.2,4.1-.4c6.2-.6,10.8-3.4,13.6-5.1.3-.2.7-.4.9-.5l35.1-15.6-33.2-19.8c-.7-.4-1.6-1-2.4-1.5-4.3-2.7-10.1-6.5-18-7.9h-.2s-.2,0-.2,0c-.7-.1-1.4-.2-2.1-.3-3.6-.6-7.7-1.3-12.5-1.3h0Z"/>
  </g>
  <g>
    <polygon class="st6" points="604.6 432.9 604.6 420.4 615.3 414.4 625.9 420.4 625.9 432.1 615.9 439.3 604.6 432.9"/>
    <path class="st27" d="M615.3,425.9l.7.4v.8l-.7.5-.7-.4v-.8l.7-.4M615.3,402.8l-9.9,5.7-.7.4-10.1,5.8v24.1l10.1,5.8.7.4,11.1,6.4,10.4-7.4.7-.5,8.4-6v-22.7l-10.1-5.8-.7-.4-9.9-5.7h0Z"/>
  </g>
  <g>
    <path class="st5" d="M658,553.2c-4.2,0-7.1-1.9-8.7-2.9-.2-.1-.4-.3-.7-.4l-5.7-3.1.6-6.5c1.1-12.4,0-21.4-3.6-29.2-4.1-7.9-9.4-15.2-16-23.6l-.5-.7-.4-.7c-.7-1.4-1.7-2.8-2.7-4.4-1.4-2.1-2.9-4.5-4.2-7.1l-4.1-8.3,8-4.7c.5-.3,1-.6,1.4-.9.6-.4,1.3-.8,1.9-1.2l4.9-2.9,5,2.8c3.3,1.8,5.4,4.2,6.9,6,.7.8,1.3,1.5,1.7,1.8l.4.3.3.3c4.6,4,7.7,8.4,10.8,12.7.8,1.1,1.5,2.1,2.3,3.2,0,0,0,0,.1,0,1.4,1,4.2,3.1,5.5,7,1,2.6,2.2,5.3,3.4,8.1,1.1,2.4,2.2,4.9,3.2,7.5v.2c0,0,.2.2.2.2,3.3,9.2,4.3,20,3.1,32.2v.6c0,0-.2.5-.2.5,0,.2,0,.3,0,.5-.3,2.3-1,7.6-6.1,11l-.8.5-.9.4c-1.7.7-3.5,1.1-5.3,1.1h0Z"/>
    <path class="st27" d="M628.5,468.1c3.2,1.8,4.6,4.9,7.5,7.1,5,4.4,8.3,9.8,12.2,15,1.2,1.5,3.2,2.1,3.8,3.9,2.1,5.4,4.6,10.6,6.8,15.9,3.1,8.8,3.5,18.6,2.5,27.8-.4,1.7-.2,4.1-1.8,5.2-.6.2-1.1.3-1.5.3-1.7,0-3-1.2-4.6-2.1,1-11.9.5-23.6-4.6-34.5-4.7-9-10.7-17.2-17.1-25.3-2.1-3.9-4.8-7.3-6.7-11.1,1.1-.7,2.3-1.4,3.4-2.1M628.3,445.1l-9.9,5.8c-.8.5-1.6.9-2.2,1.4-.4.2-.8.5-1.2.7l-16,9.4,8.1,16.7c1.6,3.2,3.3,5.8,4.8,8.2.9,1.3,1.7,2.6,2.2,3.6l.8,1.5,1,1.3c6.2,7.9,11.1,14.7,14.9,21.9,2.7,6.1,3.6,13.5,2.7,23.9l-1.1,13,11.3,6.2c0,0,.2,0,.2.1,2.1,1.3,7,4.5,14.1,4.5s6.1-.6,9.1-1.8l1.7-.7,1.6-1c6-3.9,9.5-10,10.6-18.1h0s.1-.7.1-.7v-1.2c1.5-13.6.3-25.9-3.5-36.5v-.4c-.1,0-.3-.4-.3-.4-1.1-2.7-2.3-5.3-3.4-7.8-1.2-2.6-2.3-5.1-3.2-7.5-2-5.6-5.6-9-7.8-10.7-.5-.6-.9-1.3-1.4-1.9-3.2-4.5-6.9-9.5-12.3-14.3l-.7-.6-.2-.2c-.2-.2-.4-.4-.6-.7-1.8-2-4.8-5.5-9.6-8.1l-10-5.6h0Z"/>
  </g>
  <g>
    <rect class="st2" x="330.5" y="509.5" width="20.6" height="20.6"/>
    <path class="st27" d="M341,519.5v.6h-.6v-.6h.6M361,499.5h-40.6v40.6h40.6v-40.6h0Z"/>
  </g>
  <g>
    <polygon class="st15" points="302.4 526.6 307.9 516.9 320.6 515.3 326.6 527.2 321 536.8 308.3 538.4 302.4 526.6"/>
    <path class="st27" d="M314.8,526.1l.4.8-.4.7h-.8c0,0-.4-.7-.4-.7l.4-.7h.8M326.4,504.5l-14,1.8h-.8c0,0-9.9,1.3-9.9,1.3l-5,8.7-.4.7-5.3,9.3,4.8,9.6.4.8,6.3,12.7,14-1.8h.8c0,0,9.9-1.3,9.9-1.3l5-8.7.4-.7,5.3-9.3-4.8-9.6-.4-.8-6.3-12.7h0Z"/>
  </g>
  <g>
    <polygon class="st14" points="268.9 597.1 289.2 593.8 292.5 614 272.2 617.4 268.9 597.1"/>
    <path class="st27" d="M280.9,605.3v.6c0,0-.5,0-.5,0v-.6c0,0,.5,0,.5,0M297.4,582.2l-19.7,3.3h-.6c0,0-19.7,3.4-19.7,3.4l3.3,19.7v.6c0,0,3.4,19.7,3.4,19.7l19.7-3.3h.6c0,0,19.7-3.4,19.7-3.4l-3.3-19.7v-.6c0,0-3.4-19.7-3.4-19.7h0Z"/>
  </g>
  <g>
    <path class="st11" d="M183.6,643c-1,0-2,0-3-.1-.7,0-1.4,0-2,0-5.5,0-11.7-.1-18-1.8-.8-.2-1.6-.4-2.4-.6-1.5-.4-2.9-.8-4.5-1.2h-.5l-1.6-.5c-9.6-3.1-17-8.8-23.6-14.5l-.2-.2-.2-.2c-3.5-3.4-5.7-7.8-6.3-12.7l-2.6-23.3,18.5,14.2c.3.2,1.1.4,1.6.6,1.6.6,3.8,1.4,5.9,2.8,1.9.6,3.6,1.4,5,2,.6.3,1.2.5,1.8.8,2,.8,4.1,1.5,6.4,2.2,1.6.5,3.3,1.1,5.1,1.7h.2c1.1.5,2.7.7,4.5.9,1.3.1,2.7.3,4.3.6,2.4.4,4.9.5,7.5.5s7.5-.3,12.1-1h.6c0,0,.6-.1.6-.1,2.1,0,4.3-.5,6.8-1l1.6-.3,13.3-2.6-1.5,13.5c-.3,2.7-.8,4.9-1.5,7.1l-.3,1-.5.9c-1.9,3.2-4.2,4.8-6.3,5.6-2.1,1.8-5.2,4-9.8,4.7l-1.4.2c-3.1.4-6.3.9-9.8.9Z"/>
    <path class="st27" d="M131.3,610.1c2.8,2.2,6.6,2.2,8.9,4.6,2.8.6,5.1,1.9,7.6,2.9,3.9,1.6,7.9,2.6,11.9,4.1,3.5,1.3,7.1,1.2,10.7,1.9,3.1.5,6.1.6,9.1.6,4.5,0,9-.4,13.6-1.1,3.5,0,6.7-.8,10.1-1.5-.2,1.7-.5,3.3-1,5-.5.8-.9,1.4-1.6,1.4s-.7-.1-1.1-.4c0,.4-.3.8-.3,1.1-1.8,1.5-3.4,3-5.9,3.4-3.3.4-6.5,1-9.7,1s-1.7,0-2.5-.1c-5.9,0-12.1,0-17.9-1.5-2.8-.8-5.7-1.4-8.4-2.3h0c0,0,0,0,0,0-7.8-2.5-14-7.3-20.2-12.5-1.9-1.8-2.9-4.1-3.2-6.6M106.3,565.6l5.2,46.6c.8,7.3,4,13.9,9.3,18.9l.4.3.4.3c7.4,6.3,15.7,12.7,27,16.4l3,1h.8c1.1.3,2.2.6,3.3.9.8.2,1.6.4,2.4.6,7.5,2,14.7,2.1,20.5,2.2.6,0,1.1,0,1.7,0,1.1,0,2.3.1,3.5.1,4.2,0,7.9-.5,11.2-1l1.2-.2h.1s.1,0,.1,0c6.3-.9,10.7-3.8,13.6-6,2.8-1.3,5.7-3.4,8.2-6.9l1.3-1.1v-.8c0-.2.2-.3.3-.5l1-1.8.7-2c.9-2.8,1.6-5.7,1.9-9.1l3-27-26.7,5.2c-.6.1-1.1.2-1.7.3-2.1.4-3.9.8-5.1.8h-1.2s-1.2.2-1.2.2c-4.2.6-7.6.9-10.7.9s-4-.1-5.9-.4c-1.8-.3-3.4-.5-4.7-.6-.8,0-1.9-.2-2.3-.3h-.1c-1.9-.7-3.7-1.3-5.4-1.8-2.1-.7-4-1.3-5.5-1.9h0s0,0,0,0c-.4-.2-.9-.4-1.4-.6-1.2-.6-2.8-1.3-4.7-2-2.7-1.7-5.3-2.6-6.9-3.2,0,0,0,0,0,0l-36.1-27.6h0Z"/>
  </g>
  <path class="st10" d="M669.5,420.8c-6.6-6.1-12.6-12.5-20.1-17.6-21.8-16-47.2-26.6-73.7-31.8-23.6-5.3-48.5-5.9-72.5-4.8-6-.2-12,.8-17.9,1.4-9.7.8-19.3,2.4-29.1,3-2.8-.5-5.1-1.9-7.2-3.9-7.1-6.7-14.1-13.6-20.3-21.1-4.1-3.9-7.3-8.4-10.8-12.7-14.5-18-28.7-36.4-41.5-55.5-2.4-3.1-2-6.3-2.1-10,.2-17.2,0-34.5-.6-51.7.3-.8.6-1.6.9-2.4,6.7-2.7,9.7-8.9,11-15.6.6-4.6-1.6-9.1-4.2-12.9-5.2-6.4-14.1-9.2-21.8-5.4-9.1,3.8-13,15.2-9.1,24,1.1,2.3,2.4,4.4,4.4,6,2.6,2.4,5.8,3.5,8.7,5.5.4.4.6.9.6,1.6.9,11.9.5,23.8.8,35.7.5,5.9,0,12,.6,17.9.3,2.9-.4,6.4.8,9,5.7,7.2,10.7,15,16.2,22.4,4.2,5.5,8.4,11.1,12.4,16.8,8.3,10.6,16.8,20.8,25.4,31.1,6.6,8.2,14.2,15.2,21.3,23.1,1,.9.8,2.5.9,3.9-5.6,0-10.5-1.7-14.8-5.2-11.8-10.2-21.7-21.5-31.5-33.6-9.9-11.8-18.5-24.3-27.4-36.6-15.7-23.9-31.8-45.6-44.2-71.7-5.5-12.2-8.1-25.4-5.7-38.8,1.9-7.7,4.5-16.3,9.5-22.6,3.7-4.5,7.3-9,12.2-12.2,6.2-3.9,13-6.7,20.3-7.5,9.1-2.1,19.1.4,27.5,4.1,5.2,2.2,8.8,6,12.8,9.8,3.4,3.6,5.9,8.3,8.1,12.6,4,8.4,5,17.5,4.1,26.7-1.4,7.5-4.1,14.4-7.9,21.1-3.4,1.6-7,1.6-10.2,3.9-5.9,3.2-9.7,9.8-9,16.5.5,10.4,12.2,18.6,22.1,15.5,5.3-2.1,10.1-5.1,11.9-10.8,2.1-4.7.2-8.5,0-13.1,5.7-5.7,8.9-13,11.5-20.5,3.5-10.7,3.7-22.3,1.3-33.4-2.1-11.6-7.6-21.8-14.9-30.9-4.3-5.2-9.1-9.8-14.9-13.5-5.5-4.2-11.7-6.6-18.1-8.9-8.6-2.8-17.4-2.6-26.3-2.2-9.1,2.3-17.9,4.6-25.9,9.8-7.6,5.5-14.6,11.8-20.3,19.4-4.8,6.9-9.7,14.7-12.1,22.8-5.9,20.8-3.9,43.4,5.2,63.1,3.6,9.3,8.6,18.3,13.9,26.7,4.5,7.8,10.4,14.8,15.3,22.4,3.2,5.2,7.3,9.8,10.6,14.9,3.1,4.7,6.4,9.2,9.8,13.7,5.6,7.4,10.8,15.2,16.8,22.3-1.8,3-4.7,5.5-7.5,7.5-4,2.6-7.6,5.7-11.6,8.3-5.7,4-10.6,8.1-17,11.1-1.2-3-4.1-6.4-4-9.7-.4-.4-.8-.8-1.2-1,2.4.8,5-1.5,7.2-2.4,7-3.2,12.9-10.7,12.6-18.7,0-8-4.6-15.1-11.2-19.4-7-4.1-14.3-7.5-22-10.2-3.1-1.3-5.7-2-9.1-2.3-1.5,3.6.2,6.3.9,9.8,3.4,1.5,7.1,1.9,10.4,3.5,4.3,2,8.4,2.1,11.9,5.3,4.1,3,8.5,6.5,10.2,11.5,1.3,4.5-2.4,9.3-5.7,12-4.7,3.9-11,4.5-15.7,8.1,1.3,3.5,3.4,6.5,4.5,10,1.8,5.1,3.4,10.3,5.4,15.4,2.6,8.4,4,17.4,4.5,26.2.3,4.1-.4,8.2-.8,12.2-1.6,11.5-3.9,22.8-6.8,34-1,3.6-2,7.1-3.6,10.5,4.2,4.1,11,6.1,16.4,8.4,4.6,2,9.3,3.2,14.3,2.1,4-.7,6.5-3.6,8.6-6.8,3.4-5.1,3.4-12,1-17.4-1-2-2.4-3.9-4.4-5-3.4-1.9-7.6-3.6-11.5-2.7-1.8,3.4-2.3,7.7-2.8,11.5,2.1-.5,4.1-1.4,6.3-1.9,2.8.6,5.6,1.6,5.8,5-.6,3.8-1.9,7.9-5.9,9.2-5.8-.8-12.3-3.2-17.4-6.1,1.8-8.9,4.6-17.6,6.2-26.7.8-4.7.8-9.2,3.1-13.6-.2,1.6-.8,2.8.6,4.1,2.3,1.6,4.8,2.7,7.1,4.4,3.7,2.6,8,4.4,12.1,6.6,3.1,1.5,6.7,4.1,10.2,4.3,2.1-.3,4.2-.4,6.3-.8-.2,2.4,2.3,4.1,2.9,6.3,1,3.3.8,6.9,1.3,10.3.2,4,1,8,.5,12-7.8,5.6-16,10.8-23.6,16.9-2.1,1.7-3.9,4-6.2,5.2-8.6-4.5-17.5-7.9-26.7-11-5.8-2.4-11.8-4.6-17.5-7.2,1.6-5.7,4.3-11,5.9-16.7,5.2-14.8,9.1-29.6,9.4-45.3-.8-7.5-1.6-14.9-4.1-22-6.8-24.9-20.4-46.3-35.3-67-7.1-11-14.9-22.2-20.7-34-8-15.3-14.6-31.7-18.2-48.5-1.1-7.5-2.7-14.9-2.8-22.5-1.2-18.5,1.6-37.7,9-54.7,3.6-10.3,9.2-19.9,15.7-28.5,7.3-8.9,15.3-17.6,24.4-24.5,6.1-4.1,12.3-8.5,19-11.4,7.8-4,16.1-7.4,24.7-9.3,12.4-3.7,25.6-4,38.5-2.4,22.2,1.6,43.2,11.4,60.5,25.2,8.5,8.2,16.6,16.1,22.8,26.3,3.5,4.9,6.2,10.2,8.9,15.5,4.2,8.8,6.3,17.8,8.4,27.2,1.6,10.3,1.5,20.5,1.1,30.9-.8,6-2,12.1-3.1,18-5.5,24-18.8,46.1-34.4,64.8-3.3,4-7.8,7.7-10.1,12.3,1.4,3.4,4.3,6.3,6.6,9.2,1.9,2.2,3.2,4.4,5.8,5.6.9-1.3,2-2.5,2.9-3.9.5.2.8.5,1.3.7,5.4-6,10.8-12.1,15.5-18.7,10.6-13.3,19.9-27.9,26.3-43.6,2.2-6,4.8-11.8,6.4-18,3.2-13.4,5.3-26.8,5.2-40.5-.5-12.8-2.2-25.5-5.9-37.9-2.6-9.7-7.1-19.1-11.7-28.1-2.4-4.1-5.1-8.2-7.5-12.2-17.7-26.5-46.6-44.2-77.1-52.2-7.8-1.2-15.7-3.1-23.6-3.7-9.1-.2-18.2-.4-27.3.7-11.6.8-23,4.1-33.8,8.2-5.9,2.5-12.2,5-17.7,8.7-12.2,7.3-23.6,16.5-33.5,26.8-8.9,9.7-16.1,20.6-22.4,32.2-3.2,5.7-5.1,11.9-7.6,17.8-3.5,9.4-5.6,19.4-7.2,29.3-3.3,26.5-.7,54,8.3,79.1,2.4,7.1,5.2,14,8.5,20.7,8.7,17.8,18.5,35,29.5,51.5,7.6,11.9,15.6,23.7,22.5,36,2.7,4.4,4.6,8.9,3.9,14.2-.5,4.4-2.6,8-3.9,12.2-3.5,11.4-7.8,22.5-11.6,33.8-3.7,10.4-7.3,20.8-11.5,31-1.9,5.2-3.7,10.4-6.1,15.3-1.7,3.9-3,8.2-5.2,11.9-1.2,1.5-3.1,2.6-4.7,3.8-18.8,13.2-38.3,24.2-57.4,36.8-1.3.9-2.7,1.6-4.2,2.3-5.9-7.2-18.3-7.5-25.2-1.4-4.6,3.8-6.7,10.6-6.3,16.4.6,5.7,4.1,11.6,9,14.6,3.2,2.4,7.9,2.6,11.8,2.6s7.3-2.5,10.4-5.1c2.7-2.2,4-6.1,4.9-9.4.8-2.9,0-5.6,0-8.5s1.4-1.8,2.2-2.4c13.5-8.7,27.2-16.5,40.5-25.5,7.7-5.1,15.4-10.4,22.9-15.6,1.2-.9,2.8-2,3.4-3.4,7.3-18.2,14.8-36.3,21.4-54.8,5.3-13.7,9.7-27.7,14.5-41.5,4.1,2,3.5,7.5,3.6,11.4-.9,10-3.3,19.5-6.1,29.1-3.9,11.9-7.7,23.6-12.9,35-5.2,12.5-10.3,24.9-17,36.6-9.3,17.2-19.4,34.9-31.7,50.2-8.5,10-16.4,19.2-27.9,25.7-3.1,1.6-6.2,3.3-9.5,4.6-10.6,3.6-22,4.2-32.8.8-17.2-5.3-31.3-20.8-33.3-38.9-1.5-10.7,1.8-22.1,8.7-30.5,8.8-11.8,22.9-18.7,37-21.5,2.5-.4,5.1-.8,7.5-1.6,4.6,2.5,8.7,5.1,14.1,5.2,5.4-.6,10.3-3.7,13.1-8.3,2.5-4.6,3.9-9.6,2.6-14.9-1.2-3.1-3-6.3-5.4-8.7-4.5-3.6-10.9-4.8-16.5-3.3-3.7,1.4-6.6,4-8.8,7.2-1.3,2.8-5,2.4-7.6,3.2-6.2.3-11,1.3-16.8,3.6-25.2,8.2-46,31.5-49.1,58.1-1.6,14.9,2.4,29.9,10.4,42.4,6.3,9.3,14.5,17.2,24.1,23,18.7,10.1,41.7,10.9,61.3,3.1,10.4-3.6,19.8-11,28.2-17.9,4.3-4.4,8.7-8.9,12.9-13.4,14.6-17.4,26.6-37.9,37.2-57.9,6.5-12.7,12.4-25.7,17.5-39,.5-1,.8-2.3,1.5-3.2,1.8,0,3.7.8,5.4,1.3,5.7,2.4,11.4,4.8,17.2,6.8,5.7,2.2,11.1,4.9,16.9,6.9,1.8.4,1.9,1.9,2.6,3.3-.5-.3-1-.7-1.5-.9-2.1,2.9-4.2,5.4-5.5,8.7-2.4-.7-3.8-2.4-5.9-3.5-5.7-3.1-11.2-5.7-17.9-4.5-3.9,1.4-8.5,3.3-10.9,6.9-4.6,6.4-5.7,13.5-6.5,21.2.4,2,.9,3.8.9,5.7.2,6.4,3,12.5,3.9,18.7,1.8,0,2.8-1.4,4.4-1.6.2.8,0,1.6-.8,2.3-2.3,2.2-4.1,4.6-6.6,6.4-3.8,2.7-7.3,5.8-10.7,9.1-1.3,2.5-3.5,4.9-4.1,7.7,1.3.4,2.8,1.4,4.1,1.1,3.8-2.8,8-4.6,11.8-7.4,3.6-1.8,5.3-5.5,8.9-7.1-1.8,3.5-3.3,6.6-7.1,8.2.7.7,1.2,1.4,1.7,2.1-.4,0-.8.3-1.1.5-.6-.4-1.1-.8-1.7-1.1-4.8,5.5-8.3,11.7-13.1,17.1-4,4.5-9,5.9-12.2,11-.4-.2-.8-.3-1.1-.5-5.8,1.6-10.7,4.8-16.7,5.7-.9.6-1.9,1.1-2.7,1.7-.6-1.7.2-3,.8-4.5,1.4-3,2.7-6.1,4.5-8.9,1.9-2.9,4.6-5.6,7-8.1,1.7-1.8,3.5-3.3,5.7-4.3-.2-1.6-.2-2.4.6-3.9,0-1.6,0-3.1,0-4.7.2,1.7.7,3.4.7,5.2-1.7,4.5-1.2,8.9-1.1,13.7,0,1.6.8,2.6,1.6,3.9-.5.8-.9,1.5-1.3,2.4,1.4-.4,2.8-.9,4.1-1.6-.2-.8-.4-1.6-.5-2.4,2.2-.2,3.6-1.4,5.4-2.5,0-5.2-1.2-9.8-.4-14.9,1.5-10.3,3.9-20.1,9.2-29,1.8-3,4.7-5,3.8-8.9l-1.3-.4v3.7c-.7-1.4-1.3-2.7-2-4.1h1.7c-.2-1.5-.4-3-.5-4.5-1.9,2.5-4.4,4.4-6.1,7.3-2.9,4.6-5.9,8.7-7.9,13.8-1.8,4.6-3.5,9.3-4.6,14-.3,2.1-1.9,2.3-3.3,3.4-5.3,4.5-10.6,8.9-14.8,14.4-5.2,6-7.7,13.3-10.3,20.7-3.3,5.8-3.3,13.5-4.1,20.1,3-.5,5.8-2,8.7-3.2,1.1-4.7,1.5-9.5,3.5-14,.3,1.4.9,2.3,2,2.5-.2.8-.4,1.7-.5,2.5,3.5.5,7-1.6,10.6-1.6-.4,2.7-2.6,3-4.1,4.9-1.9,2.6-4.2,4.5-6.6,6.6-5.7,3.7-11.8,5.7-18.3,7.3-2.9.6-6.4.2-9.4,1-3.4.9-6.4,3.6-9.3,5.7-1,.7-1.7,1.7-2.4,2.7,2.8-.9,4.7-.8,7.5-.2-1,1.9-2.5.9-4.2,1.1-.9.8-1.4,1.9-2.7,2.1-7.1.7-14.2,4.6-21.2,3.9-.7.5-1.3.9-1.9,1.4-.9-.2-1.9-.4-2.8-.7,3.6-1.9,7.4-2.3,10.6-5,10.4-7.1,18.5-17,28.9-23.8,2.8-1.9,5.9-2.7,8.9-4.3,1.9-1.8,3.3-4,3.9-6.4.4-1.7.9-2.8,2-4.2-12.2,2.7-22.4,10.2-32.9,16.6-2.6,2.7-4.4,6.1-7.4,8.6-4.5,3.7-8.7,7.6-13.8,9.9-4,1.8-8.3,3-12.5,4.1-11.5,1.4-23.2-2.5-33.4-7.4-5.2-3.3-10.7-6.1-15.5-10-8.8-8.2-18-17.5-23.4-28.4-7.4-12.5-11.7-26.9-13-41.4,0-6.9-.4-13.8.7-20.6,1.1-10.3,4.9-20.3,8.9-29.9,3.3-5.9,6.5-12.2,10.9-17.3,3.5-3.9,6.4-7.9,10.6-11.2,2.9-2.4,6.1-4.4,8.6-7.3,1.6.7,2.6,2,4.4.7,4.1-2.9,7.9-5.9,12.3-8.3,2-1.2,4.6-2,5.4-4.5,6.4-2.6,13.3-4.4,20.1-5.7,11-1.4,23.3-1.8,34,1.3,0,5.2,2.4,10,6.5,13.1,4.7,2.9,11.6,3.8,16.6.9,6.1-3.2,8.9-10.2,7.8-16.8-1.4-4.1-2.7-8.3-6.7-10.6-3.6-1.7-7.4-2.8-11.4-1.9-3.9.5-7.3,4-10.2,6.2-1.3-.6-2.5-1.1-3.9-1.3-10.7-1.7-21.5-2.2-32.2-.4-9.1,1.4-18.4,3-26.3,8-.8-.8-1.5-1.6-2.4-2.4-2.8,1-5.5,2.3-8,4-4.3,2.7-9.8,4.8-12.1,9.7-9.1,7.1-17.2,15.8-23.5,25.5-7.4,9.6-11.8,22.1-15.3,33.6-2.3,9.3-3.4,18.7-3,28.4-.3,17.2,4.1,34.1,12.1,49.4,7.5,15.3,19.6,28.5,33.4,38.2,8.9,6.4,18.7,11.2,29.3,13.9,9.3,2.4,18.4,4.4,28.2,4,7.5-.4,14.7-.6,22-2.4,5.6-1.8,11.1-3.5,16.8-4.8,2.3-.9,4-2.8,6.1-4-.4-.6-.8-1.1-1.4-1.6-2.5,2.2-5,1-7.9.5.7-1.3,1.8-2,3.2-2.3,3.8-.8,7.5-.4,11.2-.8,5.7-1,11.5-3.4,16.9-5.6,3-1.1,5.7-2.9,8.1-5,5.2-4.2,10.7-9,14.5-14.7s4.2-5.2,5.6-8.4c1-2.3,3.5-3.7,5-5.6,3.5-4,7.4-6.7,10.5-11,2.3-3.2,4.6-6.4,6.2-9.9.6-1.2,1.3-2.4,2.2-3.4.4-4.3,2.6-8.6,4.6-12.4,6.3-8.1,15.2-16.6,18.8-26.5,1.8-3.6,3.2-8.5,1.5-12.3-1-4.6-7.1-5.7-11-5.7-5.3-.8-9.2,3.8-9.6,8.7,2.4.2,1.9.6,2.6,2.5,2-.8,4-1.9,6-2.6,1.2-.4,2.2,1.4,3.1,2.1-.8,2.3-1.4,4.7-2.5,6.9-2.4,4.5-6,8.4-9.5,12.2-1,.2-2.4.6-3.5.3-.2-1.7,1.7-3.6,1.3-5.5-.8-8.4-4.2-18.1-1.7-26.3,1.3-3.2,4.1-5.9,6.8-8.1,3.8-2.7,10.2-.8,13.9,1,5.6,2.6,7.9,8.5,12.9,11.4,4-7.8,9-15.1,14.4-22,3.8-5.1,9.4-8.2,14.2-12.2,9.4-7.7,20.2-14.2,31.7-18.3,5.9-2.7,12.2-4.7,18.1-7.3,2.8-1.2,6.8-2,8.6-4.6.5-6-1.9-12.5-3.2-18.4-1-5.8-4.3-12.8-9.9-15.5-5.1-.8-9.8.2-14.7,1.6-2.3.7-5.3,1.4-7,3.1-.7,1.5,0,2.8.3,4.3,2.1,6.2,4,12.6,5.2,19.1.9.3,2,.5,3,.6,1.6-1.2,3.5-1.9,5.3-2.8.6-4.5-2.7-9.4-2.8-14.1,2-3.3,8.2-4.8,9.7-.5,2.6,5,4.6,10.6,5,16.4,0,.8-.5,1.3-1,1.6-5.4,2.8-11.1,4.6-16.8,6.9-3.5,1.3-6.6,3.9-10.5,3.5-2.2-7.4-.5-14.4-3.1-21.7-1.2-3-2.9-5.8-4.2-8.9-2-4.6-5.3-7.6-5.5-12.9,3.4-2,6.5-4.4,9.9-6.3,4-2.2,7.3-5.5,11.7-6.9,1.6-.4,2.9-.8,4.5-.2,4.1,1.8,7.6,4.4,11.9,5.9,3.8,1.4,7.3,3.5,11.1,4.8,1.7,4.2,3.7,8.3,5.1,12.7,2.2,7.3,4.1,14.9,5.3,22.4.8,4.2,2.1,8.1,2.3,12.4-7.3,2.1-14.4,4.2-21.5,7-8.7,2.9-16.9,7.6-25.2,11.9-7.7,4-14.2,9.4-20.9,14.9-2.8,2.5-5.7,5-8.1,8-4.6,6.1-9.5,12-13.4,18.7-4.1,7.4-8.8,14.6-12.8,22-3.6,6.7-8.1,12.7-11.6,19.5-4.9,8.7-10.8,16.8-16,25.3-11.6,16.4-23.9,31.6-38.9,44.9-5.9,4.4-11.7,9.2-17.8,13.4-9.7,5.7-19.2,11.1-30.1,14.4-5.3,1.6-10.7,3.5-16.2,4.3-16.4,2.4-32.9,2.4-49-1.6-29.2-6.9-55.7-25.6-71.7-51.1-8.1-11.6-13.7-25.1-17.1-38.7-4.4-16.2-4.7-32.6-2.8-49.2,2.2-11.7,4.8-24.4,10.3-35,4.6-11.1,11.8-21.3,19.7-30.3,5.9-5.7,10.8-11.6,17.5-16.2,9.8-8,21-13.6,32.6-18.5,8.4-3.1,16.8-5.7,25.7-6.9,7.6-1.4,15.8-1,23.6-.9,13.8.8,27.8,3.6,40.5,9,2.2.7,4.3,1.4,6.3,2.4,2.8-6.4,5.5-12.7,8.4-19-.3-1-2.1-1.3-3-1.7-11.1-4.3-22.3-6.8-33.9-9.1-11.6-1.7-23.6-2.7-35.3-1.5-3.6.8-7.3.5-10.8,1.2-3.9.8-7.9,1.1-11.8,2-13.7,3.4-26.8,8-39.2,15-15.1,8.8-28.8,20.2-39.9,33.6-3.7,3.8-6.4,8.1-9.2,12.4-9.1,12.4-14.9,26.5-19.4,41.1-6.2,20.4-7,42.1-4.3,63.2,4.8,27,15.6,52.9,33.5,73.9,3.8,4.3,7.8,8.5,11.9,12.5,8.3,7.8,17.5,13.9,27.2,19.9,3.9,2.2,7.5,4.4,11.7,6.1,8,3.4,16.3,7.1,24.8,8.7,9.6,2.5,19.4,3.9,29.3,3.8,6,.3,11.8-.8,17.8-1.2,19.6-2.3,38.8-9.1,56.1-18.7,8.7-4.5,16.3-10.5,24-16.5,6.6-6,13.2-11.9,19.3-18.3,5.2-5.8,10.5-11.6,15.2-17.9,5-7,10.1-13.8,15.2-20.7,12.9-19.7,25.2-40.2,37.7-60.1,3.3-6.1,6.2-12.1,10.9-17.3,6.1-1.4,12.4-2.3,18.7-3.2,18.8-3.5,37.8-6.1,56.5-10.2,7.6-1.2,15.1-3,22.6-4.5,5.9-1.6,12-2.3,17.9-3.9,4.8,3.1,10.5,5.2,15.5,7.7,5.1,3,10.7,4.7,15.8,7.6,9.4,4.3,18.4,10.2,28.2,13.7l.5.6c-.2,4.7-.3,8.9,2.4,13.1,4.1,7.3,12.6,11.2,20.7,8.4,6.2-2.8,11-8.5,11.4-15.5.6-5.7-1.9-11.2-6-15-4-3-8.9-5.7-14-4.3-3.5.9-7.6,2.5-9.6,5.8-3.5-1.2-6.4-3.3-9.7-4.9-17.3-8.7-35-17.3-52.6-25.6-2-.9-4.8-.2-6.9.2-7.3,1.7-14.8,3.2-22.1,4.7-4.9.6-9.6,1.7-14.4,2.7-11.2,2.4-22.4,4.1-33.6,6.4-8.4,1-16.9,2.4-25.2,3.7-1.6.4-3.2,0-4.8,0,.7-.9,1.2-1.9,2-2.6,14.9-11,32.5-17.6,50.4-22,5.7-1.6,11.7-2.5,17.4-4.1,8.7-1.9,17.5-2.8,26.2-4.6,10.4-1.9,20.6-3.3,31.3-3.6,6.6-.8,13.1-.6,19.8-.7,8.5.2,16.5,0,24.7,2.5,8.9,1.7,17.3,4.3,25.2,8.9,11.1,6.6,20.5,15.5,26.4,27.2,5,10.6,7.1,22.3,5.1,34-2.1,11.5-8.5,22.3-18,29.2-4.6,3.7-10.6,5.7-16.2,7.5-19.5,3.9-40.1-5-51.8-20.9-1.1-1.6-2.4-3.1-3.8-4.5.9-4.6,2.5-8.5,1.3-13.2-1.7-5.8-6.3-11.3-12.5-12.4-4-.5-7.6-.8-11.3,1-10.2,5.7-13,22.1-3.6,29.9,3.2,2.3,7,4.9,10.9,5.2,2.4,4.2,4.5,8.3,7.8,12,3.2,3.5,6.1,6.9,9.8,9.9,7,6,15.5,9.7,24,12.8,22.1,7.4,47.8.4,64.5-15.5,6.3-6.2,11.4-13.8,14.9-22,5.8-15.2,6.6-32,2.3-47.8-1.6-5.6-4.1-11-6.6-16.2-4.1-7-8.9-13.6-14.5-19.3-3.7-3.2-7.3-6.4-11.2-9.5-13-9-28-15.1-43.7-17.6-7.4-1.4-15.1-2.5-22.6-2.8-17.9-.2-36.1.8-53.7,4.1-8.8,1.3-17.3,2.5-25.9,4.9-3.4.8-6.7,1.8-10.3,2-.5-5.3-2.3-10.5-3.2-15.6-2.3-9.3-4-19.1-7.3-28.1,3.6-.6,7.2.2,10.7-.7,1,5.9,1.9,12.6,4.1,18.3,2.6,4.8,6.2,9.3,11.1,12,.6-.8.8-1.5.9-2.4.4,1,.8,2.1,1.1,3.1,2.7-.2,5.5.3,8.3.2,10,0,20.4-3.7,30.1-5.9,7.3-2.3,15.4-3.4,22.3-6.7,6.9,4,15,6,22.8,7.3,7.7,1.2,15.8.7,23.6.4,3.9-1.2,7.9-1.2,11.7-2.6,2.6-.6,5.4-.5,8-1.2,6.2-1.8,13.8-.5,20.1-.7.9,1,1.9,1.7,1.7,3.3.2,3.6-1.2,8.5.6,11.7.6-.4,1.2-.8,1.8-1,.7,1.3,1.2,1.7,2.6,2.3-2.3-.8-4.6-1.1-7-1.5-1.7-.5-3-1.8-4.8-2.4-6.1-2-11.8-4.9-17.8-7-2.1-.8-4.4-2.6-6.6-.9-1.6,1.5-3.6,3.1-4.6,5.1,11.9,5.1,23.8,11.2,36.5,15.1,5.7,2.2,11.4,4,17.1,6,4.8,1.6,8.7,4.6,13.4,6.5,0,.2.2.4.4.6.2-3.1-.4-6.6-2.1-9.2-2.4-2.4-5.7-3.9-8.6-5.5-4.3-2.2-8.8-4.5-13.4-5.7.3-3.7,0-7.3.2-11,.2-1.4-.8-2.7-1.3-4.1,2.4,0,4.1,1.7,6.2,2.7,9.3,5,16.1,13.6,19.9,23.4,1.4,5.7,2.1,11.8,2.7,17.5.5,3.1-.8,6.1,0,9.2,2.3,0,1.4-2.9,1.9-4.5-.5,3.3,1,5.9.8,9.1h1c0-.4-.2-.9-.3-1.4,1-.7,2.5-.7,2.8-2.1,1-2.9.9-6,2.2-8.9.8,3.4,2.5,6.2,3.9,9.4,2.6,6.2,4.2,12.7,5.5,19.3,1.1,4.5.6,9.5.8,14.1.4,9.9-2.3,20-5.6,29.2-2.1,7.7-6.1,14.9-10.4,21.6-1.9,3.1-4.4,5.5-7,8.2-1.8,1.9-4.1,2.7-5.9,4.5-2.4,2.4-4.5,5-6.7,7.4-1.7,2.1-4.1,2.6-5.2,5.4.5.4.9.8,1.4,1.1-3.3,1.2-6.1,4.1-9,6-7.7,5.6-17.1,9.1-26.2,11.4-16.2,4.7-34.2,3-50.1-2.2-2.4-.5-2.3-3-3-4.9-5.9-2-10.9-5.3-16.5-7.8-.9.9-2,1.9-3.1,2.7-3.3-2.6-6.9-4.9-10.3-7.4-15.2-11.9-29.6-28.2-35.4-46.8,3.3-2,4.7-5.1,6.5-8.3,2.9-8-1.1-18.6-9.6-21.2-7.2-3-15.8.4-19.3,7.2-5.1,8.6-.7,22,9.4,24.4,1.4.6,3.6.8,4.2,2.3,2.1,3.6,3.5,7.5,5.7,11.1,3.5,5.4,6.5,10.8,10.6,15.7,5.9,7.7,13.1,13.7,20.3,20.2,3.3,2.8,6.7,5.5,10.7,7.3,2.5,1.1,2.4,3.8,5.7,3.8-.8,1.5-.7,2.9-2.5,3.5,4.7,4,9.8,6,15.3,8.6,3,.7,4.4-1.3,6.7-2.8,13.9,5.8,28.9,7,43.8,6,14.4-2,29-6.4,41-14.8,3.6-2.3,6.9-4.8,9.2-8.4.8.6,1.3,1.1,1.9,1.8,1.6.3,3.1,1,4.7,1.3,1.1-.3,1.8-1.1,2.5-1.9,3.9-4.2,8-8.8,10.7-13.8,1.5-1.9-1.1-3.6.4-5.3,2.5-3.3,4.6-6.7,6.6-10.3,4.9-7.3,8.3-15.4,11.3-23.6,2.4-7.4,3.8-15.4,5-23,1.6-17.1-1.8-34.6-8.9-50.1-1.9-4.5-5.6-8.5-9.5-11.3-1.1-4.2-1.5-8.4-3.4-12.3-4.2-13.8-15.5-25.3-28.6-30.9-2.7-1.3-5.8-1.8-8.6-3-1.8-.8-3.2,0-4.8.8-.4-1.6-1.6-2.1-2.7-2.9h3.3c-2.5-3.3-6.6-5.4-9.8-7.9-4.8-4.1-11.1-6.4-17.1-8.1-4.5-.9-8.6-2.5-13.2-3-7-.7-14.1.2-20.7,2.4-2.4.8-4.6,1.5-6.6,3-4.6,3.2-10.7,4.9-14.9,8.6.8,1.9,4.1,2.7,5.7,3.7,4.7.7,9.2-3.3,14-4.1,2.2,2.9,5,4.7,7.8,6.8,2.7,2,5.8,3.8,9.1,4.4,3.6,0,7.8.4,11.1-1.4-2.6-2.5-6-3.7-8.9-5.9-3.4-2.7-6.5-5.4-10.6-6.8.5-1,.9-1.7,2.2-2,8.6-1.1,16.1,1,24.2,3.4,3.8,1,7,3.6,10.8,4.2,2.3,1,3.7,2.9,6.1,3.4,1.1.5,2.4.4,3,1.6-5.5-1-11.2,0-16.7.8-3.3.8-6.4,1.4-9.8,1.3-.9.5-1.9,1.3-2.9,1.3-3.9.2-7.4,1.3-11.3,1.5-4.3.3-8,1.7-12.3.4-5.1-1.4-11-2.7-15.4-5.8-4.9-3-10-5.6-14.6-9-2.8-2.2-5.7-4.1-8.8-5.8-1.2.8-2.4,1.5-3.7,2.2-.6,1-1,2.1-1.6,3,.8,1.9,1.4,3.6,3.2,4.6,3.5,2,6.3,4.8,9.5,7.2-3.3-.9-6.4-1.8-9.6-.2-7.9,2.3-16,4.5-24,6.2-6.1.8-11.8,2.3-17.9.8-5.5-.9-9.3-6.1-10.4-11.2-.8-3.9-2.2-8.3-1.8-12.2.9-2.4,1.8-4.7,1.7-7.4-4.7-.2-9.3,1.1-14.1.9-10.4-.5-20.4-3.3-29.5-8.3-14-7.9-24.6-18.9-35.3-30.6-2-2.7-5.8-2.4-8.7-1.7-4.8,1.6-9.4,4.3-13.6,7.3-3.6,2.9-6.7,6.3-7.7,10.9-1.5,4.6.5,9.5,2.6,13.7,1.7,2.4,3.9,4.3,6,6.2,3.3,2.7,8.9,2.1,12.6.5,2.4-2.2,5.2-5.1,5.7-8.4,0-2.6-.8-5.4-1.2-8-1.6,0-3.2-.2-4.8,0-2.7,1.2-3,5.5-5.2,7.2-4,1.7-7.8-3.2-7.3-6.8-.4-3.7,3.7-6.8,6.3-8.8,3.5-1.9,7.1-4.6,11.1-4.2,1.3,2.5,3.4,4.1,5.3,6.2,4.7,5.2,10.2,9.6,15.3,14.4-4.7,2.2-9.1,4.9-13.8,7.3-4.4,2.4-8,5.7-11.1,9.6-1.6,2.1-1.3,5.1-1.6,7.6-.2,2.1.4,4.7,1.8,6.3,1.4.9,2.2,1.5,2.7,3.1-3-2-6.6-2.6-9.6-4.4-3.9-1.8-7.2-4-10.6-6.6-4.4-2.8-9.8-6.9-12.3-11.5,0-5.5-1.3-10.6-1.5-16-.3-5.6-2.8-10.7-3.3-16.2,1.9-.2,3.6-.6,5.2-1.6,9.5-5.7,18.4-12.3,27.4-18.7,2.5-1.7,4.6-4,7.3-5.5,2.4,2.6,4.8,5.1,7.2,7.6,8.2,10.3,17.3,19.9,27.8,27.8,5.3,3.8,11.1,5.8,17,8.3,3.2,1,6.6,1.7,9.9,2.4,14.6,1,27.5-2.2,41.9-3.6,4.7-.3,9.4-1.1,14.1-1.4,7.3-.8,14.4-.7,21.7-1,6.9,0,13.8-.6,20.6,0,22,1.1,44.5,4.9,65,13.2,5.6,2,11.2,4.3,16.2,7.4,4.8,3,9.9,5.7,14.3,9.3,4.1,3.3,8.8,6.3,12.5,10.1,5.3,5.2,10.6,10.1,15.3,15.9,2.5,2.6,4.6,5.4,6.6,8.5,5.3,7.3,9.9,14.9,13.3,23.4,2.3,5.8,5.2,11.7,6.8,17.8,7,23.4,6.6,49.1.2,72.5-.8,3-2.2,5.9-3.2,8.9-2.2,7-6,13.5-9.5,19.9-8.8,14.8-20.9,27.6-35,37.5-16,10.6-34.9,17.9-54.2,18.8-11.1,1-22-.3-33-1.9-12.7-2.7-25-7.7-36.3-14-10.5-6.4-20.2-14.2-28.8-23-10.6-12-20.1-24.3-27.1-38.7-.8-1.9-1.2-3.7-2.9-5.1-6,2-12,4.1-18,6,5.6,17.1,16.6,32.9,28,46.5,5.3,5.8,10.3,11.6,16.4,16.6,8.2,7.1,17.1,13.2,26.5,18.7,18.7,10.7,40.5,17,62.1,17.6,7.3-.3,14.5,0,21.7-1.4,18.5-2.6,36.4-8.7,52.3-18.4,9.9-5.7,18.7-13.3,26.9-21.2,18-18.8,31.1-42.2,37-67.6,1.7-6.6,2.4-13.3,3.4-20,0-4.5.7-8.9.9-13.3.5-13.2-1.9-26.7-4.9-39.6-7.3-27.4-21.6-53-41.7-73.1l-.2.5h0ZM359.4,196.3c.7-3,2.2-5.7,5.4-6.7,6.5-2.4,13.3,5.8,9.8,11.9-1.4,1-2.9,2.4-4.6,2.8-4.7,1.7-11.1-2.9-10.6-8ZM406.7,249.3c-3.3.9-5.8,0-8.7-1.7-.7-1.4-1.4-2.8-1.8-4.3.3-2,1.2-4,2.3-5.6,3.7-4,11.1-3.4,13.3,1.9,1.4,4.4-1.7,7.4-5,9.7h0ZM180.1,553.1c-3.1.7-6.1-1.9-7.9-4.1-2.9-4.5-.3-11.4,5.2-12.4,1.9-.4,3.8-.3,5.5.8,2.4,1.7,5.1,3.2,5.1,6.5,1,4.7-3.7,8.5-7.8,9.3h0ZM197.5,479.2c4.8-3.3,11.1.8,11.1,6.2.8,3.2-1.6,5.1-4,6.7-4,2.4-9.3-1.5-10.8-5.2-.3-3.2.8-5.9,3.7-7.7ZM279,591.9v.6h-.5v-.6h.5ZM224.8,445.3c3.1-.9,5.2.4,7.7,1.8.4,1.9,1.1,3.5.5,5.4-.7,3.8-5.5,5.7-8.6,3.5-4.1-2-2.8-8.4.3-10.7h0ZM280.2,609.3c-2.1.2-3.6,0-5.5-.9-1.7,1.3-3.2,2.1-5.4,2.4v-1c3.7-4.2,10-4.6,14.3-8.3-1,2.9-.9,5.6-3.5,7.7h0ZM573.1,525.1c4-.2,7.8,2.4,8.5,6.4,1,4.3-2.2,7.4-5.7,9.1-1.8,0-3.6-.5-5.2-1.1-2.5-1.2-4.2-4.2-4.2-7.1-.2-3.8,3.1-7.1,6.7-7.4h0ZM519,553c-2.4.8-5.7.6-7.4-1.5-1.8-1.6-2.3-4.6-3.1-6.8.9-2.4,2.5-4.1,4.2-5.9,2.8-.4,5.4-.8,7.8,1,4.4,3.3,3.3,10.8-1.5,13.2ZM529.5,554h-.5v-.6h.5v.6ZM467.5,548.3c-1.3-1.1-2.8-2.3-4.1-3.5-1.6-3.4,0-8.9,3.9-10.2,3.9-.6,8.1,2.4,8.5,6.4-.8,4.4-4.1,6.5-8.3,7.3h0Z"/>
  <path class="st17" d="M436.7,146.9c4,6.6,8.3,13.6,10.5,20.9,1.3,4.2,3.1,8.1,3.6,12.5l1.1.7c-1.1,1.8-2.7,2.6-4.4,4,1.2,6.5.9,12.8,2.8,19.2,4.5,1.1,8.9,1.8,13-.8,1.1-2.6,2-5.1,1.4-8-.8-4.7-.8-11.2-4-15.1-2.4.8-4.9,1.5-7.5,1.8.7-2,4-1.1,5.6-2.4-1.3-8.4-3.8-16.1-7.5-23.6-2.8-7.2-7.3-13.1-11.6-19.5-2-3-4.3-5.6-6.8-8.3.4-.6.8-1.1,1.2-1.7-1.5-3.7-4.7-5.6-7.7-7.9-3.2-2.3-6.4-4.7-9.8-6.6-.5.8-.9,1.5-1.4,2.3-2.5-.5-4.9-2.5-7.3-3.7-9.3-4.3-18.9-7.7-29.1-9.1-15.2-2.8-31.3-1.9-46,2.7-6.5,2.4-13.1,4.7-19,8.2-8.9,4.5-16.7,11.7-23.6,18.8-5.7,5-8.8,11.4-13.2,17.6-1,2.4-2.4,4.9-2.5,7.5,1.2-1.1,2.2-2.4,3.2-3.8,3.5-2.6,8-4.1,11.8-6.1,6-6.3,12.2-13.7,19.5-19,6.2-4.5,12.8-8.4,20-11,5.3-1.8,10.2-4.2,15.8-5,10.6-2.4,21.5-2.8,32.1-.6,10.5,1.8,20.4,5.2,29.8,10.2,4.9,4,9.2,9.5,14.6,12.8,1.9,1.7,4.8-1.1,7.1-1.4-.6.5-1.2,1-1.8,1.5,3.3,4.4,7.1,8.3,9.9,13h.3Z"/>
  <path class="st12" d="M308.3,143.3c4.9-2.4,9.9-4.9,14.5-7.9,7.3-3.2,14.7-8.3,22.5-10.6.3-1.1.2-2.4.3-3.6-1.1-.7-2.2-1.3-3.4-1.7-3.7.7-7.3,2.4-10.8,3.6-6.3,2.1-12.5,4.9-18.2,8.6-4.1,2.5-8.2,5.4-11.3,9.1-1.1,1.1-.5,2.2-.4,3.6-3.8,3-7.9,3.7-12.2,5.7-6.5,3.1-12.4,7-18.7,10.6-3.7,3.2-5.9,7.1-8.5,11.2-5.1,8.8-7.2,19.1-5.7,29.1.5,3,.2,5.7,1.4,8.5,0-2.1.3-4.1.6-6.1.5.7.9,1.3,1.5,1.9,3.4-6.7,2.4-14,5.6-20.7,4-9,9.7-17.1,19-20.9,4.6-1.7,9.9-4.9,14.8-5.2.4.5.7,1,1,1.5v-1.9c.8-1.8,3.3-1.3,4.5-2.8,2.5-2,4-5.7,6.9-6.8-3.1-.9-6.1-1.8-9.4-2.2v-2.8c2.2.4,4,1.1,6.1,0h0Z"/>
  <path class="st13" d="M291,175.2c2.3-4.8,5.4-9.1,7.7-13.9-1.4.7-2.4,1-3.3,2.4,0-.6-.3-1-.4-1.6-2.8,1.1-5.2,3.2-7.7,4.8-.2.8-.3,1.7-.3,2.6-.4-.5-.8-.9-1.2-1.4-1.4,1.1-2.8,2.1-4.3,3.1-2.6,1.3-2.6,5.4-3.4,7.9.5,2.4,1.5,4.7,2.4,7.1.2,3.4,1.4,6.4,1,9.8-.2-1.5-.3-3-.5-4.5-.7,0-1.1.3-1.5.4,0-2.2-1.1-3.9-2.2-5.7l1.7-1.4c-.8-.7-1.5-.8-2.4-.4-3,1.8-4.4,5.4-7.1,7.9-2.6,2.6-3.9,5.8-5,9.3-.7,2-2,3.8-2.3,5.7-.7,4.5-2.4,8.7-3.2,13.2-1.6,12.3,1.4,24.5,7.3,35.3,1.5,2.8,4.6,3.4,5.4,6.9,2.1,10.4,4.4,20.3,10.2,29.3,2.4,3.7,4.1,7.4,7.1,10.7,1.9,2.5,4.6,4.1,6.7,6.3-.2-.8-.4-1.8-.5-2.6.8,0,1.7-.2,2.5-.4.5-2.4.5-4.8.6-7.3.7,3.7-.2,7.1-1,10.7h1.8c-.5,2.4.3,4.7.9,7,1.9,5.6,3.5,10.8,6.8,15.7,2.5,3.9,5.6,7.5,9.1,10.6,2.7,2.4,6.7,3.6,10.2,2.2,3.8-.8,5.5-5,5.7-8.5,0-4.1-.8-8.8-1.5-12.9-1.3-1.7-4.4-1.9-6.4-2.4-1.8,5.5-1.1,10.7-.9,16.4-1.4-.4-1.5-1.4-2.3-2.5-4.5-3.4-7.6-9-10.4-13.9-2.2-6.9-5.2-14.1-5.1-21.4-.2-4.7-.7-9.4-.7-14.1l-1.5-.8c.3-.6.6-1.2.8-1.8-2.4,0-4.3-.8-6.5-1.6-.2,5.3-.7,10.7-.2,16-1-.6-2.1-1-3.1-1.6-3.3-5.6-7.4-11.5-9.8-17.6-1.7-4.7-2.9-9.6-4.1-14.5-1.5-5.6,1.4-12.1,2.3-17.5.4-3.5-2.6-5.1-2.4-8.4-.7-.7-1.4-1.4-2.1-2.1,1.5.7,2.5,1.9,4.1,2.5,0,.4-.2.7-.4,1,3.4,3.2,6.6,6,9,10,2.9,4.8,5.1,10.4,7.3,15.5.8,2,2.6,3.3,4.8,3.6-.2.5-.5.9-.7,1.4,1.5.9,2.8,1.7,4.7,1.6,0-4.5-1.8-8.1-2.7-12.5-1-5-3.4-9.8-5.7-14.3-3-4.6-7.1-8.7-10.6-13-1-1.7-.8-4.1-.5-6,2.3-9.8,2.6-20.2.8-30.1-.2-4.1-2.6-8.4-1.3-12.2.8-3,2.5-5,3.8-7.7v-.2h0ZM279.3,224.3c-.5-3.5-2.9-5-5.1-7.4-1,1.3-2.2,2.4-3.2,3.8-.3,2.6-.3,5.1.2,7.7,2,1.8,4.9,4,5.8,6.6-.5,5.4-3.1,10.6-3.5,16,0,2.2-.4,4.3-.9,6.4,0-2.1.6-4.4,0-6.5-2.2-5.2-4.6-10.8-5.6-16.4-.9-7.2.5-13.8,1.9-20.7,1.9-7,6.1-11.7,10-17.6.8.2,1.2.7,1.4,1.4,2.9,8.8-.7,17.5,1.2,26.9,1.1,1.2,2.1,2.4,2.9,3.9-1.9-1.2-3.8-2.5-5.5-4.1h.3,0Z"/>
  <path class="st16" d="M420.8,270.1c-1.3,1.1-2.6.8-4.2.9-5.9.3-11.6,4.1-13.2,10-1.9,6.2,1.8,12.3,6.6,16.1,4.7,3,10.2,2.4,14.6-.6,3.2-2.5,4.6-6.1,5.7-10,.8-2.6-.4-5.8-1.1-8.4,1.1-4.5,4.8-6.2,7.4-10.1,13.8-16.3,23-37.2,24.3-58.6.2-1.7-1-2.7-2-4-2.1,0-3.8-.7-5.4,1.1.2.6.4,1,.5,1.5-1.7,7-2.6,13.8-5.1,20.7-2.8,7.9-6.5,15.7-11.1,22.7-5.1,6.5-10.6,13.6-17.1,18.7l.2-.2h0ZM414.4,289.7c-3.6-2.1-3.8-8,.8-9.1,2.6-.9,7.2-.7,7,3.2.8,3.8-4.2,8.4-7.8,5.9h0Z"/>
  <path class="st9" d="M286.7,271.5c2.3,2.9,6.1,3.6,9.2,4.9,2.2.8,3.7,2.4,5.2,4.1,4.5,1.2,8.3,4.1,11.3,7.4,3,3.5,6.5,7.3,8.2,11.7,1.1,2.8,3,5,4.9,7.3,3.1.8,5.7,2.1,8.9,1.9-2.6-8-6.9-14.9-11.2-22-4.1-5.4-9.2-9.9-15-13.4-2.8-1.5-6.7-1.9-9.3-3.8-4.1-3.1-9.1-5.4-14.1-6.4-1.1.9-1,6.1.8,6.1.2-1,.4-2.2.6-3.2,0,1.7-.8,4.1.5,5.4h0Z"/>
  <path class="st18" d="M477.8,412.8c3.1-2.9,8.3-3.5,12.2-4.7,4.3-.5,8.2-2.2,11.1-5.5-3.9-2-7.8-1.8-12.1-1.9-6.1.2-12.1,1.7-17.1,5.2-3.9,3-5.5,8.9-4.8,13.6.9,3.5,2.9,7.2,5.7,9.4,2.9,2.3,5.9,2.1,9.3,2.4,1.1,0,2.3.3,3.4-.2,5.3-2.4,9.3-6.1,13.3-10.3,6.7-4,12.1-10.6,20-12.2,7.7-1.3,15.5.8,22.8,3.1,2.7-.3,5.7-2.7,8.2-3.9-4.4-2.6-8.6-6-13.8-7-5.2-.8-10-2-15.2-1.1-7.1.5-13.4,3.2-19.4,6.7-6,4.7-11.8,9.6-18.3,13.7-1.5.4-3.2.5-4.8.6-.7-.9-1.3-1.8-2.1-2.7-.8.4-1.4.8-2.1,1.1,2.6-1.9.8-4.6,3.3-6.4h0Z"/>
  <polygon class="st24" points="614.6 427.1 615.3 427.5 615.9 427 615.9 426.3 615.3 425.9 614.6 426.3 614.6 427.1"/>
  <path class="st23" d="M659.6,542.9c1.6-1,1.4-3.5,1.8-5.2.9-9.2.6-19-2.5-27.8-2.2-5.4-4.7-10.6-6.8-15.9-.6-1.8-2.5-2.4-3.8-3.9-4-5.2-7.3-10.6-12.2-15-2.9-2.2-4.3-5.3-7.5-7.1-1.1.7-2.3,1.4-3.4,2.1,1.9,3.9,4.6,7.3,6.7,11.1,6.3,8.1,12.3,16.3,17.1,25.3,5.1,10.9,5.7,22.6,4.6,34.5,2.1,1.1,3.6,2.8,6.1,1.8Z"/>
  <polygon class="st20" points="340.5 519.5 340.5 520.1 341 520.1 341 519.5 340.5 519.5"/>
  <polygon class="st19" points="315.2 526.9 314.8 526.1 314.1 526.2 313.7 526.9 314.1 527.6 314.8 527.5 315.2 526.9"/>
  <polygon class="st21" points="281 605.8 280.9 605.3 280.4 605.3 280.5 605.9 281 605.8"/>
  <path class="st22" d="M154.8,629.1c2.7.8,5.6,1.5,8.4,2.3,5.8,1.6,12,1.4,17.9,1.5,4.1.4,8.1-.3,12.2-.8,2.5-.4,4.1-1.9,5.9-3.4,0-.4.2-.8.3-1.1,1.3.9,2.1.2,2.7-.9.6-1.7.8-3.3,1-5-3.4.7-6.6,1.4-10.1,1.5-7.6,1.1-15.1,1.6-22.7.5-3.7-.7-7.3-.6-10.7-1.9-4-1.4-8-2.4-11.9-4.1-2.5-1-4.8-2.4-7.6-2.9-2.4-2.4-6.1-2.4-8.9-4.6.3,2.5,1.3,4.8,3.2,6.6,6.1,5.3,12.3,10,20.2,12.5h0Z"/>
  <g>
    <path class="st25" d="M219.7,578.4c-7.3,0-15.9-.5-24.8-4.6-11.1-3.6-18.6-10.9-21.3-20.6,0,0,0-.1,0-.2-1.7-8.1-1.7-16.8.2-24.6.8-3.3,2.5-5.8,4.4-8-2.8.6-5.7,1-8.6,1s-2.4,0-3.5-.3c-.3,0-.7-.2-1-.3-2.8-1.5-4.9-3.7-7-5.8-.8-.8-1.5-1.5-2.2-2.2,0,0,0,0-.1-.1-.5-.5-1-1-1.6-1.5-2.8-2.7-6.3-6.1-7.1-10.7-1.1-6.8-1-14.4.2-22.6.2-1.5,1.5-2.6,3-2.6s.2,0,.3,0c.9,0,1.8.2,2.7.3.5-2,1.4-5.7,5.1-5.7s1.1,0,1.7.3c6.3,1.1,10.2,4.9,13.7,8.2,3.1,3,5.8,5.6,9.9,6.3,0,0,.2,0,.3,0,1.5.4,3.1.9,4.6,1.4,3.7,1.1,7.4,2.3,10.9,2.3,2.5,0,4.5-.6,6.3-2,7.7-6.5,14.3-15.1,20.7-23.4,3.6-4.6,7.2-9.4,11.1-13.8,3-4.1,6.2-7.4,9.2-10.7,4.9-5.1,9.1-9.6,11.8-16.1,6.7-15.9,9.8-34.2,12.6-50.3.7-6.1,1-12.5,1.3-18.6.3-7.7.7-15.6,1.9-23.3.9-6.1,4.2-12.2,9.4-17.3,5.1-5,12.5-7.4,18.9-9.5,1.7-.5,3.2-1.1,4.7-1.6,0,0,0,0,.1,0,8.6-2.7,16.5-6.8,23.8-10.7,6.5-3.7,9.9-7.9,10.7-13.3,1-6.3,1.5-13.7,1.8-22.4,0,0,0,0,0-.1.2-2.6-1.5-5.2-3.3-7.9-.5-.7-.9-1.4-1.4-2.1-8.7-3.7-10.1-13.5-9.7-21.2,0-.9.5-1.8,1.3-2.3l.6-.4c.9-.6,1.9-1.3,2.8-1.9,0-1.1,0-2.2,0-3.3,0-9.6.2-20.5,6.2-29.2,6.9-9.6,16.7-15.3,26.2-15.3s2.4,0,3.6.3c11.7,1.6,23.5,9.7,29.3,20.1,5.4,9.6,5,19.8,3.7,29.5.7.2,1.5.5,2.2.7,1.4.4,2.3,1.8,2.1,3.3-.9,7.1-2.1,15.9-11.4,19.6-.8,1.7-1.7,3.2-2.6,4.7-2.2,3.7-4.2,7-3.8,10.8.2,2.3.3,4.6.4,6.8.2,4.7.4,9.5,1.4,13.8,3,6.2,9.3,11.5,15.2,12.7,0,0,.1,0,.2,0,8.3,2.2,17.2,4.9,26.6,8.1,11.5,4.2,18.8,11.1,21.8,20.5,3.8,11.8,4.1,25.2,4.4,38.2.2,7.9.4,15.3,1.3,22.1.5,4.9,1.9,9.4,3.3,14.2,1.4,4.5,2.8,9.2,3.4,14.1.3,1.9.5,3.8.8,5.7.6,5.7,1.3,11.5,4.8,15.2,3.9,4.2,8.4,8.1,12.7,11.9,4,3.4,8.1,7,11.8,10.9,0,0,0,0,0,0,4,4.2,7.9,8.2,12.2,11.9,2,1.8,3.8,3.6,5.6,5.4,4.4,4.5,8.6,8.7,14.5,10.7.4,0,.8,0,1.2,0,2.3,0,4.9-.8,7.6-1.6,3-.9,6.1-1.9,9.3-1.9s.3,0,.4,0c.5,0,.9,0,1.3,0,3.1,0,5.3-1.7,8.1-3.8,2.8-2.1,6-4.6,10.6-5.5.2,0,.4,0,.6,0s.5,0,.7,0c2.9.7,5.2,2.9,7.2,4.8.8.7,1.5,1.5,2.2,2,.3.2.5.4.6.7,0-.1.2-.3.3-.4.6-.9,1.5-1.4,2.5-1.4s.2,0,.3,0c1.1.1,2.1.9,2.5,1.9,2,5.4,6,18.9,0,27.6-.1.2-.3.4-.5.6-3,2.6-6.8,3.7-10.5,4.7-1.9.5-3.7,1-5.2,1.7-2.9,1.3-6.2,1.9-10.2,1.9s-4.1-.2-6.1-.4c3.9,4.5,7.7,9.6,9.4,15.5,0,.1,0,.2,0,.4,1.2,7.7-.9,16.5-5.6,23.7-5.1,7.4-14,11.3-21.8,14.8l-1.7.8c-8.3,4.1-17.8,4.3-26.9,4.5-4.8.1-9.4.2-13.8.8-10.6,1.4-21.4,1.8-31.7,2.1-4,.1-8.2.2-12.3.4,0,0-.2,0-.2,0-8.1-.2-16.2-.7-24-1.1-10.7-.6-21.8-1.2-32.8-1.2s-11.2.2-16.4.5c0,0-.1,0-.2,0-8.2,0-16.4.2-24.6.2-16.1.1-32.8.3-49.3.6,0,0,0,0-.1,0-2.4,0-4.9,0-7.3,0-20.7,0-41.6,1-61.8,2h-2c-3.4.2-6.7.3-10,.3ZM246.7,499.2c8,0,14.6.3,20.7.9,3-1.4,6-2,9.7-2s2.9,0,4.5.2c3.8-1.7,7.8-2.6,11.6-3.5,2.7-.6,5.2-1.2,7.7-2,2.5-.9,3.5-3.4,4.7-7.2.3-1.2.7-2.4,1.1-3.7,2.3-8.2,4.6-15.9,9.4-23.4,0-.1.1-.2.2-.3.4-.7.8-1.3,1.2-1.9,1.4-2.1,2.7-4.1,2.5-6,0,0,0-.1,0-.2,0-2.8-.1-5.6-.2-8.3-.1-9.6-.3-18.7-2.3-28.2-.8-3.5-3.1-6.9-5.5-10.4-1.7-2.5-3.4-5.1-4.7-7.9-.9-1.6-1.5-3.1-2-4.6-.9,6.5-2,13.1-3.9,19.5-.7,2.2-1.3,4.6-1.9,6.8-2,7.6-4.1,15.4-8.2,22.1-1.4,2.4-2.5,5-3.4,7.4-1.6,3.8-3.2,7.8-6.4,11.5-5.8,6.7-12.6,12.6-19.2,18.3l-.8.7c-6.6,5.7-13.7,10.6-20.6,15.4-3.3,2.3-6.7,4.6-10,7.1.2,0,.5,0,.7,0,4.9-.1,9.9-.2,14.9-.2ZM442,485c3.8,1.3,7.8,2.7,10.6,7,.2.3.4.7.5,1.2.3,1.6.4,3.3.5,4.9,2.2-.6,4.4-1.3,6.6-1.9,8.6-2.6,17.5-5.2,26.4-5.2,2.1,0,4.2,0,6.3,0-6.7-4.4-13.7-8.4-21.4-12.3-9.7-4.9-19.1-12-28.7-21.7-3.5-3.3-4.7-7.4-5.6-11.3-1.3-5.6-3-11-4.5-16.2-2.4-7.8-4.8-15.9-6.2-24.5-.6-3.3-1-6.6-1.2-9.8-.2.5-.3,1-.5,1.5,0,0,0,.1,0,.2-4.7,11.5-5,25.2-5.2,38.4,0,4.4-.1,8.9-.4,13.2,0,0,0,0,0,.1-.5,4.7,1.7,7.8,4.9,12,1.9,2.4,3.5,5,5,7.5,1.9,3.2,3.8,6.3,6.3,8.7,2.5,2.5,4.2,5.3,5.7,8.1.3,0,.5.2.8.3Z"/>
    <path class="st27" d="M366.5,174.6c1,0,2.1,0,3.1.2,10.9,1.5,21.8,8.9,27.1,18.6,5.4,9.5,4.5,19.9,3,30.1,1.5.5,3.1,1,4.7,1.5-1,7.8-2.2,14.9-10.6,17.6-2.7,6.2-7.9,11.2-7.3,18.2.6,7.1.3,14.5,1.9,21.4,3.1,6.7,10.1,13.2,17.4,14.7,8.9,2.4,17.7,5.1,26.4,8,9,3.3,16.9,8.9,19.9,18.6,5.8,18.3,3.1,41.5,5.6,59.8,1,9.9,5.5,18.6,6.7,28.4,1.3,7.4.8,16.7,6.3,22.5,7.5,8.2,16.9,14.8,24.6,22.8,4.1,4.2,8,8.4,12.4,12.2,6.9,6,12.2,13.7,21.3,16.7.6.1,1.3.2,2,.2,5.5,0,11.4-3.5,16.9-3.5.6,0,1.2.1,1.7.1,7.8,0,10.9-7.7,19.4-9.4,3.1.8,5.7,4.2,8.2,6.2.4,4.6.7,9.3,1.3,13.8,0,0,0,.1,0,.2v.3c0-.2,0-.3,0-.5,1-5,1.1-9.9,4-14.3,2.6,7.2,5,18.1.4,24.9-3.9,3.4-10.3,3.9-15,5.9-2.9,1.3-5.9,1.7-9,1.7-4.4,0-9-.8-13.4-1.1,5.2,6,11.5,12.2,13.8,20.1,1.1,7.3-1.1,15.5-5.2,21.6-5,7.2-14.5,11-22.2,14.5-11.9,5.8-26.8,3.2-39.9,5.1-14.5,2-29,1.8-43.7,2.4-19.1-.5-37.9-2.3-56.9-2.3s-11,.2-16.6.5c-24.7.3-49.3.3-74,.8-2.5,0-4.9,0-7.4,0-20.8,0-41.4,1-62.2,2-4,.2-7.8.3-11.7.3-8.1,0-15.9-.8-23.7-4.4-9.1-2.9-16.9-9-19.5-18.6-1.6-7.4-1.6-15.8.2-23.3,1.4-5.7,6.3-9,10.1-13.3-5.5.5-11.5,2.6-17.1,2.6s-2,0-3-.2c-3.3-1.8-5.8-5-8.6-7.5-2.9-3-7.1-6.3-7.8-10.6-1.1-7.1-.8-14.6.2-21.7,1.8.2,3.5.5,5.2.7.9-1.6.8-6,2.9-6,.3,0,.5,0,.9.2,10.9,1.7,13.7,12.9,23.9,14.5,5,1.3,10.8,3.8,16.2,3.8s5.7-.7,8.2-2.6c12.3-10.4,21.5-25.3,32.2-37.6,7.7-10.6,16.8-16.1,21.5-27.5,6.7-15.9,9.9-34.1,12.8-51.1,1.6-13.8,1-28.1,3.1-41.9.8-5.9,4.3-11.5,8.6-15.6,5.8-5.7,15.1-7.7,22.6-10.5,8.6-2.7,16.5-6.7,24.3-10.9,6.1-3.5,11.1-8.2,12.2-15.5,1.1-7.4,1.6-15.3,1.8-22.8.3-4.8-3.4-8.7-5.7-12.6-7.9-2.7-9.1-11.3-8.8-18.7,1.5-1,3.1-2.2,4.7-3.1.3-10.8-.8-23.1,5.7-32.5,5.4-7.6,14.2-14,23.7-14M222,502.6c8.2-.1,16.4-.4,24.6-.4,7.1,0,14.1.2,21.2,1,3.2-1.6,6.1-2.1,9.2-2.1,1.6,0,3.3.1,5.1.3,6.3-2.9,13.2-3.6,19.7-5.7,4.1-1.4,5.4-5.4,6.6-9.1,2.7-9.2,4.8-18.1,10.2-26.4h0c1.8-3.1,4.8-6.3,4.4-10.2-.4-12.6.2-24.5-2.5-37-1.6-6.9-7.4-12.5-10.5-19-4.3-7.8-2.6-15.1-4.7-23.6l-.3-1.1c-2.1,13.5-2.5,26.9-6.4,40.1-2.8,9.5-4.7,19.9-9.8,28.2-3.9,6.6-4.7,12.9-9.5,18.5-5.9,6.8-12.9,12.8-19.7,18.7-11.9,10.3-25.4,18-37.6,27.9M450.7,501.8c11.6-2.8,24-8,36-8,5.3,0,10.6,0,15.9,0-9.3-6.8-19.2-12.7-29.6-18-10.6-5.4-19.7-12.8-28-21.1-2.8-2.7-4-6-4.8-9.8-3.4-14.1-8.4-26.5-10.7-40.6-1.9-10-1.2-20.1-3.7-30-1.1,7.3-1.4,14.1-3.9,21.2-6.6,15.9-4.8,35.4-5.7,52.6-.6,5.9,2.2,9.8,5.6,14.1,4.3,5.4,6.7,11.9,11.6,16.6,2.4,2.4,4.1,5.4,5.7,8.4,4.3,1.6,8.3,2.4,11,6.5.5,2.6.6,5.4.6,8.2M562.5,498.7s0,0,0,0h0c0,0,0,0,0,0,4.9-6.6,6.2-11,6.8-19.2-2.5,2.9-5.1,5.8-7.5,8.9.8,1,1.5,2,2.3,3-.6,2.4-1,4.9-1.5,7.3M166.6,500.1c1.9-.2,3.8-.4,5.6-.6-2.3-5.9-5.3-11.1-10-15.5.4,5.7,2.1,10.8,4.4,16h0M366.5,168.6h0c-10.5,0-21.2,6.2-28.6,16.5,0,0,0,0,0,0-6.6,9.5-6.7,20.9-6.7,30.9,0,.6,0,1.1,0,1.7-.5.4-1.1.7-1.6,1.1l-.6.4c-1.5,1.1-2.5,2.8-2.6,4.6-.7,14.6,4.9,21,10.6,23.7.3.5.6,1,.9,1.4,1.5,2.3,2.9,4.4,2.8,6.1,0,0,0,.1,0,.2-.2,8.6-.8,15.8-1.7,22-.7,4.4-3.5,7.9-9.2,11.1-7.1,3.9-14.9,7.8-23.2,10.5,0,0-.1,0-.2,0-1.5.5-3,1-4.7,1.6-6.8,2.2-14.5,4.8-20.1,10.2-5.7,5.6-9.4,12.4-10.3,19.1-1.2,7.9-1.5,15.9-1.9,23.6-.3,6.3-.5,12.3-1.2,18.3-2.8,16-5.9,34.1-12.4,49.6-2.5,6.1-6.5,10.3-11.2,15.2-3.1,3.3-6.3,6.6-9.4,10.8-3.9,4.4-7.5,9.2-11.1,13.8-6.3,8.2-12.8,16.6-20.2,22.8-1.2.9-2.6,1.3-4.4,1.3-3,0-6.5-1.1-10-2.2-1.6-.5-3.2-1-4.8-1.4-.2,0-.4,0-.6-.1-3-.5-5.1-2.4-8.3-5.5-3.5-3.4-7.9-7.7-15-8.9-.8-.3-1.6-.4-2.4-.4-4.2,0-6.2,2.9-7.2,5.4,0,0-.2,0-.3,0-.2,0-.4,0-.6,0-2.9,0-5.5,2.2-5.9,5.1-1.2,8.5-1.3,16.4-.2,23.5,0,0,0,0,0,0,1,5.5,4.8,9.3,7.9,12.3.5.5,1,1,1.5,1.5,0,0,.1.1.2.2.7.6,1.4,1.3,2.1,2.1,2.1,2.2,4.6,4.6,7.7,6.4.6.3,1.2.5,1.9.7,1.3.2,2.6.3,4,.3s1.6,0,2.4,0c-.5,1-.9,2.2-1.2,3.4-2,8.2-2.1,17.4-.2,26,0,.1,0,.2,0,.3,2.9,10.6,11.2,18.6,23.1,22.6,9.4,4.2,18.4,4.8,25.9,4.8s6.8-.1,10.1-.3h1.8c0,0,0,0,0,0h.2c20.2-1,41.1-2,61.7-2s4.9,0,7.3,0c0,0,0,0,0,0,0,0,0,0,.1,0,16.4-.4,33.1-.5,49.2-.6,8.1,0,16.4-.1,24.7-.2.1,0,.2,0,.3,0,5.1-.3,10.4-.5,16.2-.5,10.8,0,21.9.6,32.6,1.2,7.9.4,16,.9,24.1,1.1,0,0,.1,0,.2,0,0,0,.2,0,.3,0,4.1-.2,8.2-.3,12.2-.4,10.5-.3,21.3-.6,32-2.1,4.2-.6,8.7-.7,13.4-.8,9.5-.2,19.2-.4,28.1-4.8.5-.2,1.1-.5,1.6-.7,7.7-3.5,17.4-7.8,23-15.8,0,0,0,0,0-.1,5.1-7.8,7.4-17.4,6.1-25.8,0-.3,0-.5-.2-.7-1.2-4.2-3.3-7.9-5.7-11.3,4.2,0,7.8-.8,11-2.2,1.3-.6,3-1,4.8-1.5,3.9-1.1,8.2-2.3,11.7-5.4.4-.3.7-.7,1-1.1,6.5-9.5,3-23.1.3-30.3-.8-2.1-2.7-3.6-5-3.9-.2,0-.4,0-.7,0-1,0-1.9.2-2.8.7-.2-.2-.5-.5-.7-.7-2.1-2.1-4.8-4.6-8.5-5.5-.5-.1-.9-.2-1.4-.2s-.8,0-1.2.1c-5.3,1.1-8.9,3.9-11.8,6.1-2.8,2.1-4.3,3.2-6.3,3.2s-.6,0-.9,0c-.3,0-.5,0-.8,0-3.6,0-7.1,1.1-10.2,2-2.5.8-4.9,1.5-6.7,1.5s-.4,0-.6,0c-5-1.8-8.7-5.5-13-9.9-1.8-1.8-3.7-3.7-5.7-5.5,0,0,0,0,0,0-4.2-3.5-7.9-7.5-11.9-11.7h0c-3.8-4-8-7.6-12-11.1-4.5-3.9-8.7-7.6-12.5-11.6,0,0,0,0,0,0-2.8-3-3.4-8.1-4-13.5-.2-1.9-.4-3.9-.8-5.8-.7-5.2-2.1-10-3.5-14.6-1.4-4.6-2.7-9-3.2-13.5,0,0,0-.1,0-.2-.9-6.6-1.1-14-1.2-21.8-.3-13.2-.6-26.9-4.5-39.1-3.2-10.3-11.2-17.9-23.5-22.4,0,0,0,0-.1,0-9.4-3.2-18.4-5.9-26.8-8.1-.1,0-.2,0-.3,0-4.8-1-10.3-5.6-12.9-10.8-.9-4-1-8.4-1.2-13,0-2.3-.2-4.6-.4-6.9,0,0,0,0,0,0-.3-2.7,1.1-5.2,3.4-9,.8-1.3,1.5-2.5,2.2-3.9,10-4.5,11.3-14.3,12.2-21.6.4-2.9-1.3-5.6-4.1-6.5,1-9.2,1-19.4-4.4-28.9-6.3-11.3-18.7-19.8-31.5-21.5-1.3-.2-2.6-.3-4-.3h0ZM294,440.6c4.3-7.1,6.5-15.1,8.5-22.8.6-2.3,1.2-4.5,1.9-6.7,1-3.5,1.8-7,2.5-10.5.9,1.4,1.8,2.8,2.7,4.2,2.2,3.3,4.3,6.4,5,9.4,2,9.2,2.1,18.1,2.2,27.5,0,2.7,0,5.5.2,8.4,0,.1,0,.3,0,.4,0,.8-1.1,2.6-2,4.1-.4.6-.8,1.2-1.2,1.9,0,.1-.2.3-.3.4-5.1,7.9-7.5,16.2-9.8,24.2-.3,1.2-.7,2.4-1.1,3.7-1.1,3.3-1.7,4.8-2.8,5.2-2.3.8-4.8,1.3-7.3,2-3.7.9-7.6,1.8-11.4,3.4-1.4-.1-2.7-.2-4.1-.2-3.8,0-7.1.6-10.2,1.9-6-.6-12.5-.8-20.2-.8s-4,0-5.9,0c.7-.5,1.4-.9,2-1.4,6.9-4.8,14.1-9.8,20.8-15.6l.9-.7c6.6-5.8,13.5-11.8,19.4-18.6,3.5-4.1,5.2-8.3,6.9-12.3,1-2.4,1.9-4.7,3.3-7h0ZM426.4,458.5c-3.2-4-4.6-6.3-4.3-9.8,0,0,0-.2,0-.2.2-4.4.3-8.9.4-13.3.1-8.7.3-17.7,1.7-25.9,1.5,7.3,3.6,14.3,5.6,21,1.6,5.2,3.2,10.6,4.5,16.1,1,4.3,2.4,8.8,6.4,12.7,9.8,9.8,19.5,17.1,29.5,22.2,4.3,2.2,8.5,4.5,12.6,6.9-8,.6-15.8,2.9-23.5,5.2-1.1.3-2.1.6-3.1.9,0-.5-.1-1-.2-1.5-.1-.8-.5-1.6-.9-2.3-3.4-5-8-6.7-11.9-8.1-1.5-2.6-3.2-5.3-5.6-7.7,0,0,0,0,0,0-2.2-2.2-4-5.1-5.8-8.1-1.5-2.6-3.2-5.3-5.2-7.9h0Z"/>
  </g>
</svg>